<?xml version="1.0" standalone="no"?>
<!DOCTYPE svg PUBLIC "-//W3C//DTD SVG 1.1//EN" "http://www.w3.org/Graphics/SVG/1.1/DTD/svg11.dtd" >
<svg>
<metadata>
Created by FontForge 20090914 at Fri Aug 14 23:25:37 2020
 By www-data
Copyright (c) 2010-2012 by Claus Eggers S&#195;&#184;rensen (es@forthehearts.net), with Reserved Font Name 'Playfair'.
</metadata>
<defs>
<font id="PlayfairDisplay-Regular" horiz-adv-x="694" >
  <font-face 
    font-family="Playfair Display"
    font-weight="400"
    font-stretch="normal"
    units-per-em="2048"
    panose-1="0 0 5 0 0 0 0 0 0 0"
    ascent="1638"
    descent="-410"
    x-height="1055"
    cap-height="1450"
    bbox="-547 -494.006 2480 2047"
    underline-thickness="41"
    underline-position="-245"
    unicode-range="U+000D-U+FB02"
  />
<missing-glyph horiz-adv-x="1151" 
d="M1028 0h-905v1581h905v-1581zM197 1520v-1459h757v1459h-757z" />
    <glyph glyph-name="fi" unicode="fi" horiz-adv-x="1268" 
d="M53 1053l164.003 0.000976562c0 184.667 49.333 323 148 415c92.667 89.333 220.334 134 383.001 134c116.667 0 208 -20.667 274 -62c46.667 -29.333 70 -67 70 -113c0 -36.667 -13 -68 -39 -94s-56.667 -39 -92 -39c-36 0 -67 13 -93 39s-39 56.667 -39 92
c0 24.667 6.16699 47.167 18.5 67.5s28.833 36.166 49.5 47.499c-31.333 20.667 -81 31 -149 31c-136 0 -233 -52.667 -291 -158c-20 -36 -34.333 -80.833 -43 -134.5s-13 -128.834 -13 -225.501h330c154.667 0 268 8 340 24v-887c0 -56 11.667 -94.5 35 -115.5
s63.666 -31.5 120.999 -31.5v-43c-125.333 5.33301 -208 8 -248 8s-122.667 -2.66699 -248 -8v43c57.333 0 97.666 10.5 120.999 31.5s35 59.5 35 115.5v641c0 63.333 -11.5 109.333 -34.5 138s-63.5 43 -121.5 43h-330v-822c0 -55.333 14.667 -93.666 44 -114.999
s73.666 -32 132.999 -32v-43c-149.333 5.33301 -239 8 -269 8c-37.333 0 -120 -2.66699 -248 -8v43c57.333 0 97.666 10.5 120.999 31.5s35 59.5 35 115.5v822h-164v41z" />
    <glyph glyph-name="fl" unicode="fl" horiz-adv-x="1272" 
d="M1071 1606l0.00488281 -1416c0 -56 11.667 -94.5 35 -115.5s63.666 -31.5 120.999 -31.5v-43c-125.333 5.33301 -208 8 -248 8s-122.667 -2.66699 -248 -8v43c57.333 0 97.666 10.5 120.999 31.5s35 59.5 35 115.5v1141c0 76 -18.667 132.667 -56 170
c-24 24 -54.333 41.667 -91 53s-71.667 17 -105 17c-68 0 -122 -21.333 -162 -64c-28.667 -28.667 -47.834 -64.334 -57.501 -107.001s-14.5 -94.334 -14.5 -155.001v-192h261v-41h-261v-822c0 -55.333 14.667 -93.666 44 -114.999s73.666 -32 132.999 -32v-43
c-149.333 5.33301 -239 8 -269 8c-37.333 0 -120 -2.66699 -248 -8v43c57.333 0 97.666 10.5 120.999 31.5s35 59.5 35 115.5v822h-164v41h164c0 116 8.33301 209.167 25 279.5s52 128.5 106 174.5c72.667 63.333 165 95 277 95c26.667 0 68 -4.16699 124 -12.5
s102 -12.5 138 -12.5c68.667 0 130 9.66699 184 29z" />
    <glyph glyph-name="f_b.liga" unicode="fb" horiz-adv-x="1835" 
d="M1030 1606l-0.000976562 -741.999c30 69.333 73.167 123.166 129.5 161.499s119.833 57.5 190.5 57.5c116 0 209.833 -47.833 281.5 -143.5s107.5 -233.5 107.5 -413.5c0 -89.333 -12.167 -169.833 -36.5 -241.5s-57.666 -130 -99.999 -175
s-90.666 -79.333 -144.999 -103s-112.833 -35.5 -175.5 -35.5c-50 0 -98.667 10.167 -146 30.5s-88.666 50.166 -123.999 89.499l-146 -124l-35 15c10 32.667 15 72 15 118v1231c0 73.333 -18.333 130 -55 170c-23.333 23.333 -51.333 40.833 -84 52.5
s-64.334 17.5 -95.001 17.5c-55.333 0 -102.333 -19.333 -141 -58c-29.333 -29.333 -48.333 -66.166 -57 -110.499s-13 -96.833 -13 -157.5v-192h261v-41h-261v-822c0 -55.333 14.667 -93.666 44 -114.999s73.666 -32 132.999 -32v-43c-149.333 5.33301 -239 8 -269 8
c-37.333 0 -120 -2.66699 -248 -8v43c57.333 0 97.666 10.5 120.999 31.5s35 59.5 35 115.5v822h-164v41h164c0 116.667 8.33301 209.667 25 279s52 127.666 106 174.999c71.333 63.333 158 95 260 95c24 0 62.333 -3.5 115 -10.5s98.334 -10.5 137.001 -10.5
c71.333 0 128 8.33301 170 25zM1030 767.001v-646.999c66 -68 144.667 -102 236 -102c92 0 160.667 41.5 206 124.5s68 210.833 68 383.5c0 166.667 -20.5 291 -61.5 373s-103.833 123 -188.5 123c-57.333 0 -110 -22.333 -158 -67s-82 -107.334 -102 -188.001z" />
    <glyph glyph-name="f_f" unicode="ff" horiz-adv-x="1337" 
d="M53 1053l164.002 -0.00390625c0 150.667 30.667 261.667 92 333c34.667 41.333 79.167 74 133.5 98s113.833 36 178.5 36c63.333 0 120.5 -13 171.5 -39s89.167 -63.333 114.5 -112c16.667 50 40.667 93.333 72 130c26.667 32 61.334 57.167 104.001 75.5
s89 27.5 139 27.5c70 0 129.333 -18.667 178 -56c42.667 -34.667 64 -77 64 -127c0 -31.333 -10.167 -57.166 -30.5 -77.499s-46.5 -30.5 -78.5 -30.5c-31.333 0 -57.833 10 -79.5 30s-32.5 46.667 -32.5 80c0 28 7.83301 51.167 23.5 69.5s36.5 30.166 62.5 35.499
c-4 12.667 -15 23.334 -33 32.001s-40.667 13 -68 13c-60.667 0 -105 -25.333 -133 -76c-15.333 -27.333 -25.333 -68.166 -30 -122.499s-7 -143.166 -7 -266.499v-53h220v-41h-220v-801c0 -63.333 18 -107.166 54 -131.499s90.333 -36.5 163 -36.5v-43
c-168 5.33301 -273 8 -315 8c-33.333 0 -114 -2.66699 -242 -8v43c57.333 0 97.666 10.5 120.999 31.5s35 59.5 35 115.5v822h-473v-822c0 -56 11.667 -94.5 35 -115.5s63.666 -31.5 120.999 -31.5v-43c-125.333 5.33301 -207.333 8 -246 8s-122 -2.66699 -250 -8v43
c57.333 0 97.666 10.5 120.999 31.5s35 59.5 35 115.5v822h-164v41zM401.002 1053h473c0 112 6.66699 200 20 264c-18.667 49.333 -50.667 89.333 -96 120s-101.666 46 -168.999 46c-78.667 0 -136.334 -25.833 -173.001 -77.5s-55 -134.5 -55 -248.5v-104z" />
    <glyph glyph-name="f_f_b.liga" unicode="ffb" horiz-adv-x="2492" 
d="M1688 1606v-741c30 69.333 73.167 123 129.5 161s119.5 57 189.5 57c116 0 209.833 -47.833 281.5 -143.5s107.5 -233.5 107.5 -413.5c0 -89.333 -12.167 -169.833 -36.5 -241.5s-57.666 -130 -100 -175c-42.333 -45 -90.666 -79.333 -145 -103
c-54.333 -23.667 -112.833 -35.5 -175.5 -35.5c-50 0 -98.5 10.167 -145.5 30.5s-88.167 50.166 -123.5 89.499l-146 -124l-35 15c9.33301 33.333 14 72.666 14 117.999v1231c0 74.667 -18.333 131.334 -55 170.001c-22.667 23.333 -50.5 40.833 -83.5 52.5
s-64.5 17.5 -94.5 17.5c-56 0 -103.333 -19.333 -142 -58c-20 -20 -35.5 -46.5 -46.5 -79.5s-17.5 -62.667 -19.5 -89s-3 -59.5 -3 -99.5v-192h260v-41h-260v-822c0 -55.333 14.5 -93.666 43.5 -114.999s73.167 -32 132.5 -32v-43c-146.667 5.33301 -236 8 -268 8
c-40 0 -122.667 -2.66699 -248 -8v43c57.333 0 97.5 10.5 120.5 31.5s34.5 59.5 34.5 115.5v822h-473v-822c0 -56 11.667 -94.5 35 -115.5s63.666 -31.5 120.999 -31.5v-43c-125.333 5.33301 -207.333 8 -246 8s-122 -2.66699 -250 -8v43c57.333 0 97.666 10.5 120.999 31.5
s35 59.5 35 115.5v822h-164v41h164c0 144.667 33.333 255.667 100 333c37.333 41.333 83.833 74 139.5 98s117.167 36 184.5 36c123.333 0 219.333 -37.333 288 -112c19.333 38 45 71 77 99c70 63.333 156.667 95 260 95c24 0 62.333 -3.5 115 -10.5
s98.334 -10.5 137.001 -10.5c70.667 0 127.334 8.33301 170.001 25zM401 1053h473c0 144 12.667 250 38 318c-29.333 34.667 -65.333 62 -108 82s-88.667 30 -138 30c-176.667 0 -265 -108.667 -265 -326v-104zM1688 770v-651.001c66 -67.333 144.333 -101 235 -101
c92 0 160.833 41.5 206.5 124.5s68.5 210.833 68.5 383.5c0 166.667 -20.5 291 -61.5 373s-103.833 123 -188.5 123c-56.667 0 -109 -22.167 -157 -66.5s-82.333 -106.166 -103 -185.499z" />
    <glyph glyph-name="f_f_h.liga" unicode="ffh" horiz-adv-x="2511" 
d="M2324 737l0.00390625 -547.004c0 -56 11.667 -94.5 35 -115.5s63.666 -31.5 121 -31.5v-43c-125.333 5.33301 -207.333 8 -246 8c-38 0 -114.333 -2.66699 -229 -8v43c50 0 85 10.5 105 31.5s30 59.5 30 115.5v592c0 28.667 -1 53.334 -3 74.001
s-6.33301 41.834 -13 63.501s-15.834 39.167 -27.5 52.5c-11.667 13.333 -27.834 24.333 -48.501 33s-45.334 13 -74.001 13c-84 0 -152.667 -34.667 -206 -104s-80 -158.333 -80 -267v-457c0 -56 10 -94.5 30 -115.5s55 -31.5 105 -31.5v-43
c-114.667 5.33301 -191.334 8 -230.001 8c-38 0 -119.667 -2.66699 -245 -8v43c57.333 0 97.5 10.5 120.5 31.5s34.5 59.5 34.5 115.5v1141c0 74.667 -18.333 131.334 -55 170.001c-22.667 23.333 -50.5 40.833 -83.5 52.5s-64.5 17.5 -94.5 17.5
c-56 0 -103.333 -19.333 -142 -58c-20 -20 -35.5 -46.5 -46.5 -79.5s-17.5 -62.667 -19.5 -89s-3 -59.5 -3 -99.5v-192h260v-41h-260v-822c0 -55.333 14.5 -93.666 43.5 -114.999s73.167 -32 132.5 -32v-43c-146.667 5.33301 -236 8 -268 8c-40 0 -122.667 -2.66699 -248 -8
v43c57.333 0 97.5 10.5 120.5 31.5s34.5 59.5 34.5 115.5v822h-473v-822c0 -56 11.667 -94.5 35 -115.5s63.666 -31.5 120.999 -31.5v-43c-125.333 5.33301 -207.333 8 -246 8s-122 -2.66699 -250 -8v43c57.333 0 97.666 10.5 120.999 31.5s35 59.5 35 115.5v822h-164v41
h164c0 144.667 33.333 255.667 100 333c37.333 41.333 83.833 74 139.5 98s117.167 36 184.5 36c123.333 0 219.333 -37.333 288 -112c19.333 38 45 71 77 99c70 63.333 156.667 95 260 95c24 0 62.333 -3.5 115 -10.5s98.334 -10.5 137.001 -10.5
c70 0 126.667 7.66699 170 23v-766c63.333 163.333 179.333 245 348 245c95.333 0 167.666 -25.667 217 -77c25.333 -28 43.5 -62.5 54.5 -103.5s16.5 -96.167 16.5 -165.5zM401.004 1053h473c0 144 12.667 250 38 318c-29.333 34.667 -65.333 62 -108 82
s-88.667 30 -138 30c-176.667 0 -265 -108.667 -265 -326v-104z" />
    <glyph glyph-name="f_f_i" unicode="ffi" horiz-adv-x="1925" 
d="M1729 1077l0.000976562 -887c0 -56 11.5 -94.5 34.5 -115.5s63.167 -31.5 120.5 -31.5v-43c-125.333 5.33301 -208 8 -248 8c-39.333 0 -121.666 -2.66699 -246.999 -8v43c57.333 0 97.5 10.5 120.5 31.5s34.5 59.5 34.5 115.5v641c0 63.333 -11.5 109.333 -34.5 138
s-63.167 43 -120.5 43h-330v-822c0 -55.333 14.5 -93.666 43.5 -114.999s73.167 -32 132.5 -32v-43c-146.667 5.33301 -236 8 -268 8c-40 0 -122.667 -2.66699 -248 -8v43c57.333 0 97.5 10.5 120.5 31.5s34.5 59.5 34.5 115.5v822h-473v-822c0 -56 11.667 -94.5 35 -115.5
s63.666 -31.5 120.999 -31.5v-43c-125.333 5.33301 -207.333 8 -246 8s-122 -2.66699 -250 -8v43c57.333 0 97.666 10.5 120.999 31.5s35 59.5 35 115.5v822h-164v41h164c0 144.667 33.333 255.667 100 333c37.333 41.333 83.833 74 139.5 98s117.167 36 184.5 36
c136.667 0 240 -46.333 310 -139c20.667 33.333 44.334 62.333 71.001 87c94 89.333 221.667 134 383 134c116.667 0 208 -20.667 274 -62c46.667 -29.333 70 -67 70 -113c0 -36.667 -12.833 -68 -38.5 -94s-56.5 -39 -92.5 -39s-66.833 13 -92.5 39s-38.5 56.667 -38.5 92
c0 24.667 6 47.167 18 67.5s28.333 36.166 49 47.499c-30.667 20.667 -80.334 31 -149.001 31c-136 0 -233 -52.667 -291 -158c-20 -35.333 -34.167 -79.833 -42.5 -133.5s-12.5 -129.167 -12.5 -226.5h330c154 0 267.333 8 340 24zM401.001 1053h472.998
c0 117.333 19.333 215 58 293c-29.333 41.333 -67.166 74.5 -113.499 99.5s-97.166 37.5 -152.499 37.5c-176.667 0 -265 -108.667 -265 -326v-104z" />
    <glyph glyph-name="f_f_j.liga" unicode="ffj" horiz-adv-x="1884" 
d="M1059 1053l330.003 -0.000976562c154 0 267.333 8 340 24v-841c0 -110.667 -7.66699 -207.667 -23 -291s-44 -151.666 -86 -204.999c-32 -40.667 -70.167 -71.667 -114.5 -93s-88.833 -32 -133.5 -32c-34 0 -62.667 6.66699 -86 20c-34 20.667 -51 50.334 -51 89.001
c0 28 8.66699 51 26 69s40.666 27 69.999 27c27.333 0 49.5 -8.83301 66.5 -26.5s25.5 -39.5 25.5 -65.5c0 -32 -10.667 -59.333 -32 -82c37.333 4 67.333 14 90 30c21.333 16 37 37.333 47 64c10.667 29.333 16 71.666 16 126.999v964c0 63.333 -11.5 109.333 -34.5 138
s-63.167 43 -120.5 43h-330v-801c0 -63.333 18 -107.166 54 -131.499s90.333 -36.5 163 -36.5v-43c-170.667 5.33301 -275.667 8 -315 8c-36 0 -116.667 -2.66699 -242 -8v43c57.333 0 97.5 10.5 120.5 31.5s34.5 59.5 34.5 115.5v822h-473v-822
c0 -56 11.667 -94.5 35 -115.5s63.666 -31.5 120.999 -31.5v-43c-125.333 5.33301 -207.333 8 -246 8s-122 -2.66699 -250 -8v43c57.333 0 97.666 10.5 120.999 31.5s35 59.5 35 115.5v822h-164v41h164c0 144.667 33.333 255.667 100 333c37.333 41.333 83.833 74 139.5 98
s117.167 36 184.5 36c136.667 0 240 -46.333 310 -139c20.667 33.333 44.334 62.333 71.001 87c94 89.333 221.667 134 383 134c116.667 0 208 -20.667 274 -62c46.667 -29.333 70 -67 70 -113c0 -36.667 -12.833 -68 -38.5 -94s-56.5 -39 -92.5 -39s-66.833 13 -92.5 39
s-38.5 56.667 -38.5 92c0 24.667 6 47.167 18 67.5s28.333 36.166 49 47.499c-30.667 20.667 -80.334 31 -149.001 31c-136 0 -233 -52.667 -291 -158c-20 -35.333 -34.167 -79.833 -42.5 -133.5s-12.5 -129.167 -12.5 -226.5zM401.003 1053h472.998
c0 117.333 19.333 215 58 293c-29.333 41.333 -67.166 74.5 -113.499 99.5s-97.166 37.5 -152.499 37.5c-176.667 0 -265 -108.667 -265 -326v-104z" />
    <glyph glyph-name="f_f_k.liga" unicode="ffk" horiz-adv-x="2433" 
d="M1906 656l369.003 -506c25.333 -34.667 48.333 -60.167 69 -76.5s45.667 -26.5 75 -30.5v-43c-82.667 5.33301 -138 8 -166 8c-37.333 0 -113.333 -2.66699 -228 -8v43c20 0 35.667 3.5 47 10.5s17 16.5 17 28.5c0 9.33301 -4 19.666 -12 30.999l-236 344
c-24 34.667 -46.333 58 -67 70s-49.334 18.667 -86.001 20v-357c0 -56 10 -94.5 30 -115.5s55 -31.5 105 -31.5v-43c-114.667 5.33301 -191.334 8 -230.001 8c-38 0 -119.667 -2.66699 -245 -8v43c57.333 0 97.5 10.5 120.5 31.5s34.5 59.5 34.5 115.5v1141
c0 74.667 -18.333 131.334 -55 170.001c-22.667 23.333 -50.5 40.833 -83.5 52.5s-64.5 17.5 -94.5 17.5c-56 0 -103.333 -19.333 -142 -58c-20 -20 -35.5 -46.5 -46.5 -79.5s-17.5 -62.667 -19.5 -89s-3 -59.5 -3 -99.5v-192h260v-41h-260v-822
c0 -55.333 14.5 -93.666 43.5 -114.999s73.167 -32 132.5 -32v-43c-146.667 5.33301 -236 8 -268 8c-40 0 -122.667 -2.66699 -248 -8v43c57.333 0 97.5 10.5 120.5 31.5s34.5 59.5 34.5 115.5v822h-473v-822c0 -56 11.667 -94.5 35 -115.5s63.666 -31.5 120.999 -31.5v-43
c-125.333 5.33301 -207.333 8 -246 8s-122 -2.66699 -250 -8v43c57.333 0 97.666 10.5 120.999 31.5s35 59.5 35 115.5v822h-164v41h164c0 144.667 33.333 255.667 100 333c37.333 41.333 83.833 74 139.5 98s117.167 36 184.5 36c123.333 0 219.333 -37.333 288 -112
c19.333 38 45 71 77 99c70 63.333 156.667 95 260 95c24 0 62.333 -3.5 115 -10.5s98.334 -10.5 137.001 -10.5c70 0 126.667 7.66699 170 23v-1015c40 5.33301 73.333 14.666 100 27.999s52 32.333 76 57l151 157c43.333 45.333 65 83 65 113c0 46.667 -50.333 70 -151 70
v41c96 -5.33301 173.333 -8 232 -8c64 0 123.333 2.66699 178 8v-41c-66 -6 -127.667 -38 -185 -96zM401.003 1053h473c0 144 12.667 250 38 318c-29.333 34.667 -65.333 62 -108 82s-88.667 30 -138 30c-176.667 0 -265 -108.667 -265 -326v-104z" />
    <glyph glyph-name="f_f_l" unicode="ffl" horiz-adv-x="1929" 
d="M1729 1606l0.000976562 -1416c0 -56 11.5 -94.5 34.5 -115.5s63.167 -31.5 120.5 -31.5v-43c-125.333 5.33301 -208 8 -248 8c-39.333 0 -121.666 -2.66699 -246.999 -8v43c57.333 0 97.5 10.5 120.5 31.5s34.5 59.5 34.5 115.5v1141
c0 76.667 -18.333 133.334 -55 170.001c-24 24 -54.333 41.667 -91 53s-72 17 -106 17c-68 0 -122 -21.333 -162 -64c-28.667 -28.667 -47.667 -64.167 -57 -106.5s-14 -94.166 -14 -155.499v-192h260v-41h-260v-822c0 -55.333 14.5 -93.666 43.5 -114.999
s73.167 -32 132.5 -32v-43c-146.667 5.33301 -236 8 -268 8c-40 0 -122.667 -2.66699 -248 -8v43c57.333 0 97.5 10.5 120.5 31.5s34.5 59.5 34.5 115.5v822h-473v-822c0 -56 11.667 -94.5 35 -115.5s63.666 -31.5 120.999 -31.5v-43c-125.333 5.33301 -207.333 8 -246 8
s-122 -2.66699 -250 -8v43c57.333 0 97.666 10.5 120.999 31.5s35 59.5 35 115.5v822h-164v41h164c0 144.667 33.333 255.667 100 333c37.333 41.333 83.833 74 139.5 98s117.167 36 184.5 36c123.333 0 219.333 -37.333 288 -112c19.333 38 45 71 77 99
c72 63.333 164 95 276 95c27.333 0 69 -4.16699 125 -12.5s99.667 -12.5 131 -12.5c72 0 135.667 9.66699 191 29zM401.001 1053h473c0 143.333 12.667 249.333 38 318c-29.333 34.667 -65.333 62 -108 82s-88.667 30 -138 30c-176.667 0 -265 -108.667 -265 -326v-104z" />
    <glyph glyph-name="f_h.liga" unicode="fh" horiz-adv-x="1853" 
d="M1030 1604l0.00390625 -766.001c34 86.667 81.5 149.167 142.5 187.5s129.5 57.5 205.5 57.5c95.333 0 167.666 -25.667 216.999 -77c26 -28 44.5 -62.333 55.5 -103s16.5 -96 16.5 -166v-547c0 -56 11.667 -94.5 35 -115.5s63.666 -31.5 120.999 -31.5v-43
c-125.333 5.33301 -207.333 8 -246 8c-38 0 -114.333 -2.66699 -229 -8v43c50 0 85 10.5 105 31.5s30 59.5 30 115.5v592c0 36 -1.83301 66.5 -5.5 91.5s-11 49.333 -22 73s-28 41.5 -51 53.5s-52.167 18 -87.5 18c-84 0 -152.833 -34.667 -206.5 -104
s-80.5 -158.333 -80.5 -267v-457c0 -56 10 -94.5 30 -115.5s55 -31.5 105 -31.5v-43c-114.667 5.33301 -191 8 -229 8c-38.667 0 -120.667 -2.66699 -246 -8v43c57.333 0 97.666 10.5 120.999 31.5s35 59.5 35 115.5v1141c0 73.333 -18.333 130 -55 170
c-23.333 23.333 -51.333 40.833 -84 52.5s-64.334 17.5 -95.001 17.5c-55.333 0 -102.333 -19.333 -141 -58c-29.333 -29.333 -48.333 -66.166 -57 -110.499s-13 -96.833 -13 -157.5v-192h261v-41h-261v-822c0 -55.333 14.667 -93.666 44 -114.999s73.666 -32 132.999 -32
v-43c-149.333 5.33301 -239 8 -269 8c-37.333 0 -120 -2.66699 -248 -8v43c57.333 0 97.666 10.5 120.999 31.5s35 59.5 35 115.5v822h-164v41h164c0 116.667 8.33301 209.667 25 279s52 127.666 106 174.999c71.333 63.333 158 95 260 95c24 0 62.333 -3.5 115 -10.5
s98.334 -10.5 137.001 -10.5c70.667 0 127.334 7.66699 170.001 23z" />
    <glyph glyph-name="f_idieresis.liga" unicode="f&#xef;" horiz-adv-x="1268" 
d="M1071 1077l0.00390625 -887.002c0 -56 11.667 -94.5 35 -115.5s63.666 -31.5 120.999 -31.5v-43c-125.333 5.33301 -208 8 -248 8s-122.667 -2.66699 -248 -8v43c57.333 0 97.666 10.5 120.999 31.5s35 59.5 35 115.5v641c0 63.333 -11.5 109.333 -34.5 138
s-63.5 43 -121.5 43h-330v-822c0 -55.333 14.667 -93.666 44 -114.999s73.666 -32 132.999 -32v-43c-149.333 5.33301 -239 8 -269 8c-37.333 0 -120 -2.66699 -248 -8v43c57.333 0 97.666 10.5 120.999 31.5s35 59.5 35 115.5v822h-164v41h164
c0 121.333 7.83301 214.5 23.5 279.5s42.834 120.5 81.501 166.5c57.333 68.667 144.666 103 261.999 103c74.667 0 137 -17.333 187 -52s76.333 -82 79 -142v-5v-1v-1c-0.666992 -32 -12.667 -59.5 -36 -82.5s-51 -34.5 -83 -34.5c-32.667 0 -60.667 11.667 -84 35
s-35 51.333 -35 84c0 31.333 11.667 58.833 35 82.5s51 35.834 83 36.501c-34.667 30 -82.667 45 -144 45c-49.333 0 -89 -13.333 -119 -40s-48.333 -65.334 -55 -116.001c-7.33301 -45.333 -11 -164.666 -11 -357.999h330c154.667 0 268 8 340 24zM1165 1522
c32 0 59.833 -12 83.5 -36s35.5 -51.667 35.5 -83c0 -32.667 -11.833 -60.667 -35.5 -84s-51.5 -35 -83.5 -35c-32.667 0 -60.5 11.667 -83.5 35s-34.5 51.333 -34.5 84c0 32 11.667 59.833 35 83.5s51 35.5 83 35.5z" />
    <glyph glyph-name="f_igrave.liga" unicode="f&#xec;" horiz-adv-x="1268" 
d="M1071 1077l0.00683594 -887.002c0 -56 11.667 -94.5 35 -115.5s63.666 -31.5 120.999 -31.5v-43c-125.333 5.33301 -208 8 -248 8s-122.667 -2.66699 -248 -8v43c57.333 0 97.666 10.5 120.999 31.5s35 59.5 35 115.5v641c0 63.333 -11.5 109.333 -34.5 138
s-63.5 43 -121.5 43h-330v-822c0 -55.333 14.667 -93.666 44 -114.999s73.666 -32 132.999 -32v-43c-149.333 5.33301 -239 8 -269 8c-37.333 0 -120 -2.66699 -248 -8v43c57.333 0 97.666 10.5 120.999 31.5s35 59.5 35 115.5v822h-164v41h164
c0 116 7.16699 209.167 21.5 279.5s44.166 128.5 89.499 174.5c60.667 63.333 139.667 95 237 95c45.333 0 86.333 -9.33301 123 -28c-4.66699 11.333 -7 22.666 -7 33.999c0 22.667 9.33301 41.667 28 57c12.667 10 27.334 15 44.001 15
c29.333 0 55.666 -15.333 78.999 -46c19.333 -25.333 50.333 -79.166 93 -161.499s86 -158.166 130 -227.499l-23 -18c-35.333 37.333 -70 72 -104 104l-97.5 89c-31 27.333 -52.5 46.666 -64.5 57.999c-36.667 32.667 -70.334 56.334 -101.001 71.001
s-63.334 22 -98.001 22c-58.667 0 -103 -28.667 -133 -86c-22 -44.667 -33 -124.667 -33 -240v-192h330c154.667 0 268 8 340 24z" />
    <glyph glyph-name="f_j.liga" unicode="fj" horiz-adv-x="1227" 
d="M53 1053l164.001 0.000976562c0 184.667 49.333 323 148 415c92.667 89.333 220.334 134 383.001 134c116.667 0 208 -20.667 274 -62c46.667 -29.333 70 -67 70 -113c0 -36.667 -13 -68 -39 -94s-56.667 -39 -92 -39c-36 0 -67 13 -93 39s-39 56.667 -39 92
c0 24.667 6.16699 47.167 18.5 67.5s28.833 36.166 49.5 47.499c-31.333 20.667 -81 31 -149 31c-136 0 -233 -52.667 -291 -158c-20 -36 -34.333 -80.833 -43 -134.5s-13 -128.834 -13 -225.501h330c154.667 0 268 8 340 24v-841c0 -111.333 -7.5 -208.5 -22.5 -291.5
s-43.5 -151.167 -85.5 -204.5c-32 -40.667 -70.167 -71.667 -114.5 -93s-88.833 -32 -133.5 -32c-34 0 -63.333 6.66699 -88 20c-32.667 19.333 -49 49 -49 89c0 28 8.66699 51 26 69s40.666 27 69.999 27c27.333 0 49.5 -8.83301 66.5 -26.5s25.5 -39.5 25.5 -65.5
c0 -32 -11 -59.333 -33 -82c35.333 4 63.333 12.667 84 26c22.667 14.667 39.667 36 51 64c12.667 32 19 75.667 19 131v964c0 63.333 -11.5 109.333 -34.5 138s-63.5 43 -121.5 43h-330v-801c0 -63.333 18 -107.166 54 -131.499s90.333 -36.5 163 -36.5v-43
c-168 5.33301 -273 8 -315 8c-33.333 0 -114 -2.66699 -242 -8v43c57.333 0 97.666 10.5 120.999 31.5s35 59.5 35 115.5v822h-164v41z" />
    <glyph glyph-name="f_k.liga" unicode="fk" horiz-adv-x="1776" 
d="M1248 656l370.003 -505.998c25.333 -34.667 48.333 -60.167 69 -76.5s45.334 -26.5 74.001 -30.5v-43c-80 5.33301 -135.333 8 -166 8c-36.667 0 -112.334 -2.66699 -227.001 -8v43c19.333 0 34.666 3.66699 45.999 11s17 16.666 17 27.999
c0 9.33301 -4 19.666 -12 30.999l-235 344c-24 34.667 -46.5 58 -67.5 70s-49.833 18.667 -86.5 20v-357c0 -56 10 -94.5 30 -115.5s55 -31.5 105 -31.5v-43c-114.667 5.33301 -191 8 -229 8c-38.667 0 -120.667 -2.66699 -246 -8v43c57.333 0 97.666 10.5 120.999 31.5
s35 59.5 35 115.5v1141c0 73.333 -18.333 130 -55 170c-23.333 23.333 -51.333 40.833 -84 52.5s-64.334 17.5 -95.001 17.5c-55.333 0 -102.333 -19.333 -141 -58c-29.333 -29.333 -48.333 -66.166 -57 -110.499s-13 -96.833 -13 -157.5v-192h261v-41h-261v-822
c0 -55.333 14.667 -93.666 44 -114.999s73.666 -32 132.999 -32v-43c-149.333 5.33301 -239 8 -269 8c-37.333 0 -120 -2.66699 -248 -8v43c57.333 0 97.666 10.5 120.999 31.5s35 59.5 35 115.5v822h-164v41h164c0 116.667 8.33301 209.667 25 279s52 127.666 106 174.999
c71.333 63.333 158 95 260 95c24 0 62.333 -3.5 115 -10.5s98.334 -10.5 137.001 -10.5c70.667 0 127.334 7.66699 170.001 23v-1015c40 5.33301 73.333 14.666 100 27.999s52 32.333 76 57l152 157c43.333 45.333 65 83 65 113c0 46.667 -50.333 70 -151 70v41
c94.667 -5.33301 171.667 -8 231 -8c64 0 123.333 2.66699 178 8v-41c-66.667 -6 -128 -38 -184 -96z" />
    <glyph glyph-name=".notdef" horiz-adv-x="1151" 
d="M1028 0h-905v1581h905v-1581zM197 1520v-1459h757v1459h-757z" />
    <glyph glyph-name="CR" unicode="&#xd;" horiz-adv-x="0" 
 />
    <glyph glyph-name="space" unicode=" " horiz-adv-x="510" 
 />
    <glyph glyph-name="exclam" unicode="!" horiz-adv-x="537" 
d="M287 401h-37c0 162.667 -12.667 371 -38 625s-38 407.667 -38 461c0 39.333 8.66699 68.333 26 87s40 28 68 28c27.333 0 49.833 -9.5 67.5 -28.5s26.5 -47.833 26.5 -86.5c0 -53.333 -12.5 -207 -37.5 -461s-37.5 -462.333 -37.5 -625zM268 233
c36 0 66.833 -12.833 92.5 -38.5s38.5 -56.5 38.5 -92.5c0 -35.333 -12.833 -66 -38.5 -92s-56.5 -39 -92.5 -39s-66.833 13 -92.5 39s-38.5 56.667 -38.5 92c0 36 12.833 66.833 38.5 92.5s56.5 38.5 92.5 38.5z" />
    <glyph glyph-name="quotedbl" unicode="&#x22;" horiz-adv-x="610" 
d="M209 958h-29.001c-7.33301 50 -16.5 106.667 -27.5 170s-19 114.166 -24 152.499s-7.5 77.833 -7.5 118.5c0 28.667 7 51.5 21 68.5s31.667 26.167 53 27.5c21.333 0 38.833 -8.5 52.5 -25.5s20.5 -39.833 20.5 -68.5c0 -40 -2.33301 -78.667 -7 -116
s-12.667 -87.666 -24 -150.999s-20.666 -122 -27.999 -176zM431.999 958h-29.001c-7.33301 50 -16.5 106.667 -27.5 170s-19 114.166 -24 152.499s-7.5 77.833 -7.5 118.5c0 28.667 7 51.5 21 68.5s31.667 26.167 53 27.5c21.333 0 38.833 -8.5 52.5 -25.5
s20.5 -39.833 20.5 -68.5c0 -40 -2.33301 -78.667 -7 -116s-12.667 -87.666 -24 -150.999s-20.666 -122 -27.999 -176z" />
    <glyph glyph-name="numbersign" unicode="#" horiz-adv-x="1305" 
d="M898 889l-66 -342h301l-9 -41h-300l-58 -299h-41l58 299h-342l-58 -299h-41l58 299h-302l8 41h302l66 342h-300l6 41h302l59 303h41l-59 -303h342l59 303h41l-59 -303h300l-6 -41h-302zM857 889h-342l-66 -342h342z" />
    <glyph glyph-name="dollar" unicode="$" horiz-adv-x="1071" 
d="M647 1411l-0.000976562 -608.004c45.333 -28.667 82.833 -53.5 112.5 -74.5s60.334 -45.833 92.001 -74.5s56.334 -56.667 74.001 -84s32.334 -59 44.001 -95s17.5 -74.333 17.5 -115c0 -108 -31.333 -194.667 -94 -260s-144.667 -106 -246 -122v-248h-41v243
c-22.667 -1.33301 -40.334 -2 -53.001 -2c-20 0 -46 1.33301 -78 4v-245h-41v251c-54 11.333 -108 33.333 -162 66c-29.333 19.333 -52.333 29 -69 29c-12.667 0 -22.334 -7.16699 -29.001 -21.5s-12 -37.166 -16 -68.499h-47c5.33301 74.667 8 238.334 8 491.001h47
c8 -116.667 33.167 -215.167 75.5 -295.5s106.5 -132.5 192.5 -156.5v665c-49.333 30.667 -90.333 58.667 -123 84s-64.834 55.333 -96.501 90s-55.167 73 -70.5 115s-23 88.333 -23 139c0 101.333 29.167 181.833 87.5 241.5s133.5 95.834 225.5 108.501v252h41v-248l31 1
c38.667 0 72 -3 100 -9v256h41v-266c32 -10.667 68.333 -29.667 109 -57c29.333 -19.333 52.333 -29 69 -29c12.667 0 22.334 7.16699 29.001 21.5s12 37.166 16 68.499h48c-7.33301 -75.333 -11 -214.666 -11 -417.999h-47c-6 84.667 -26.5 160.834 -61.5 228.501
s-85.5 115.167 -151.5 142.5zM605.999 827.996v596c-24 6.66699 -51.333 10 -82 10c-18.667 0 -35 -1.33301 -49 -4v-521l64.5 -40zM433.999 936.996v483c-48.667 -16 -87.5 -43.833 -116.5 -83.5s-43.5 -86.5 -43.5 -140.5c0 -56 13.5 -104 40.5 -144
s66.833 -78.333 119.5 -115zM474.999 664.996v-648c22 -3.33301 43.333 -5 64 -5c24 0 46.333 2.33301 67 7v563c-32.667 23.333 -73 49 -121 77zM646.999 552.996v-522c48 18 86.333 48.333 115 91s43 97 43 163c0 54 -13.333 102.167 -40 144.5s-66 83.5 -118 123.5z" />
    <glyph glyph-name="percent" unicode="%" horiz-adv-x="1520" 
d="M1390 1661l-1198 -1774l-39 27l1198 1774zM377 1559c92 0 165.833 -29.666 221.5 -88.999s83.5 -141 83.5 -245c0 -102.667 -28.667 -185.667 -86 -249s-130.333 -95 -219 -95c-92 0 -165.833 29.667 -221.5 89s-83.5 140.666 -83.5 243.999c0 102 28.667 185 86 249
s130.333 96 219 96zM373 1522c-105.333 0 -158 -101.667 -158 -305c0 -97.333 14.667 -171.5 44 -222.5s70 -76.5 122 -76.5c104 0 156 101 156 303c0 98.667 -14.333 173.5 -43 224.5s-69 76.5 -121 76.5zM1139 649.001c92 0 165.833 -29.667 221.5 -89
s83.5 -141 83.5 -245c0 -102 -28.667 -184.833 -86 -248.5s-130.333 -95.5 -219 -95.5c-92.667 0 -166.667 29.667 -222 89s-83 141 -83 245c0 102 28.667 184.833 86 248.5s130.333 95.5 219 95.5zM1135 612.001c-105.333 0 -158 -101.667 -158 -305
c0 -97.333 14.5 -171.5 43.5 -222.5s69.833 -76.5 122.5 -76.5c103.333 0 155 101 155 303c0 98.667 -14.167 173.5 -42.5 224.5s-68.5 76.5 -120.5 76.5z" />
    <glyph glyph-name="ampersand" unicode="&#x26;" horiz-adv-x="1714" 
d="M1374 1479c86.667 0 158.163 -24.999 214.496 -74.999s84.5 -117.333 84.5 -202c0 -65.333 -17.667 -122.166 -53 -170.499s-82.333 -87.166 -141 -116.499c-50 -24 -151.333 -59.667 -304 -107c76.667 -32 133.167 -78.333 169.5 -139s54.5 -130 54.5 -208
c0 -62.667 -14.333 -123.167 -43 -181.5s-68.834 -110.5 -120.501 -156.5s-117.667 -82.833 -198 -110.5s-168.166 -41.5 -263.499 -41.5c-88.667 0 -173 12 -253 36s-150.333 57.5 -211 100.5s-109 96.833 -145 161.5s-54 135.334 -54 212.001c0 56 10 108.167 30 156.5
s44.167 87.666 72.5 117.999s61 57.666 98 81.999s69.5 42.166 97.5 53.499s54.667 20.333 80 27c-66.667 28.667 -117.667 66.667 -153 114s-53 97.333 -53 150c0 70.667 30.5 131 91.5 181s145.833 75 254.5 75c91.333 0 162.333 -20.667 213 -62s76 -88.333 76 -141
c0 -32.667 -11.667 -59 -35 -79s-50 -30 -80 -30c-29.333 0 -54.5 9.33301 -75.5 28s-31.5 43.667 -31.5 75c0 29.333 10.167 54.666 30.5 75.999s46.5 33.333 78.5 36c-6 18 -23.333 33.5 -52 46.5s-63.334 19.5 -104.001 19.5c-71.333 0 -128.666 -21.333 -171.999 -64
s-65 -102.667 -65 -180c0 -91.333 34.667 -169 104 -233c46.667 8 89 12 127 12c25.333 0 45.333 -4 60 -12s22 -19.667 22 -35c0 -12 -5.16699 -21.5 -15.5 -28.5s-24.166 -10.5 -41.499 -10.5c-29.333 0 -79.333 15 -150 45c-177.333 -52.667 -266 -164.667 -266 -336
c0 -91.333 24.5 -170.833 73.5 -238.5s114.667 -118.5 197 -152.5s175.166 -51 278.499 -51c97.333 0 186.5 14.667 267.5 44s146.333 73 196 131s74.5 124.667 74.5 200c0 22.667 -2.5 45.5 -7.5 68.5s-14 49.167 -27 78.5s-34.167 57.333 -63.5 84s-65.333 48.667 -108 66
c-115.333 -36 -194 -62 -236 -78c-57.333 -22 -101.666 -47 -132.999 -75s-47 -62.333 -47 -103c0 -49.333 20.167 -89 60.5 -119s82.833 -45 127.5 -45c23.333 0 48.833 4 76.5 12s43.167 19 46.5 33c-26 4.66699 -48.5 15.334 -67.5 32.001s-28.5 40.667 -28.5 72
c0 32 10.667 57.833 32 77.5s48 29.5 80 29.5c32.667 0 59 -10.167 79 -30.5s30 -47.166 30 -80.499c0 -36.667 -13 -68.834 -39 -96.501s-57.167 -47.834 -93.5 -60.501s-73.5 -19 -111.5 -19c-30 0 -59.5 4.66699 -88.5 14s-56.167 23.166 -81.5 41.499
s-45.666 43.5 -60.999 75.5s-23 68.333 -23 109c0 69.333 23.5 128.333 70.5 177s117.833 89.334 212.5 122.001c1.33301 0.666992 69.833 20.834 205.5 60.501s233.834 73.167 294.501 100.5c64.667 30.667 110.167 61.834 136.5 93.501s39.5 66.167 39.5 103.5
c0 58 -23.5 107 -70.5 147s-102.833 60 -167.5 60c-34.667 0 -55 -6 -61 -18c18 -9.33301 32 -22.833 42 -40.5s15 -35.834 15 -54.501c0 -28 -11.333 -51.667 -34 -71s-49.667 -29 -81 -29c-29.333 0 -54.666 8.83301 -75.999 26.5s-32 42.834 -32 75.501
c0 33.333 12.333 61.166 37 83.499s53.167 37.666 85.5 45.999s66.5 12.5 102.5 12.5z" />
    <glyph glyph-name="quotesingle" unicode="'" horiz-adv-x="387" 
d="M209 958h-29.001c-7.33301 50 -16.5 106.667 -27.5 170s-19 114.166 -24 152.499s-7.5 77.833 -7.5 118.5c0 28.667 7 51.5 21 68.5s31.667 26.167 53 27.5c21.333 0 38.833 -8.5 52.5 -25.5s20.5 -39.833 20.5 -68.5c0 -40 -2.33301 -78.667 -7 -116
s-12.667 -87.666 -24 -150.999s-20.666 -122 -27.999 -176z" />
    <glyph glyph-name="parenleft" unicode="(" horiz-adv-x="602" 
d="M541 1651l28 -26.998c-111.333 -130 -190.333 -273.5 -237 -430.5s-70 -341.833 -70 -554.5s23.333 -397.5 70 -554.5s125.667 -300.5 237 -430.5l-28 -27c-300.667 273.333 -451 610.666 -451 1012s150.333 738.666 451 1012z" />
    <glyph glyph-name="parenright" unicode=")" horiz-adv-x="602" 
d="M33 1624l28 26.998c300.667 -273.333 451 -610.666 451 -1012s-150.333 -738.666 -451 -1012l-28 27c111.333 130 190.333 273.5 237 430.5s70 341.833 70 554.5s-23.333 397.5 -70 554.5s-125.667 300.5 -237 430.5z" />
    <glyph glyph-name="asterisk" unicode="*" horiz-adv-x="1008" 
d="M821 967c44 -26 65.999 -55.332 65.999 -87.999c0 -12 -3.33301 -23.667 -10 -35c-12 -21.333 -31 -32 -57 -32c-22 0 -47 8 -75 24c-15.333 8.66699 -32.166 20.667 -50.499 36s-34.666 30.166 -48.999 44.499l-63.5 63.5l-72 71c7.33301 -29.333 18 -69.333 32 -120
s24 -89.834 30 -117.501s9.33301 -52.5 10 -74.5c-0.666992 -38 -8.66699 -65.833 -24 -83.5s-34 -26.5 -56 -26.5c-20 0 -37 8.66699 -51 26s-21 45.333 -21 84c0 23.333 2.66699 47.833 8 73.5s15.166 64.834 29.499 117.501l32.5 121l-88.5 -87.5
c-35.667 -36.333 -64.334 -64.166 -86.001 -83.499s-42.167 -34.666 -61.5 -45.999c-26.667 -15.333 -51 -23 -73 -23c-28.667 0 -49.334 11.667 -62.001 35c-6 10.667 -9 21 -9 31c0 31.333 22.667 60.666 68 87.999c20 11.333 43.167 21.333 69.5 30
s63.833 19.334 112.5 32.001s89.334 23.667 122.001 33c-30 8.66699 -69.833 19.5 -119.5 32.5s-88.167 24 -115.5 33s-51 18.833 -71 29.5c-43.333 26 -65 55.333 -65 88c0 12 3.33301 23.667 10 35c10.667 21.333 29.334 32 56.001 32c22 0 47 -8 75 -24
c20 -11.333 40.167 -26 60.5 -44s49.333 -46.167 87 -84.5l88.5 -88.5l-31.5 119c-13.667 50.667 -23.5 90 -29.5 118s-9 53.333 -9 76c0 38 7.33301 66 22 84s32.667 27 54 27c20.667 0 38.167 -9 52.5 -27s21.5 -46 21.5 -84c0 -17.333 -2.16699 -37.833 -6.5 -61.5
s-9 -45.334 -14 -65.001s-12.833 -48.5 -23.5 -86.5s-19.334 -70.667 -26.001 -98l88.5 87c35.667 36 64.167 63.833 85.5 83.5s41.666 35.167 60.999 46.5c28 15.333 52.333 23 73 23c29.333 0 50.333 -11.667 63 -35c6 -10.667 9 -21 9 -31c0 -32.667 -23 -62 -69 -88
c-19.333 -11.333 -42.166 -21.333 -68.499 -30s-64.166 -19.334 -113.499 -32.001s-90 -23.667 -122 -33c30 -8.66699 69.667 -19.5 119 -32.5s87.833 -24 115.5 -33s51.5 -18.833 71.5 -29.5z" />
    <glyph glyph-name="plus" unicode="+" horiz-adv-x="1202" 
d="M639 758h475v-62h-475v-481h-74v481h-477v62h477v483h74v-483z" />
    <glyph glyph-name="comma" unicode="," horiz-adv-x="535" 
d="M203 -283l-19.002 37c42.667 18 79.334 46.167 110.001 84.5s46 77.166 46 116.499c0 16.667 -2 31 -6 43c-23.333 -18 -48.666 -27 -75.999 -27c-37.333 0 -68.5 11.833 -93.5 35.5s-37.5 55.5 -37.5 95.5c0 37.333 12.667 68.5 38 93.5s56.333 37.5 93 37.5
c52.667 0 93 -21.667 121 -65c23.333 -36 35 -81 35 -135c0 -68.667 -17.5 -130.167 -52.5 -184.5s-87.833 -98.166 -158.5 -131.499z" />
    <glyph glyph-name="hyphen" unicode="-" horiz-adv-x="1022" 
d="M881 492h-740v118h740v-118z" />
    <glyph glyph-name="period" unicode="." horiz-adv-x="516" 
d="M258 233c36 0 66.833 -12.833 92.5 -38.5s38.5 -56.5 38.5 -92.5c0 -35.333 -12.833 -66 -38.5 -92s-56.5 -39 -92.5 -39s-66.833 13 -92.5 39s-38.5 56.667 -38.5 92c0 36 12.833 66.833 38.5 92.5s56.5 38.5 92.5 38.5z" />
    <glyph glyph-name="slash" unicode="/" horiz-adv-x="762" 
d="M137 -29h-67l557 1508h67z" />
    <glyph glyph-name="zero" unicode="0" horiz-adv-x="1229" 
d="M625 1083c145.333 0 264.168 -49.333 356.501 -148s138.5 -228.667 138.5 -390c0 -166 -48.167 -303.167 -144.5 -411.5s-220.833 -162.5 -373.5 -162.5c-144.667 0 -263.5 49.5 -356.5 148.5s-139.5 229.833 -139.5 392.5c0 108 21.167 205.167 63.5 291.5
s103.166 154.5 182.499 204.5s170.333 75 273 75zM606.002 1047c-90 0 -162.667 -47.168 -218 -141.501s-83 -223.5 -83 -387.5c0 -89.333 8.33301 -167.5 25 -234.5s39.834 -120.167 69.501 -159.5s63 -68.5 100 -87.5s77.5 -28.5 121.5 -28.5
c89.333 0 161.833 47.5 217.5 142.5s83.5 224.5 83.5 388.5c0 88.667 -8.33301 166.334 -25 233.001s-39.834 119.667 -69.501 159s-63 68.5 -100 87.5s-77.5 28.5 -121.5 28.5z" />
    <glyph glyph-name="one" unicode="1" horiz-adv-x="758" 
d="M518 1077l-0.00195312 -866c0 -64 14.667 -108 44 -132s80.333 -36 153 -36v-43c-149.333 5.33301 -243.666 8 -282.999 8c-42 0 -147 -2.66699 -315 -8v43c72.667 0 127 12.167 163 36.5s54 68.166 54 131.499v496c0 50 -3.33301 89.167 -10 117.5
s-20.167 50.333 -40.5 66s-44.166 25.834 -71.499 30.501s-66 7 -116 7v45c100 2 182.5 10.833 247.5 26.5s123.167 41.5 174.5 77.5z" />
    <glyph glyph-name="two" unicode="2" horiz-adv-x="981" 
d="M129 809l-32.9971 18.002c36 74.667 87 136 153 184s149.667 72 251 72c95.333 0 170.333 -22.5 225 -67.5s82 -108.5 82 -190.5c0 -51.333 -12.667 -102.333 -38 -153s-59 -98.334 -101 -143.001s-84.833 -86.667 -128.5 -126l-137 -126
c-47.667 -44.667 -84.167 -84.334 -109.5 -119.001h416c53.333 0 88.166 7 104.499 21s27.166 41.667 32.499 83h35c0 -125.333 2.66699 -216 8 -272c-30.667 6.66699 -132.334 10 -305.001 10h-480v35c22.667 24.667 60.667 61.667 114 111s99.166 93.833 137.499 133.5
s78.5 86.5 120.5 140.5s74.5 111.5 97.5 172.5s34.5 123.5 34.5 187.5c0 147.333 -68.333 221 -205 221c-111.333 0 -202.666 -64 -273.999 -192z" />
    <glyph glyph-name="three" unicode="3" horiz-adv-x="924" 
d="M125 811l-34.9961 16c78.667 170.667 203.667 256 375 256c86.667 0 157.5 -21 212.5 -63s82.5 -98.667 82.5 -170c0 -75.333 -29.667 -143 -89 -203s-131.333 -105 -216 -135c49.333 -1.33301 96 -8.5 140 -21.5s84.167 -31.667 120.5 -56
s65.166 -56.666 86.499 -96.999s32 -85.833 32 -136.5c0 -60.667 -15 -118.167 -45 -172.5s-70.333 -101.666 -121 -141.999s-108.5 -75.5 -173.5 -105.5s-133.5 -52.5 -205.5 -67.5s-143 -22.5 -213 -22.5v37c71.333 1.33301 140.166 12.833 206.499 34.5
s126.166 51.667 179.499 90s96.166 87.666 128.499 147.999s48.5 127.166 48.5 200.499c0 80 -19.667 146.5 -59 199.5s-92 81.833 -158 86.5c-51.333 -20 -83.333 -30 -96 -30c-22 0 -33 8.66699 -33 26c0 12 5 21.5 15 28.5s22.667 10.5 38 10.5
c8.66699 0 21 -1.16699 37 -3.5s27.667 -3.83301 35 -4.5c104.667 80 157 178.333 157 295c0 62.667 -15.5 109 -46.5 139s-74.833 45 -131.5 45c-119.333 0 -210 -60.667 -272 -182z" />
    <glyph glyph-name="four" unicode="4" horiz-adv-x="1012" 
d="M895 352l35.002 0.000976562c0 -114.667 2.66699 -198.667 8 -252c-20.667 5.33301 -89 8.66602 -205 9.99902v-399h-164v400h-534v43l665 929h33v-835h25c53.333 0 88.166 7 104.499 21s27.166 41.667 32.499 83zM569.002 248.001v584l-413 -584h413z" />
    <glyph glyph-name="five" unicode="5" horiz-adv-x="850" 
d="M645 1157l39.0039 0.00195312c0 -138.667 2.66699 -238.334 8 -299.001c-29.333 6.66699 -124 10 -284 10h-218l-24 -395c37.333 19.333 74 34.5 110 45.5s79.333 16.5 130 16.5c118.667 0 208.667 -29 270 -87s92 -134.333 92 -229
c0 -61.333 -13.167 -119.833 -39.5 -175.5s-61.833 -104.167 -106.5 -145.5s-95.834 -77.333 -153.501 -108s-118.834 -53.834 -183.501 -69.501s-129 -23.5 -193 -23.5v37c61.333 0.666992 120.166 10.834 176.499 30.501s107.5 48.167 153.5 85.5
s82.667 86.166 110 146.499s41 127.833 41 202.5c0 86.667 -22.333 154 -67 202s-108.334 72 -191.001 72c-53.333 0 -109.333 -11.667 -168 -35l-20 13l39 610c27.333 -5.33301 64 -8 110 -8h232c54 0 89 7 105 21s26.667 41.667 32 83z" />
    <glyph glyph-name="six" unicode="6" horiz-adv-x="1059" 
d="M807 1481l8.00391 -41c-47.333 -15.333 -89.666 -32 -126.999 -50s-78.166 -45.333 -122.499 -82s-82 -79 -113 -127s-59 -110.833 -84 -188.5s-41.833 -165.5 -50.5 -263.5c31.333 58 74.5 100.5 129.5 127.5s109.833 40.5 164.5 40.5c48 0 94 -10 138 -30
s83.333 -48.333 118 -85s62.167 -83.667 82.5 -141s30.5 -120.666 30.5 -189.999c0 -148.667 -43.167 -265.834 -129.5 -351.501s-193.5 -128.5 -321.5 -128.5c-130.667 0 -232.834 51 -306.501 153s-110.5 245 -110.5 429c0 85.333 8 166.166 24 242.499
s37.667 143.833 65 202.5s59.666 112.834 96.999 162.501s76.666 92.167 117.999 127.5s85.166 66.5 131.499 93.5s90.666 48.333 132.999 64s84.166 27.5 125.499 35.5zM551.004 12c66.667 0 121.832 34.8311 165.499 104.498s65.5 176.167 65.5 319.5
c0 138.667 -20.333 240.334 -61 305.001s-94 97 -160 97c-48 0 -95.5 -14.167 -142.5 -42.5s-81.833 -73.166 -104.5 -134.499c-2 -32.667 -3 -67.334 -3 -104.001c0 -103.333 7 -192.166 21 -266.499s33 -130.833 57 -169.5s49.333 -66.5 76 -83.5
s55.334 -25.5 86.001 -25.5z" />
    <glyph glyph-name="seven" unicode="7" horiz-adv-x="831" 
d="M815 1053v-42.999c-18.667 -44 -45.667 -100 -81 -168l-96 -189c-28.667 -58 -57.5 -123.333 -86.5 -196s-51.5 -151 -67.5 -235s-23.667 -170.333 -23 -259c0 -23.333 1.33301 -53 4 -89s4 -60.333 4 -73c0 -30.667 -8.83301 -55.667 -26.5 -75s-40.834 -29 -69.501 -29
c-30 0 -52.833 11 -68.5 33s-23.5 49.333 -23.5 82c0 65.333 7.16699 132.166 21.5 200.499s31.333 129.833 51 184.5s46.667 116.167 81 184.5s64.333 124.666 90 168.999l102 171c42.333 69.667 73.833 122.834 94.5 159.501h-485c-54 0 -89 -6.83301 -105 -20.5
s-27 -41.834 -33 -84.501h-35c0 134.667 -2.66699 230.334 -8 287.001c30.667 -6.66699 132.334 -10 305.001 -10h455z" />
    <glyph glyph-name="eight" unicode="8" horiz-adv-x="1065" 
d="M627 820c94 -68.667 159.002 -121.003 195.002 -157.003c92.667 -92 139 -192.333 139 -301c0 -116 -41.667 -210.167 -125 -282.5s-189.333 -108.5 -318 -108.5c-55.333 0 -107.333 7.16699 -156 21.5s-92.334 35.333 -131.001 63s-69.167 63.834 -91.5 108.501
s-33.5 95 -33.5 151c0 94.667 30 178.834 90 252.501s139.667 135.167 239 184.5c-40 32.667 -73.333 61.5 -100 86.5s-53.5 54.5 -80.5 88.5s-47.167 70.333 -60.5 109s-20 79.667 -20 123c0 94 35.667 170.833 107 230.5s160.666 89.5 267.999 89.5
c96.667 0 177.167 -24.667 241.5 -74s96.5 -118.333 96.5 -207c0 -73.333 -22.5 -140.666 -67.5 -201.999s-109.167 -120 -192.5 -176zM526.002 1442c-55.333 0 -101.165 -20 -137.498 -60s-54.5 -93 -54.5 -159c0 -40.667 6.66699 -79.167 20 -115.5
s33.666 -70.333 60.999 -102s54.166 -59.167 80.499 -82.5s59.833 -50 100.5 -80c84.667 80.667 127 190 127 328c0 82.667 -17.167 148.5 -51.5 197.5s-82.833 73.5 -145.5 73.5zM530.003 7.99707c72.667 0 133.499 23.833 182.499 71.5s73.5 113.167 73.5 196.5
c0 47.333 -8 91.666 -24 132.999s-40.333 80.5 -73 117.5s-63.5 68.5 -92.5 94.5s-66.833 57.333 -113.5 94l-6 4.5c-1.33301 1 -3 2.33301 -5 4s-4 3.16699 -6 4.5c-119.333 -87.333 -179 -214.666 -179 -381.999c0 -62 7.5 -117.333 22.5 -166s41.333 -89.5 79 -122.5
s84.834 -49.5 141.501 -49.5z" />
    <glyph glyph-name="nine" unicode="9" horiz-adv-x="1042" 
d="M250 -303l-8 40.9961c44 12.667 83.667 26.334 119 41.001s74 36.834 116 66.501s78.5 63.834 109.5 102.501s59.5 88.834 85.5 150.501s45 131.167 57 208.5c-32.667 -51.333 -75.334 -89 -128.001 -113s-105 -36 -157 -36c-48 0 -94 10 -138 30
s-83.167 48.333 -117.5 85s-61.666 83.667 -81.999 141s-30.5 120.666 -30.5 189.999c0 74.667 12 142.667 36 204s56.5 111.833 97.5 151.5s88.667 70.167 143 91.5s112.166 32 173.499 32c130.667 0 233 -47.167 307 -141.5s111 -227.166 111 -398.499
c0 -77.333 -8 -150.833 -24 -220.5s-37.667 -131.334 -65 -185.001s-59.833 -103.334 -97.5 -149.001s-77.167 -84.667 -118.5 -117s-85 -60.666 -131 -84.999s-90.167 -43.666 -132.5 -57.999s-84.166 -24.833 -125.499 -31.5zM496 216.996c46 0 91.667 12.8311 137 38.498
s80 66.5 104 122.5c5.33301 53.333 8 107 8 161c0 95.333 -7 177.333 -21 246s-33 120.834 -57 156.501s-49.167 61.334 -75.5 77.001s-54.833 23.5 -85.5 23.5c-66.667 0 -122 -34.833 -166 -104.5s-66 -176.167 -66 -319.5c0 -138.667 20.5 -240.167 61.5 -304.5
s94.5 -96.5 160.5 -96.5z" />
    <glyph glyph-name="colon" unicode=":" horiz-adv-x="545" 
d="M272 1081c36 0 66.833 -12.833 92.5 -38.5s38.5 -56.5 38.5 -92.5c0 -35.333 -12.833 -66 -38.5 -92s-56.5 -39 -92.5 -39s-66.833 13 -92.5 39s-38.5 56.667 -38.5 92c0 36 12.833 66.833 38.5 92.5s56.5 38.5 92.5 38.5zM272 233c36 0 66.833 -12.833 92.5 -38.5
s38.5 -56.5 38.5 -92.5c0 -35.333 -12.833 -66 -38.5 -92s-56.5 -39 -92.5 -39s-66.833 13 -92.5 39s-38.5 56.667 -38.5 92c0 36 12.833 66.833 38.5 92.5s56.5 38.5 92.5 38.5z" />
    <glyph glyph-name="semicolon" unicode=";" horiz-adv-x="584" 
d="M295 1081c36 0 66.833 -12.833 92.5 -38.5s38.5 -56.5 38.5 -92.5c0 -35.333 -12.833 -66 -38.5 -92s-56.5 -39 -92.5 -39s-66.833 13 -92.5 39s-38.5 56.667 -38.5 92c0 36 12.833 66.833 38.5 92.5s56.5 38.5 92.5 38.5zM226 -283l-19.002 37
c42.667 18 79.334 46.167 110.001 84.5s46 77.166 46 116.499c0 16.667 -2 31 -6 43c-23.333 -18 -48.666 -27 -75.999 -27c-37.333 0 -68.5 11.833 -93.5 35.5s-37.5 55.5 -37.5 95.5c0 37.333 12.667 68.5 38 93.5s56.333 37.5 93 37.5c52.667 0 93 -21.667 121 -65
c23.333 -36 35 -81 35 -135c0 -68.667 -17.5 -130.167 -52.5 -184.5s-87.833 -98.166 -158.5 -131.499z" />
    <glyph glyph-name="less" unicode="&#x3c;" horiz-adv-x="1245" 
d="M1094 1118l-838 -391l838 -391l-35 -74l-998 465l998 465z" />
    <glyph glyph-name="equal" unicode="=" horiz-adv-x="1325" 
d="M1176 840h-1026v61h1026v-61zM1176 553h-1026v61h1026v-61z" />
    <glyph glyph-name="greater" unicode="&#x3e;" horiz-adv-x="1245" 
d="M1184 727l-998 -465l-35 74l838 391l-838 391l35 74z" />
    <glyph glyph-name="question" unicode="?" horiz-adv-x="940" 
d="M369 479l-0.000976562 318c66 24 120.667 50.833 164 80.5s76 62 98 97s37 69.333 45 103s12 72.5 12 116.5c0 124 -25.5 216.167 -76.5 276.5s-121.167 90.5 -210.5 90.5c-94 0 -160.667 -24.667 -200 -74c26 -5.33301 46.833 -17.166 62.5 -35.499
s23.5 -41.5 23.5 -69.5c0 -33.333 -10.833 -60 -32.5 -80s-48.5 -30 -80.5 -30c-31.333 0 -57.166 10.167 -77.499 30.5s-30.5 46.166 -30.5 77.499c0 55.333 32 104.666 96 147.999c72 49.333 164.667 74 278 74c129.333 0 233.333 -33.167 312 -99.5
s118 -156.166 118 -269.499c0 -112 -41 -206.667 -123 -284s-194.333 -134.333 -337 -171v-299h-41zM390.999 233c36 0 66.833 -12.833 92.5 -38.5s38.5 -56.5 38.5 -92.5c0 -35.333 -12.833 -66 -38.5 -92s-56.5 -39 -92.5 -39s-66.833 13 -92.5 39s-38.5 56.667 -38.5 92
c0 36 12.833 66.833 38.5 92.5s56.5 38.5 92.5 38.5z" />
    <glyph glyph-name="at" unicode="@" horiz-adv-x="1798" 
d="M1178 -182l14.0039 -26.999c-52.667 -37.333 -116.834 -66.833 -192.501 -88.5s-157.5 -32.5 -245.5 -32.5c-77.333 0 -148.833 7.66699 -214.5 23s-125.667 39.166 -180 71.499s-100.666 72.666 -138.999 120.999s-68 107 -89 176s-31.5 146.167 -31.5 231.5
c0 136 26 269.333 78 400s121.833 245.5 209.5 344.5s193.167 178.833 316.5 239.5s252 91 386 91c72.667 0 140.5 -6.66699 203.5 -20s121.333 -34.5 175 -63.5s99.667 -65.167 138 -108.5s68.333 -96.5 90 -159.5s32.5 -133.5 32.5 -211.5
c0 -88.667 -12.167 -173.5 -36.5 -254.5s-56.833 -151 -97.5 -210s-86.834 -110.5 -138.501 -154.5s-105.167 -77.167 -160.5 -99.5s-109 -33.5 -161 -33.5c-98.667 0 -148 44.333 -148 133c0 14 1.33301 29.667 4 47s5.33398 30.833 8.00098 40.5l11.5 40
c5 17 7.5 25.833 7.5 26.5v2c-38.667 -99.333 -83.334 -172.333 -134.001 -219s-111.334 -70 -182.001 -70c-73.333 0 -126.666 22.5 -159.999 67.5s-50 105.167 -50 180.5c0 101.333 24 205 72 311s110.333 193.667 187 263s152.667 104 228 104
c83.333 0 132.666 -36.333 147.999 -109l16 80c78 0 139.333 9.66699 184 29l-172 -752c-8.66699 -28 -13 -51.333 -13 -70c0 -19.333 4.83301 -33 14.5 -41s24.834 -12 45.501 -12c26.667 0 57 7 91 21s69.167 34 105.5 60s71.666 59.667 105.999 101s65.166 87 92.499 137
s49.333 108.333 66 175s25 136.334 25 209.001c0 92 -15.833 172.333 -47.5 241s-75.334 123.167 -131.001 163.5s-118.334 70.333 -188.001 90s-146.167 29.5 -229.5 29.5c-123.333 0 -243.333 -28.167 -360 -84.5s-218.167 -131 -304.5 -224
s-155.666 -203.167 -207.999 -330.5s-78.5 -259 -78.5 -395c0 -102.667 15.333 -192.5 46 -269.5s74 -138.5 130 -184.5s120.5 -80.167 193.5 -102.5s154.833 -33.5 245.5 -33.5c157.333 0 298 37 422 111zM1062 556.001l50.999 249.001
c-4.66699 84.667 -46.667 127 -126 127c-56.667 0 -110.167 -31.667 -160.5 -95s-89.666 -142.5 -117.999 -237.5s-42.5 -190.5 -42.5 -286.5c0 -132 35.333 -198 106 -198c53.333 0 106.5 39.667 159.5 119s96.5 186.666 130.5 321.999z" />
    <glyph glyph-name="A" unicode="A" horiz-adv-x="1290" 
d="M662 1460l499.001 -1288c33.333 -84.667 80.666 -128.334 141.999 -131.001v-41c-56 4 -129.333 6 -220 6c-116.667 0 -204 -2 -262 -6v41c52 2 89.167 8.33301 111.5 19s33.5 29.667 33.5 57c0 23.333 -8 55.333 -24 96l-126 336h-494l-84 -217
c-27.333 -69.333 -41 -125.333 -41 -168c0 -43.333 14.5 -74.333 43.5 -93s73.833 -28.667 134.5 -30v-41c-78 4 -156.667 6 -236 6c-61.333 0 -112.333 -2 -153 -6v41c68 15.333 121.667 74.666 161 177.999l482 1241h33zM801.001 590.002l-229 611l-235 -611h464z" />
    <glyph glyph-name="B" unicode="B" horiz-adv-x="1276" 
d="M766 770l-0.000976562 -3.99707c78 -10.667 145 -28 201 -52s99.333 -53 130 -87s52.834 -69.833 66.501 -107.5s20.5 -78.5 20.5 -122.5c0 -118 -44.167 -213.667 -132.5 -287s-208.166 -110 -359.499 -110c-11.333 0 -56.666 1 -135.999 3s-151.333 3 -216 3
c-112 0 -196.667 -2 -254 -6v41c49.333 2 84.833 7.33301 106.5 16s37 24.667 46 48s13.5 60.666 13.5 111.999v1016c0 51.333 -4.5 88.666 -13.5 111.999s-24.333 39.333 -46 48s-57.167 14 -106.5 16v41c56.667 -4 140 -6 250 -6c49.333 0 110.666 0.666992 183.999 2
s115 2 125 2c139.333 0 246.166 -29.333 320.499 -88s111.5 -136.667 111.5 -234c0 -78.667 -24.833 -149.334 -74.5 -212.001s-128.5 -110.667 -236.5 -144zM441.999 770.003l137.999 0.000976562c58 0 107.333 8.83301 148 26.5s71.834 42.667 93.501 75
s37 67.166 46 104.499s13.5 80 13.5 128c0 102.667 -22.667 179.167 -68 229.5s-118.333 75.5 -219 75.5c-62 0 -102.833 -11.5 -122.5 -34.5s-29.5 -70.167 -29.5 -141.5v-463zM441.998 735.004v-518c0 -71.333 9.66699 -117.5 29 -138.5s61 -31.5 125 -31.5
c255.333 0 383 119.667 383 359c0 107.333 -29.167 189 -87.5 245s-150.833 84 -277.5 84h-172z" />
    <glyph glyph-name="C" unicode="C" horiz-adv-x="1409" 
d="M1276 0l-47 0.000976562c-3.33301 42.667 -8.83301 73.5 -16.5 92.5s-18.834 28.5 -33.501 28.5c-10.667 0 -24.667 -5.66699 -42 -17c-62 -43.333 -120.833 -76.333 -176.5 -99s-123.167 -34 -202.5 -34c-197.333 0 -354.833 65.833 -472.5 197.5
s-176.5 313.167 -176.5 544.5c0 150.667 27.667 284.167 83 400.5s132.333 206.333 231 270s211 95.5 337 95.5c81.333 0 150.833 -11.667 208.5 -35s113.834 -56 168.501 -98c14.667 -12 28 -18 40 -18c28 0 45.333 40.667 52 122h47c-5.33301 -88.667 -8 -245.667 -8 -471
h-47c-14.667 89.333 -28.334 153.166 -41.001 191.499s-33.334 75.5 -62.001 111.5c-41.333 53.333 -93.666 93.333 -156.999 120s-131.666 40 -204.999 40c-134 0 -241.333 -65 -322 -195s-121 -305.333 -121 -526c0 -222.667 43.167 -396.5 129.5 -521.5
s197.5 -187.5 333.5 -187.5c68 0 134.333 13 199 39s115 65 151 117c28 37.333 48 77.833 60 121.5s23.667 111.167 35 202.5h47c0 -235.333 2.66699 -399.333 8 -492z" />
    <glyph glyph-name="D" unicode="D" horiz-adv-x="1481" 
d="M86 1409l0.00488281 41.002c73.333 -4.66699 140 -7 200 -7c5.33301 0 13.666 0.166992 24.999 0.5s19.666 0.5 24.999 0.5c188 4 291 6 309 6c241.333 0 422.166 -60.333 542.499 -181s180.5 -296.667 180.5 -528c0 -226 -65.333 -406 -196 -540
s-312.334 -201 -545.001 -201c-18.667 0 -63.334 1 -134.001 3s-121.667 3 -153 3c-112 0 -196.667 -2 -254 -6v41c49.333 2 84.833 7.33301 106.5 16s37 24.667 46 48s13.5 60.666 13.5 111.999v1016c0 51.333 -4.5 88.666 -13.5 111.999s-24.333 39.333 -46 48
s-57.167 14 -106.5 16zM442.005 1237l-0.000976562 -1024c0 -72 9.83301 -119.333 29.5 -142s61.167 -34 124.5 -34c74 0 139.667 6.66699 197 20s106.833 33.833 148.5 61.5s76.834 60.667 105.501 99s51.5 84.166 68.5 137.499s29.167 110.333 36.5 171s11 129.667 11 207
c0 117.333 -9.83301 217.5 -29.5 300.5s-51.667 153.333 -96 211s-103 100.167 -176 127.5s-162.167 41 -267.5 41c-62 0 -102.833 -11.5 -122.5 -34.5s-29.5 -70.167 -29.5 -141.5z" />
    <glyph glyph-name="E" unicode="E" horiz-adv-x="1247" 
d="M1094 410l47 -0.00683594c-4 -36.667 -6 -86 -6 -148c0 -77.333 4.66699 -164.666 14 -261.999c-92.667 4 -249 6 -469 6c-262 0 -460 -2 -594 -6v41c49.333 2 84.833 7.33301 106.5 16s37 24.667 46 48s13.5 60.666 13.5 111.999v1016
c0 51.333 -4.5 88.666 -13.5 111.999s-24.333 39.333 -46 48s-57.167 14 -106.5 16v41c134 -4 332 -6 594 -6c200.667 0 343.334 2 428.001 6c-9.33301 -89.333 -14 -170 -14 -242c0 -53.333 2 -95.666 6 -126.999h-47c-4.66699 44.667 -9.5 80.834 -14.5 108.501
s-11.833 54.834 -20.5 81.501s-19 47.334 -31 62.001s-27.667 27.834 -47 39.501s-42 19.667 -68 24s-57.333 6.5 -94 6.5h-170c-70.667 0 -116 -10 -136 -30s-30 -66.667 -30 -140v-483h136c24.667 0 46.5 3 65.5 9s34.833 15.333 47.5 28s23.167 25.167 31.5 37.5
s15.166 28.666 20.499 48.999s9.16602 36.833 11.499 49.5s4.83301 30 7.5 52s4.66699 37 6 45h47c-4.66699 -68 -7 -132.333 -7 -193c0 -13.333 0.166992 -30.666 0.5 -51.999s0.5 -36.666 0.5 -45.999c0 -69.333 4 -166.333 12 -291h-47
c-9.33301 76.667 -17 125.334 -23 146.001c-18.667 66 -57.334 105.667 -116.001 119c-16.667 4 -35.667 6 -57 6h-136v-492c0 -73.333 10 -120 30 -140s65.333 -30 136 -30h150c64.667 0 116.834 5.83301 156.501 17.5s71.834 32.834 96.501 63.501s42.667 67.167 54 109.5
s21 99.833 29 172.5z" />
    <glyph glyph-name="F" unicode="F" horiz-adv-x="1165" 
d="M86 1409l-0.000976562 41.001c134 -4 332 -6 594 -6c200.667 0 343.334 2 428.001 6c-9.33301 -97.333 -14 -184.666 -14 -261.999c0 -69.333 2 -125.333 6 -168h-47c-4 39.333 -7.83301 72.166 -11.5 98.499s-8.33398 53.333 -14.001 81s-12.167 50.167 -19.5 67.5
s-16.666 34.333 -27.999 51s-24.166 29.667 -38.499 39s-31.5 17.833 -51.5 25.5s-42.5 13 -67.5 16s-53.5 4.5 -85.5 4.5h-129c-70.667 0 -116 -10 -136 -30s-30 -66.667 -30 -140v-504h150c24.667 0 46.5 3 65.5 9s34.833 15.333 47.5 28s23.167 25.167 31.5 37.5
s15.166 28.666 20.499 48.999s9.16602 36.833 11.499 49.5s4.83301 30 7.5 52s4.66699 37 6 45h47c-4.66699 -66.667 -7 -131 -7 -193c0 -12.667 0.166992 -29.667 0.5 -51s0.5 -36.666 0.5 -45.999c0 -72 4.33301 -169 13 -291h-48c-9.33301 76.667 -17 125.667 -23 147
c-18.667 64.667 -57.334 103.667 -116.001 117c-17.333 4 -36.333 6 -57 6h-150v-471c0 -38.667 2.5 -68.667 7.5 -90s15.833 -38.5 32.5 -51.5s37.167 -21.667 61.5 -26s59.5 -7.16602 105.5 -8.49902v-41c-71.333 4 -171.666 6 -300.999 6
c-117.333 0 -204.666 -2 -261.999 -6v41c49.333 2 84.833 7.33301 106.5 16s37 24.667 46 48s13.5 60.666 13.5 111.999v1016c0 51.333 -4.5 88.666 -13.5 111.999s-24.333 39.333 -46 48s-57.167 14 -106.5 16z" />
    <glyph glyph-name="G" unicode="G" horiz-adv-x="1440" 
d="M1266 0l-41.002 0.000976562c-1.33301 28 -7 54.5 -17 79.5s-23 37.5 -39 37.5c-14 0 -36.333 -11.667 -67 -35c-98 -74 -204.667 -111 -320 -111c-211.333 0 -376 64.333 -494 193s-177 307.334 -177 536.001c0 117.333 16.5 225 49.5 323s78.667 180.167 137 246.5
s128 117.833 209 154.5s168.833 55 263.5 55c42.667 0 81.667 -3.33301 117 -10s68.666 -17.334 99.999 -32.001s56.833 -28 76.5 -40s44.834 -29 75.501 -51c17.333 -14 31 -21 41 -21c26 0 43 41.667 51 125h47c-5.33301 -88.667 -8 -245.667 -8 -471h-47
c-8 48.667 -15 87.167 -21 115.5s-16.167 60.5 -30.5 96.5s-31.5 66.333 -51.5 91c-40 49.333 -91.667 88.333 -155 117s-129.666 43 -198.999 43c-136.667 0 -246 -65 -328 -195s-123 -304.667 -123 -524c0 -245.333 39.5 -425.166 118.5 -539.499
s202.167 -171.5 369.5 -171.5c82 0 153 21.333 213 64c24.667 16.667 40.667 32.667 48 48s11 36.666 11 63.999v197c0 82 -12.667 134.5 -38 157.5s-81.666 36.167 -168.999 39.5v41c67.333 -4.66699 163.666 -7 288.999 -7c96 0 167 2.33301 213 7v-41
c-32 -2.66699 -54.667 -8.16699 -68 -16.5s-22.666 -23.833 -27.999 -46.5s-8 -60.334 -8 -113.001v-406z" />
    <glyph glyph-name="H" unicode="H" horiz-adv-x="1550" 
d="M1464 1450l-0.000976562 -41c-49.333 -2 -84.833 -7.33301 -106.5 -16s-37 -24.667 -46 -48s-13.5 -60.666 -13.5 -111.999v-1016c0 -51.333 4.5 -88.666 13.5 -111.999s24.333 -39.333 46 -48s57.167 -14 106.5 -16v-41c-57.333 4 -144.666 6 -261.999 6
c-109.333 0 -196 -2 -260 -6v41c49.333 2 84.833 7.33301 106.5 16s37 24.667 46 48s13.5 60.666 13.5 111.999v492h-666v-492c0 -51.333 4.5 -88.666 13.5 -111.999s24.333 -39.333 46 -48s57.167 -14 106.5 -16v-41c-62.667 4 -149.334 6 -260.001 6
c-117.333 0 -204.666 -2 -261.999 -6v41c49.333 2 84.833 7.33301 106.5 16s37 24.667 46 48s13.5 60.666 13.5 111.999v1016c0 51.333 -4.5 88.666 -13.5 111.999s-24.333 39.333 -46 48s-57.167 14 -106.5 16v41c56.667 -4 144 -6 262 -6c110.667 0 197.334 2 260.001 6
v-41c-49.333 -2 -84.833 -7.33301 -106.5 -16s-37 -24.667 -46 -48s-13.5 -60.666 -13.5 -111.999v-483h666v483c0 51.333 -4.5 88.666 -13.5 111.999s-24.333 39.333 -46 48s-57.167 14 -106.5 16v41c64 -4 150.667 -6 260 -6c117.333 0 204.666 2 261.999 6z" />
    <glyph glyph-name="I" unicode="I" 
d="M608 1450l-0.000976562 -41c-49.333 -2 -84.833 -7.33301 -106.5 -16s-37 -24.667 -46 -48s-13.5 -60.666 -13.5 -111.999v-1016c0 -51.333 4.5 -88.666 13.5 -111.999s24.333 -39.333 46 -48s57.167 -14 106.5 -16v-41c-62.667 4 -149.334 6 -260.001 6
c-117.333 0 -204.666 -2 -261.999 -6v41c49.333 2 84.833 7.33301 106.5 16s37 24.667 46 48s13.5 60.666 13.5 111.999v1016c0 51.333 -4.5 88.666 -13.5 111.999s-24.333 39.333 -46 48s-57.167 14 -106.5 16v41c56.667 -4 144 -6 262 -6c110.667 0 197.334 2 260.001 6z
" />
    <glyph glyph-name="J" unicode="J" horiz-adv-x="668" 
d="M596 1450l0.000976562 -41.002c-49.333 -2 -84.833 -7.33301 -106.5 -16s-37 -24.667 -46 -48s-13.5 -60.666 -13.5 -111.999v-750c0 -259.333 -11.667 -437.333 -35 -534c-23.333 -98.667 -73 -179 -149 -241s-170.333 -93 -283 -93c-66.667 0 -124 12.333 -172 37
c-65.333 34 -98 81 -98 141c0 32 10.167 58.167 30.5 78.5s46.166 30.5 77.499 30.5c32.667 0 59.667 -10 81 -30s32 -47 32 -81c0 -28.667 -7.66699 -51.834 -23 -69.501s-36.333 -29.167 -63 -34.5c22 -22 65.667 -33 131 -33c59.333 0 110.5 15.333 153.5 46
s73.833 73.334 92.5 128.001c14 42.667 23.333 95.834 28 159.501s7 166.834 7 309.501v936c0 51.333 -4.5 88.666 -13.5 111.999s-24.333 39.333 -46 48s-57.167 14 -106.5 16v41c56.667 -4 144 -6 262 -6c109.333 0 196 2 260 6z" />
    <glyph glyph-name="K" unicode="K" horiz-adv-x="1341" 
d="M684 832l475.002 -665.999c22.667 -34.667 48 -61.667 76 -81s62.667 -34 104 -44v-41c-64.667 4 -146.334 6 -245.001 6c-74 0 -144.333 -2 -211 -6v41c62.667 2.66699 94 17 94 43c0 12.667 -7 29 -21 49l-299 451c-40 60.667 -73.667 100 -101 118
s-65.333 28.333 -114 31v-516c0 -51.333 4.5 -88.666 13.5 -111.999s24.333 -39.333 46 -48s57.167 -14 106.5 -16v-41c-62.667 4 -149.334 6 -260.001 6c-117.333 0 -204.666 -2 -261.999 -6v41c49.333 2 84.833 7.33301 106.5 16s37 24.667 46 48
s13.5 60.666 13.5 111.999v1016c0 51.333 -4.5 88.666 -13.5 111.999s-24.333 39.333 -46 48s-57.167 14 -106.5 16v41c56.667 -4 144 -6 262 -6c110.667 0 197.334 2 260.001 6v-41c-49.333 -2 -84.833 -7.33301 -106.5 -16s-37 -24.667 -46 -48
s-13.5 -60.666 -13.5 -111.999v-459c98.667 3.33301 176.667 41.666 234 114.999l196 250c70 88.667 105 154 105 196c0 47.333 -42.333 72 -127 74v41c78 -4 156.333 -6 235 -6c75.333 0 133.666 2 174.999 6v-41c-94.667 -13.333 -175.334 -63 -242.001 -149z" />
    <glyph glyph-name="L" unicode="L" horiz-adv-x="1204" 
d="M608 1450l-0.00292969 -41c-49.333 -2 -84.833 -7.33301 -106.5 -16s-37 -24.667 -46 -48s-13.5 -60.666 -13.5 -111.999v-1016c0 -73.333 10 -120 30 -140s65.333 -30 136 -30h150c64.667 0 116.834 6.16699 156.501 18.5s71.834 34.833 96.501 67.5
s42.667 71.167 54 115.5s21 104.833 29 181.5h47c-4 -42.667 -6 -98.667 -6 -168c0 -77.333 4.66699 -164.666 14 -261.999c-92.667 4 -249 6 -469 6c-262 0 -460 -2 -594 -6v41c49.333 2 84.833 7.33301 106.5 16s37 24.667 46 48s13.5 60.666 13.5 111.999v1016
c0 51.333 -4.5 88.666 -13.5 111.999s-24.333 39.333 -46 48s-57.167 14 -106.5 16v41c56.667 -4 144 -6 262 -6c110.667 0 197.334 2 260.001 6z" />
    <glyph glyph-name="M" unicode="M" horiz-adv-x="1784" 
d="M1698 1450v-40.999c-49.333 -2 -84.833 -7.33301 -106.5 -16s-37 -24.667 -46 -48s-13.5 -60.666 -13.5 -111.999v-1016c0 -51.333 4.5 -88.666 13.5 -111.999s24.333 -39.333 46 -48s57.167 -14 106.5 -16v-41c-64 4 -150.667 6 -260 6
c-117.333 0 -204.666 -2 -261.999 -6v41c37.333 1.33301 65.666 4.16602 84.999 8.49902s35.666 13.166 48.999 26.499s21.833 30.5 25.5 51.5s5.5 50.833 5.5 89.5v1096l-493 -1323h-33l-516 1329v-1081c0 -76.667 11.5 -128 34.5 -154s73.5 -40.333 151.5 -43v-41
c-49.333 4 -119 6 -209 6c-81.333 0 -144.666 -2 -189.999 -6v41c68.667 2.66699 113.5 17.167 134.5 43.5s31.5 77.5 31.5 153.5v995c0 51.333 -4.5 88.666 -13.5 111.999s-24.333 39.333 -46 48s-57.167 14 -106.5 16v41c44.667 -4 108 -6 190 -6c72 0 130.333 2 175 6
l450 -1188l440 1182h97c109.333 0 196 2 260 6z" />
    <glyph glyph-name="N" unicode="N" horiz-adv-x="1446" 
d="M1372 1450l0.000976562 -40.998c-68.667 -2.66699 -113.5 -17.167 -134.5 -43.5s-31.5 -77.5 -31.5 -153.5v-1222h-47l-860 1329v-1081c0 -76.667 11.5 -128 34.5 -154s73.5 -40.333 151.5 -43v-41c-49.333 4 -119 6 -209 6c-81.333 0 -144.666 -2 -189.999 -6v41
c68.667 2.66699 113.5 17.167 134.5 43.5s31.5 77.5 31.5 153.5v995c0 51.333 -4.5 88.666 -13.5 111.999s-24.333 39.333 -46 48s-57.167 14 -106.5 16v41c44.667 -4 108 -6 190 -6c62 0 115.333 2 160 6l723 -1114v876c0 40 -2.16699 71.333 -6.5 94s-13.333 42 -27 58
s-32.334 27.167 -56.001 33.5s-55.834 10.166 -96.501 11.499v41c48.667 -4 118.334 -6 209.001 -6c81.333 0 144.666 2 189.999 6z" />
    <glyph glyph-name="O" unicode="O" horiz-adv-x="1518" 
d="M760 1479c197.333 0 354.833 -65.833 472.5 -197.5s176.5 -313.167 176.5 -544.5c0 -150.667 -27.667 -284.167 -83 -400.5s-132.333 -206.333 -231 -270s-211 -95.5 -337 -95.5c-197.333 0 -354.833 65.833 -472.5 197.5s-176.5 313.167 -176.5 544.5
c0 150.667 27.667 284.167 83 400.5s132.333 206.333 231 270s211 95.5 337 95.5zM752 1442c-87.333 0 -164.5 -30.5 -231.5 -91.5s-118.333 -146 -154 -255s-53.5 -233.833 -53.5 -374.5c0 -213.333 43.167 -385.5 129.5 -516.5s194.166 -196.5 323.499 -196.5
c87.333 0 164.333 30.5 231 91.5s117.834 146 153.501 255s53.5 233.833 53.5 374.5c0 213.333 -43.167 385.5 -129.5 516.5s-193.833 196.5 -322.5 196.5z" />
    <glyph glyph-name="P" unicode="P" horiz-adv-x="1198" 
d="M442 586l-0.00195312 -368.999c0 -38.667 2.5 -68.667 7.5 -90s15.833 -38.5 32.5 -51.5s37.167 -21.667 61.5 -26s59.5 -7.16602 105.5 -8.49902v-41c-71.333 4 -171.666 6 -300.999 6c-117.333 0 -204.666 -2 -261.999 -6v41c49.333 2 84.833 7.33301 106.5 16
s37 24.667 46 48s13.5 60.666 13.5 111.999v1016c0 51.333 -4.5 88.666 -13.5 111.999s-24.333 39.333 -46 48s-57.167 14 -106.5 16v41c56.667 -4 140 -6 250 -6c49.333 0 110.666 0.666992 183.999 2s115 2 125 2c160.667 0 283.167 -36.667 367.5 -110
s126.5 -171.333 126.5 -294c0 -42.667 -5 -84 -15 -124s-27.833 -80.667 -53.5 -122s-58 -77.333 -97 -108s-90.667 -55.667 -155 -75s-137.166 -29 -218.499 -29h-158zM441.998 627.001h138c56 0 105.167 7.16699 147.5 21.5s76.5 33.333 102.5 57s47 53 63 88
s26.833 70.667 32.5 107s8.5 76.833 8.5 121.5c0 132 -26.333 229.5 -79 292.5s-139.667 94.5 -261 94.5c-62 0 -102.833 -11.5 -122.5 -34.5s-29.5 -70.167 -29.5 -141.5v-606z" />
    <glyph glyph-name="Q" unicode="Q" horiz-adv-x="1518" 
d="M1532 -47l31.002 -12.001c-30.667 -104.667 -73.667 -182.667 -129 -234c-68 -61.333 -160.333 -92 -277 -92c-64.667 0 -130.167 10.833 -196.5 32.5s-145 52.834 -236 93.501s-166.5 71 -226.5 91c-6.66699 2 -15.5 4.5 -26.5 7.5s-18.5 5.16699 -22.5 6.5
c-60 -20 -116.667 -30 -170 -30c-63.333 0 -95 13.667 -95 41c0 28.667 37 43 111 43c49.333 0 100.666 -5.66699 153.999 -17c36.667 10 81 26.667 133 50s84.667 37.333 98 42c-175.333 17.333 -314.333 90.833 -417 220.5s-154 302.167 -154 517.5
c0 150.667 27.667 284.167 83 400.5s132.333 206.333 231 270s211 95.5 337 95.5c197.333 0 354.833 -65.833 472.5 -197.5s176.5 -313.167 176.5 -544.5c0 -214 -54 -390.5 -162 -529.5s-249.333 -216.833 -424 -233.5v-1c-46.667 -5.33301 -102.334 -21.5 -167.001 -48.5
s-110 -44.167 -136 -51.5c326.667 -65.333 543 -98 649 -98c97.333 0 174.333 14.167 231 42.5s100.667 73.5 132 135.5zM313.002 720.999c0 -213.333 43.167 -385.5 129.5 -516.5s194.166 -196.5 323.499 -196.5c87.333 0 164.333 30.5 231 91.5s117.834 146 153.501 255
s53.5 233.833 53.5 374.5c0 213.333 -43.167 385.5 -129.5 516.5s-193.833 196.5 -322.5 196.5c-87.333 0 -164.5 -30.5 -231.5 -91.5s-118.333 -146 -154 -255s-53.5 -233.833 -53.5 -374.5z" />
    <glyph glyph-name="R" unicode="R" horiz-adv-x="1327" 
d="M1321 125l30.9971 -23.002c-32 -46 -63.667 -79.333 -95 -100s-72.666 -31 -123.999 -31c-56 0 -102 16.333 -138 49s-63.333 90.334 -82 173.001l-45 204c-6.66699 30.667 -12.167 54.667 -16.5 72s-10.333 37.833 -18 61.5s-15 42 -22 55s-16.167 27 -27.5 42
s-23.666 26.333 -36.999 34s-29.333 14 -48 19s-39.334 7.5 -62.001 7.5h-195v-471c0 -51.333 4.5 -88.666 13.5 -111.999s24.333 -39.333 46 -48s57.167 -14 106.5 -16v-41c-62.667 4 -149.334 6 -260.001 6c-117.333 0 -204.666 -2 -261.999 -6v41
c49.333 2 84.833 7.33301 106.5 16s37 24.667 46 48s13.5 60.666 13.5 111.999v1016c0 51.333 -4.5 88.666 -13.5 111.999s-24.333 39.333 -46 48s-57.167 14 -106.5 16v41c56.667 -4 140 -6 250 -6c49.333 0 110.666 0.666992 183.999 2s115 2 125 2
c158.667 0 280.667 -33.167 366 -99.5s128 -151.833 128 -256.5c0 -38.667 -6.5 -77.167 -19.5 -115.5s-33.833 -76.833 -62.5 -115.5s-70.167 -72.667 -124.5 -102s-118.166 -49.666 -191.499 -60.999l25 -4c89.333 -14.667 154.5 -41.667 195.5 -81
s71.5 -102.333 91.5 -189l51 -209c13.333 -62 27.333 -105.5 42 -130.5s35.667 -37.5 63 -37.5c22.667 0 41.334 5.83301 56.001 17.5s33.334 31.834 56.001 60.501zM441.997 728.998h138c56.667 0 106 5.83301 148 17.5s76 27.5 102 47.5s46.833 44.833 62.5 74.5
s26.5 60.5 32.5 92.5s9 68 9 108c0 112 -26.667 196.667 -80 254s-140 86 -260 86c-62 0 -102.833 -11.5 -122.5 -34.5s-29.5 -70.167 -29.5 -141.5v-504z" />
    <glyph glyph-name="S" unicode="S" horiz-adv-x="1106" 
d="M137 477l46.998 -0.00585938c4.66699 -65.333 14.5 -124.666 29.5 -177.999s36.5 -102.166 64.5 -146.499s65.667 -78.833 113 -103.5s102.666 -37 165.999 -37c73.333 0 136 23 188 69s78 114 78 204c0 40 -7.16699 77 -21.5 111s-37.166 66.333 -68.499 97
s-63.833 57.834 -97.5 81.501s-77.5 51.834 -131.5 84.501l-95.5 59.5c-24.333 15.667 -52.5 35.5 -84.5 59.5s-57.5 46.833 -76.5 68.5s-37.667 46.667 -56 75s-31.666 58.833 -39.999 91.5s-12.5 67.667 -12.5 105c0 58.667 10.5 111 31.5 157s49.5 83.167 85.5 111.5
s76.833 49.833 122.5 64.5s94.167 22 145.5 22c42 0 80 -4.33301 114 -13s59.167 -17.334 75.5 -26.001s36.5 -21 60.5 -37c30.667 -19.333 54 -29 70 -29c12.667 0 22.334 7.16699 29.001 21.5s12 37.166 16 68.499h47c-6.66699 -80 -10 -219.333 -10 -418h-47
c-4 51.333 -13.167 99.5 -27.5 144.5s-34.5 86.667 -60.5 125s-60.167 68.666 -102.5 90.999s-90.833 33.5 -145.5 33.5c-73.333 0 -133.333 -22.167 -180 -66.5s-70 -101.5 -70 -171.5c0 -20 1.66699 -39.167 5 -57.5s9.16602 -35.666 17.499 -51.999
s16.666 -31.166 24.999 -44.499s20.333 -27.166 36 -41.499l40.5 -36.5c11.333 -10 27.833 -22.167 49.5 -36.5l52 -34l58.5 -36l60 -36.5l88.5 -56.5c23 -15 48.833 -33 77.5 -54s51.834 -40.167 69.501 -57.5s35.834 -37.5 54.501 -60.5s33.167 -45.833 43.5 -68.5
s18.833 -48 25.5 -76s10 -57.333 10 -88c0 -84 -20 -155.833 -60 -215.5s-92.167 -103.5 -156.5 -131.5s-137.166 -42 -218.499 -42c-65.333 0 -119 6.83301 -161 20.5s-81.667 32.167 -119 55.5c-30.667 19.333 -54 29 -70 29c-12.667 0 -22.334 -7.16699 -29.001 -21.5
s-12 -37.166 -16 -68.499h-47c5.33301 74.667 8 238.334 8 491.001z" />
    <glyph glyph-name="T" unicode="T" horiz-adv-x="1272" 
d="M115 1020l-47.0029 -0.00292969c4 42.667 6 98.667 6 168c0 80 -5 167.333 -15 262c113.333 -4 306 -6 578 -6c270 0 461.667 2 575 6c-9.33301 -97.333 -14 -184.666 -14 -261.999c0 -69.333 2 -125.333 6 -168h-47c-5.33301 53.333 -10.5 96 -15.5 128
s-12.333 64.333 -22 97s-21.334 57.5 -35.001 74.5s-31.5 32.667 -53.5 47s-48.167 24 -78.5 29s-67.166 7.5 -110.499 7.5h-111v-1165c0 -34.667 1.83301 -62.667 5.5 -84s9.5 -39.666 17.5 -54.999s20.5 -26.833 37.5 -34.5s36.5 -13.167 58.5 -16.5
s51.333 -5.66602 88 -6.99902v-41c-72 4 -172.333 6 -301 6c-136.667 0 -237.667 -2 -303 -6v41c36.667 1.33301 66 3.66602 88 6.99902s41.5 8.83301 58.5 16.5s29.5 19.167 37.5 34.5s13.833 33.666 17.5 54.999s5.5 49.333 5.5 84v1165h-111
c-43.333 0 -80.166 -2.5 -110.499 -7.5s-56.666 -14.667 -78.999 -29s-40.166 -30 -53.499 -47s-24.833 -41.667 -34.5 -74s-17 -64.666 -22 -96.999s-10.167 -75.166 -15.5 -128.499z" />
    <glyph glyph-name="U" unicode="U" horiz-adv-x="1397" 
d="M1341 1450l0.00195312 -41c-68 -2.66699 -112.5 -17 -133.5 -43s-31.5 -77.333 -31.5 -154v-616c0 -194 -28 -338.667 -84 -434c-34.667 -58.667 -85.167 -105.167 -151.5 -139.5s-140.833 -51.5 -223.5 -51.5c-150 0 -264.667 37 -344 111
c-60 56 -100.333 119.333 -121 190s-31 176.667 -31 318v643c0 38.667 -1.83301 68.5 -5.5 89.5s-12.167 38.167 -25.5 51.5s-29.833 22.166 -49.5 26.499s-48.167 7.16602 -85.5 8.49902v41c58 -4 145.333 -6 262 -6c110 0 197 2 261 6v-41
c-37.333 -1.33301 -65.833 -4.16602 -85.5 -8.49902s-36.167 -13.166 -49.5 -26.499s-21.833 -30.5 -25.5 -51.5s-5.5 -50.833 -5.5 -89.5v-678c0 -52.667 1.33301 -98.167 4 -136.5s7.66699 -78.5 15 -120.5s18.5 -77.167 33.5 -105.5s34 -54.5 57 -78.5
s52.5 -41.833 88.5 -53.5s77.667 -17.5 125 -17.5c75.333 0 139.166 13 191.499 39s92.833 63.667 121.5 113s49.167 104.5 61.5 165.5s18.5 131.833 18.5 212.5v639c0 74 -13.333 124.5 -40 151.5s-75.334 42.167 -146.001 45.5v41c49.333 -4 119 -6 209 -6
c82 0 145.333 2 190 6z" />
    <glyph glyph-name="V" unicode="V" horiz-adv-x="1290" 
d="M915 1409v40.9971c78 -4 156.667 -6 236 -6c62 0 113.333 2 154 6v-41c-68.667 -15.333 -122.667 -74.666 -162 -177.999l-481 -1241h-17h-16l-500 1288c-33.333 84.667 -80.333 128.334 -141 131.001v41c55.333 -4 128.333 -6 219 -6c118 0 205.333 2 262 6v-41
c-52 -2 -89.167 -8.33301 -111.5 -19s-33.5 -29.667 -33.5 -57c0 -23.333 8 -55.333 24 -96l371 -984l334 865c27.333 70.667 41 126.334 41 167.001c0 43.333 -14.667 74.5 -44 93.5s-74.333 29.167 -135 30.5z" />
    <glyph glyph-name="W" unicode="W" horiz-adv-x="1853" 
d="M1468 1409l0.00195312 40.999c78 -4 156.667 -6 236 -6c61.333 0 112.666 2 153.999 6v-41c-76 -16.667 -130 -76 -162 -178l-387 -1241h-17h-16l-356 1055l-326 -1055h-16h-17l-434 1288c-29.333 84 -76.333 127.667 -141 131v41c55.333 -4 128.333 -6 219 -6
c98 0 171.667 2 221 6v-41c-36 -2.66699 -61.667 -9.33398 -77 -20.001s-23 -27.667 -23 -51c0 -22 7.33301 -55.667 22 -101l300 -913l248 793l-54 161c-28 84.667 -68.333 128.334 -121 131.001v41c49.333 -4 115.666 -6 198.999 -6c116.667 0 204 2 262 6v-41
c-26.667 -1.33301 -47.167 -2.83301 -61.5 -4.5s-28.333 -5 -42 -10s-23.167 -12.167 -28.5 -21.5s-8 -21.666 -8 -36.999c0 -22.667 7 -55.667 21 -99l294 -911l253 792c22 69.333 33 124.333 33 165c0 45.333 -13.833 77.333 -41.5 96s-72.167 28.667 -133.5 30z" />
    <glyph glyph-name="X" unicode="X" horiz-adv-x="1298" 
d="M723 793l424 -648c25.333 -39.333 46.833 -65.666 64.5 -78.999s41.834 -21 72.501 -23v-43c-93.333 5.33301 -152 8 -176 8c-46 0 -142.333 -2.66699 -289 -8v43c53.333 0 91 2.33301 113 7s33 13.334 33 26.001c0 9.33301 -5 21.666 -15 36.999l-350 536l-221 -330
c-52 -77.333 -78 -137.333 -78 -180c0 -34.667 15.5 -59.334 46.5 -74.001s76.167 -22.667 135.5 -24v-41c-76.667 4 -168.667 6 -276 6c-75.333 0 -133.333 -2 -174 -6v41c76.667 10.667 153.667 73.334 231 188.001l309 461l-401 615
c-25.333 39.333 -46.833 65.666 -64.5 78.999s-41.834 21 -72.501 23v43c93.333 -5.33301 152 -8 176 -8c91.333 0 187.666 2.66699 288.999 8v-43c-91.333 0 -137 -15 -137 -45c0 -10.667 6 -25.667 18 -45l319 -488l201 301c59.333 88.667 89 154.334 89 197.001
c0 28.667 -13.167 49.167 -39.5 61.5s-66.166 19.166 -119.499 20.499v41c78 -4 156.667 -6 236 -6c75.333 0 133.333 2 174 6v-41c-41.333 -6 -80.5 -24.5 -117.5 -55.5s-74.833 -75.167 -113.5 -132.5z" />
    <glyph glyph-name="Y" unicode="Y" horiz-adv-x="1210" 
d="M815 1409l-0.00292969 41.001c78 -4 156.667 -6 236 -6c60.667 0 111.667 2 153 6v-41c-27.333 -6 -54 -23.167 -80 -51.5s-54 -71.833 -84 -130.5l-321 -637v-373c0 -38.667 1.83301 -68.5 5.5 -89.5s12.167 -38.167 25.5 -51.5s29.833 -22.166 49.5 -26.499
s48.167 -7.16602 85.5 -8.49902v-41c-64 4 -150.667 6 -260 6c-117.333 0 -205 -2 -263 -6v41c37.333 1.33301 65.833 4.16602 85.5 8.49902s36.167 13.166 49.5 26.499s21.833 30.5 25.5 51.5s5.5 50.833 5.5 89.5v309l-415 766c-25.333 46 -47.166 76.667 -65.499 92
s-36.166 23 -53.499 23v43c53.333 -4 113.333 -6 180 -6c132.667 0 228.334 2 287.001 6v-43c-96 0 -144 -26.333 -144 -79c0 -20 7 -43.667 21 -71l341 -653l261 520c37.333 75.333 56 134 56 176c0 38.667 -15 66.167 -45 82.5s-75.333 25.166 -136 26.499z" />
    <glyph glyph-name="Z" unicode="Z" horiz-adv-x="1217" 
d="M1126 1409l-847 -1362h432c64.667 0 116.834 6.16699 156.501 18.5s71.834 34.833 96.501 67.5s42.667 71.167 54 115.5s21 104.833 29 181.5h47c-4.66699 -50 -7 -106 -7 -168c0 -70.667 5 -158 15 -262c-101.333 4 -271.333 6 -510 6c-233.333 0 -402 -2 -506 -6v41
l854 1362h-430c-64.667 0 -116.834 -6.16699 -156.501 -18.5s-71.834 -34.833 -96.501 -67.5s-42.667 -71.167 -54 -115.5s-21 -104.833 -29 -181.5h-47c4 42.667 6 98.667 6 168c0 77.333 -4.66699 164.666 -14 261.999c100.667 -4 270.667 -6 510 -6
c232 0 397.667 2 497 6v-41z" />
    <glyph glyph-name="bracketleft" unicode="[" horiz-adv-x="606" 
d="M539 1542h-166v-1874h166v-39h-351v1952h351v-39z" />
    <glyph glyph-name="backslash" unicode="\" horiz-adv-x="762" 
d="M135 1479l557 -1508h-67l-557 1508h67z" />
    <glyph glyph-name="bracketright" unicode="]" horiz-adv-x="606" 
d="M418 1581v-1952h-351v39h166v1874h-166v39h351z" />
    <glyph glyph-name="asciicircum" unicode="^" horiz-adv-x="1098" 
d="M530 1081h37c32.667 -78.667 83 -153.334 151 -224.001s145.333 -127 232 -169l-16 -29c-82.667 30 -162.667 67.333 -240 112s-139.333 89.334 -186 134.001c-38.667 -44.667 -89.167 -89.334 -151.5 -134.001s-126.5 -82 -192.5 -112l-17 29
c87.333 42 165 98.333 233 169s118 145.334 150 224.001z" />
    <glyph glyph-name="underscore" unicode="_" horiz-adv-x="1210" 
d="M1069 -317h-928v82h928v-82z" />
    <glyph glyph-name="grave" unicode="`" horiz-adv-x="457" 
d="M416 1245l-23 -18.002c-56 60 -118.833 120.5 -188.5 181.5s-114.5 104.167 -134.5 129.5c-18.667 24.667 -28 48 -28 70c0 22.667 9.33301 41.667 28 57c12.667 10 27.334 15 44.001 15c29.333 0 55.666 -15.333 78.999 -46c19.333 -25.333 50.333 -79.166 93 -161.499
s86 -158.166 130 -227.499z" />
    <glyph glyph-name="a" unicode="a" horiz-adv-x="1020" 
d="M655 709v127.001c0 79.333 -16.5 133.5 -49.5 162.5s-79.833 43.5 -140.5 43.5c-96.667 0 -164.334 -24.333 -203.001 -73c27.333 -6.66699 50.166 -21.167 68.499 -43.5s27.5 -49.5 27.5 -81.5c0 -34.667 -10.833 -61.834 -32.5 -81.501s-50.834 -29.5 -87.501 -29.5
c-34.667 0 -61.834 11.667 -81.501 35s-29.5 54 -29.5 92c0 53.333 32 102 96 146c78.667 51.333 174.334 77 287.001 77c114 0 196.667 -25.667 248 -77c31.333 -32 52.833 -69.167 64.5 -111.5s17.5 -100.833 17.5 -175.5v-569c0 -34 4.83301 -58.667 14.5 -74
s25.834 -23 48.501 -23c28 0 58.667 14.333 92 43l23 -35c-24 -18 -42.667 -31.333 -56 -40s-31.666 -16.667 -54.999 -24s-48.666 -11 -75.999 -11c-66 0 -111.833 16.5 -137.5 49.5s-38.5 77.167 -38.5 132.5c-40 -66 -88 -112.833 -144 -140.5s-113 -41.5 -171 -41.5
c-74 0 -135.833 19.333 -185.5 58s-74.5 95.667 -74.5 171c0 39.333 7 74.333 21 105s36.833 58.667 68.5 84s65.334 47.5 101.001 66.5s82.167 40.5 139.5 64.5c8.66699 4 23.167 10 43.5 18s34.666 13.833 42.999 17.5l37.5 16.5c16.667 7.33301 28.5 13.166 35.5 17.499
l28 17c11.667 7 20 13.333 25 19s10.5 12.334 16.5 20.001s10.167 15.5 12.5 23.5s3.5 16.333 3.5 25zM655 223.001l-0.00195312 401.995c-10 -15.333 -26.667 -29.666 -50 -42.999s-72 -38 -146 -74c-28.667 -14 -52.167 -26.667 -70.5 -38
s-38.666 -27.166 -60.999 -47.499s-39.166 -45.166 -50.499 -74.499s-17 -62.666 -17 -99.999c0 -59.333 15 -104.166 45 -134.499s69.667 -45.5 119 -45.5c90.667 0 167.667 51.667 231 155z" />
    <glyph glyph-name="b" unicode="b" horiz-adv-x="1153" 
d="M348 1604l-0.00195312 -739.996c30 69.333 73.167 123.166 129.5 161.499s119.833 57.5 190.5 57.5c116 0 209.833 -47.833 281.5 -143.5s107.5 -233.5 107.5 -413.5c0 -89.333 -12.167 -169.833 -36.5 -241.5s-57.666 -130 -99.999 -175s-90.666 -79.333 -144.999 -103
s-112.833 -35.5 -175.5 -35.5c-50 0 -98.667 10.167 -146 30.5s-88.666 50.166 -123.999 89.499l-146 -124l-34 15c9.33301 33.333 14 72.666 14 117.999v1258c0 63.333 -11.5 109.166 -34.5 137.499s-63.5 42.5 -121.5 42.5v43c43.333 -4 85.666 -6 126.999 -6
c88 0 159 9.66699 213 29zM347.998 767.004v-646.999c66 -68 144.667 -102 236 -102c92 0 160.667 41.5 206 124.5s68 210.833 68 383.5c0 166.667 -20.5 291 -61.5 373s-103.833 123 -188.5 123c-57.333 0 -110 -22.333 -158 -67s-82 -107.334 -102 -188.001z" />
    <glyph glyph-name="c" unicode="c" horiz-adv-x="995" 
d="M885 270l38.9971 -14.0029c-10.667 -35.333 -26 -69 -46 -101s-45 -62.167 -75 -90.5s-67.167 -51 -111.5 -68s-92.5 -25.5 -144.5 -25.5c-63.333 0 -122.666 12.667 -177.999 38s-103.333 60.833 -144 106.5s-72.667 102.834 -96 171.501s-35 144.334 -35 227.001
c0 168 44.5 304.833 133.5 410.5s203.5 158.5 343.5 158.5c92 0 171.333 -21.667 238 -65c64 -43.333 96 -96 96 -158c0 -36 -10.167 -64.167 -30.5 -84.5s-46.166 -30.5 -77.499 -30.5c-32 0 -58.833 9.16699 -80.5 27.5s-32.5 43.5 -32.5 75.5
c0 29.333 8.16699 53.833 24.5 73.5s36.833 32.834 61.5 39.501c-13.333 24.667 -37.666 45.167 -72.999 61.5s-72.333 24.5 -111 24.5c-28.667 0 -56.167 -4.83301 -82.5 -14.5s-52.5 -26.667 -78.5 -51s-48.667 -55 -68 -92s-34.833 -85 -46.5 -144
s-17.5 -125.833 -17.5 -200.5c0 -88 7.83301 -164.167 23.5 -228.5s37.5 -114.833 65.5 -151.5s59 -63.5 93 -80.5s71.667 -25.5 113 -25.5c58 0 113.5 17 166.5 51s96.5 87.333 130.5 160z" />
    <glyph glyph-name="d" unicode="d" horiz-adv-x="1190" 
d="M991 1606v-1383c0 -63.333 11.5 -109.166 34.5 -137.499s63.5 -42.5 121.5 -42.5v-43c-43.333 4 -85.666 6 -126.999 6c-88 0 -159 -9.66699 -213 -29v182c-51.333 -125.333 -148.333 -188 -291 -188c-131.333 0 -234 47 -308 141s-110.667 232 -110 414
c-0.666992 90.667 11.5 172 36.5 244s59.167 130.333 102.5 175s92.5 78.834 147.5 102.501s113.833 35.5 176.5 35.5c114.667 0 196.667 -40.333 246 -121v398c0 63.333 -11.5 109.166 -34.5 137.499s-63.5 42.5 -121.5 42.5v43c43.333 -4 85.666 -6 126.999 -6
c88 0 159 9.66699 213 29zM807 268.999l0.000976562 609.001c-38 105.333 -114.333 158 -229 158c-84.667 0 -152.834 -43.333 -204.501 -130s-77.167 -213.334 -76.5 -380.001c-0.666992 -164 22.5 -287.167 69.5 -369.5s116.5 -123.5 208.5 -123.5
c53.333 0 101.5 20.667 144.5 62s72.167 99.333 87.5 174z" />
    <glyph glyph-name="e" unicode="e" horiz-adv-x="1036" 
d="M907 262l41.002 -15.999c-24.667 -75.333 -70.834 -140 -138.501 -194s-149.167 -81 -244.5 -81c-146 0 -261 48.667 -345 146s-126 225.666 -126 384.999c0 179.333 41.833 321 125.5 425s196.167 156 337.5 156c122.667 0 217.167 -37.167 283.5 -111.5
s99.5 -187.166 99.5 -338.499h-640c-4.66699 -36.667 -7 -80.334 -7 -131.001c0 -134 31.333 -241.667 94 -323s135.667 -122 219 -122c137.333 0 237.666 68.333 300.999 205zM297.002 672.001l446 -0.000976562c4 106 -11 194.5 -45 265.5s-83.667 106.5 -149 106.5
c-64.667 0 -120.167 -31.167 -166.5 -93.5s-74.833 -155.166 -85.5 -278.499z" />
    <glyph glyph-name="f" unicode="f" horiz-adv-x="680" 
d="M53 1053l164.001 -0.00390625c0 120 7.66699 212.833 23 278.5s42.666 121.5 81.999 167.5c26.667 32 61.334 57.167 104.001 75.5s89 27.5 139 27.5c70 0 129.333 -18.667 178 -56c42.667 -34.667 64 -77 64 -127c0 -31.333 -10.167 -57.166 -30.5 -77.499
s-46.5 -30.5 -78.5 -30.5c-31.333 0 -57.833 10 -79.5 30s-32.5 46.667 -32.5 80c0 28 7.83301 51.167 23.5 69.5s36.5 30.166 62.5 35.499c-4 12.667 -15 23.334 -33 32.001s-40.667 13 -68 13c-60.667 0 -105 -25.333 -133 -76
c-15.333 -27.333 -25.333 -68.166 -30 -122.499s-7 -143.166 -7 -266.499v-53h220v-41h-220v-801c0 -63.333 18 -107.166 54 -131.499s90.333 -36.5 163 -36.5v-43c-168 5.33301 -273 8 -315 8c-33.333 0 -114 -2.66699 -242 -8v43c57.333 0 97.666 10.5 120.999 31.5
s35 59.5 35 115.5v822h-164v41z" />
    <glyph glyph-name="g" unicode="g" horiz-adv-x="1061" 
d="M303 225l481 0.000976562c71.333 0 129.166 -15 173.499 -45s66.5 -78.333 66.5 -145c0 -37.333 -7 -75.166 -21 -113.499s-36.333 -76 -67 -113s-67.834 -69.667 -111.501 -98s-97.667 -51.333 -162 -69s-134.833 -26.5 -211.5 -26.5
c-71.333 0 -137.5 6.83301 -198.5 20.5s-111.833 35 -152.5 64s-61 63.5 -61 103.5c0 46.667 24.5 91.667 73.5 135s110.167 81.666 183.5 114.999h-7c-22 0 -43.167 1.83301 -63.5 5.5s-42 10.5 -65 20.5s-41.5 26.167 -55.5 48.5s-21 49.5 -21 81.5
c0 46.667 19.5 91 58.5 133s104.833 84 197.5 126c-126.667 49.333 -190 146.666 -190 291.999c0 72.667 16.833 133.667 50.5 183s78.167 85 133.5 107s120 33 194 33c52.667 0 101 -6 145 -18c14 76 38 136.667 72 182c36.667 45.333 83.334 68 140.001 68
c34 0 60.5 -10 79.5 -30s28.5 -45.667 28.5 -77c0 -28 -9.33301 -51.333 -28 -70s-42 -28 -70 -28c-34.667 0 -59.667 10.5 -75 31.5s-26.666 53.5 -33.999 97.5c-20 -18 -38.333 -51.333 -55 -100c-10.667 -36 -17.667 -64.333 -21 -85
c131.333 -48.667 197 -146.667 197 -294c0 -108 -34.833 -189 -104.5 -243s-161.167 -81 -274.5 -81c-56.667 0 -107 6.33301 -151 19c-55.333 -29.333 -97.833 -56.5 -127.5 -81.5s-44.5 -51.833 -44.5 -80.5c0 -45.333 32.667 -68 98 -68zM528 1047
c-60.667 0 -106.834 -21.833 -138.501 -65.5s-47.5 -117.5 -47.5 -221.5s15.833 -177.833 47.5 -221.5s77.834 -65.5 138.501 -65.5c61.333 0 107.833 21.667 139.5 65s47.5 117.333 47.5 222s-15.833 178.667 -47.5 222s-78.167 65 -139.5 65zM727 53.001h-381.002
c-43.333 -22 -77.333 -52.167 -102 -90.5s-37 -77.166 -37 -116.499c0 -44 15.833 -81.333 47.5 -112s69.334 -52.334 113.001 -65.001s89.834 -19 138.501 -19c44.667 0 88.667 6 132 18s83.5 29.333 120.5 52s67 53 90 91s34.5 80.667 34.5 128c0 40 -11 69 -33 87
s-63 27 -123 27z" />
    <glyph glyph-name="h" unicode="h" horiz-adv-x="1204" 
d="M381 1604l0.00488281 -765.999c34 86.667 81.5 149.167 142.5 187.5s129.5 57.5 205.5 57.5c95.333 0 167.666 -25.667 216.999 -77c26 -28 44.5 -62.5 55.5 -103.5s16.5 -96.167 16.5 -165.5v-547c0 -56 11.667 -94.5 35 -115.5s63.666 -31.5 120.999 -31.5v-43
c-128 5.33301 -210 8 -246 8c-38.667 0 -115.334 -2.66699 -230.001 -8v43c50.667 0 86 10.5 106 31.5s30 59.5 30 115.5v592c0 36 -1.83301 66.5 -5.5 91.5s-11 49.333 -22 73s-28 41.5 -51 53.5s-52.167 18 -87.5 18c-84 0 -152.833 -34.667 -206.5 -104
s-80.5 -158.333 -80.5 -267v-457c0 -56 10 -94.5 30 -115.5s55 -31.5 105 -31.5v-43c-114.667 5.33301 -191 8 -229 8c-38.667 0 -120.667 -2.66699 -246 -8v43c57.333 0 97.666 10.5 120.999 31.5s35 59.5 35 115.5v1168c0 63.333 -11.5 109.166 -34.5 137.499
s-63.5 42.5 -121.5 42.5v43c43.333 -4 85.666 -6 126.999 -6c88 0 159 9.66699 213 29z" />
    <glyph glyph-name="i" unicode="i" horiz-adv-x="600" 
d="M293 1567c35.333 0 66 -13 92 -39s39 -56.667 39 -92c0 -36 -13 -66.833 -39 -92.5s-56.667 -38.5 -92 -38.5c-36 0 -66.833 12.833 -92.5 38.5s-38.5 56.5 -38.5 92.5c0 35.333 12.833 66 38.5 92s56.5 39 92.5 39zM399 1077l0.00195312 -887
c0 -56 11.667 -94.5 35 -115.5s63.666 -31.5 120.999 -31.5v-43c-125.333 5.33301 -208 8 -248 8s-122.667 -2.66699 -248 -8v43c57.333 0 97.666 10.5 120.999 31.5s35 59.5 35 115.5v641c0 63.333 -11.5 109.333 -34.5 138s-63.5 43 -121.5 43v43c42.667 -4 85 -6 127 -6
c86.667 0 157.667 9.33301 213 28z" />
    <glyph glyph-name="j" unicode="j" horiz-adv-x="547" 
d="M272 1556c36 0 66.833 -12.833 92.5 -38.5s38.5 -56.5 38.5 -92.5c0 -35.333 -12.833 -66 -38.5 -92s-56.5 -39 -92.5 -39c-35.333 0 -66 13 -92 39s-39 56.667 -39 92c0 36 13 66.833 39 92.5s56.667 38.5 92 38.5zM385 1077v-840.999
c0 -111.333 -7.5 -208.5 -22.5 -291.5s-43.833 -151.167 -86.5 -204.5c-31.333 -40.667 -69.166 -71.667 -113.499 -93s-88.833 -32 -133.5 -32c-48 0 -86.333 10.333 -115 31c-30 22.667 -45 54 -45 94c0 31.333 9.83301 56.833 29.5 76.5s45.167 29.5 76.5 29.5
c32.667 0 58.667 -8.33301 78 -25s29 -41.667 29 -75c0 -46.667 -26 -79.334 -78 -98.001c8 -1.33301 19.667 -2 35 -2c47.333 0 85.666 15.667 114.999 47c31.333 39.333 47 97.333 47 174v964c0 63.333 -11.5 109.333 -34.5 138s-63.5 43 -121.5 43v43
c42.667 -4 85 -6 127 -6c86.667 0 157.667 9.33301 213 28z" />
    <glyph glyph-name="k" unicode="k" horiz-adv-x="1126" 
d="M599 656l370.006 -505.996c25.333 -34.667 48.333 -60.167 69 -76.5s45.334 -26.5 74.001 -30.5v-43c-82.667 5.33301 -138 8 -166 8c-36.667 0 -112.334 -2.66699 -227.001 -8v43c19.333 0 34.666 3.66699 45.999 11s17 16.666 17 27.999
c0 9.33301 -4 19.666 -12 30.999l-235 344c-24.667 34.667 -47.334 58 -68.001 70s-49.334 18.667 -86.001 20v-357c0 -56 10 -94.5 30 -115.5s55 -31.5 105 -31.5v-43c-114.667 5.33301 -190.334 8 -227.001 8c-40 0 -122.667 -2.66699 -248 -8v43
c57.333 0 97.666 10.5 120.999 31.5s35 59.5 35 115.5v1170c0 63.333 -11.5 109.166 -34.5 137.499s-63.5 42.5 -121.5 42.5v43c43.333 -4 85.666 -6 126.999 -6c88 0 159 9.66699 213 29v-1017c40 5.33301 73.333 14.666 100 27.999s52 32.333 76 57l152 157
c43.333 45.333 65 83 65 113c0 46.667 -50.333 70 -151 70v41c94.667 -5.33301 171.667 -8 231 -8c64 0 123.333 2.66699 178 8v-41c-66.667 -6 -128 -38 -184 -96z" />
    <glyph glyph-name="l" unicode="l" horiz-adv-x="586" 
d="M385 1606l0.00195312 -1416c0 -56 11.667 -94.5 35 -115.5s63.666 -31.5 120.999 -31.5v-43c-125.333 5.33301 -208 8 -248 8s-122.667 -2.66699 -248 -8v43c57.333 0 97.666 10.5 120.999 31.5s35 59.5 35 115.5v1170c0 63.333 -11.5 109.166 -34.5 137.499
s-63.5 42.5 -121.5 42.5v43c42.667 -4 85 -6 127 -6c88 0 159 9.66699 213 29z" />
    <glyph glyph-name="m" unicode="m" horiz-adv-x="1819" 
d="M1632 737l0.00878906 -547.003c0 -56 11.667 -94.5 35 -115.5s63.666 -31.5 120.999 -31.5v-43c-125.333 5.33301 -207.333 8 -246 8c-38 0 -114.333 -2.66699 -229 -8v43c50 0 85 10.5 105 31.5s30 59.5 30 115.5v592c0 30.667 -0.666992 55.5 -2 74.5
s-4.83301 39.833 -10.5 62.5s-13.834 40.334 -24.501 53.001s-26 23.5 -46 32.5s-44.333 13.5 -73 13.5c-79.333 0 -145.166 -35.5 -197.499 -106.5s-78.5 -159.167 -78.5 -264.5v-457c0 -56 11.5 -94.5 34.5 -115.5s63.167 -31.5 120.5 -31.5v-43
c-125.333 5.33301 -207 8 -245 8c-38.667 0 -115.334 -2.66699 -230.001 -8v43c50 0 85 10.5 105 31.5s30 59.5 30 115.5v592c0 30.667 -0.666992 55.5 -2 74.5s-4.83301 39.833 -10.5 62.5s-13.834 40.334 -24.501 53.001s-25.834 23.5 -45.501 32.5
s-43.834 13.5 -72.501 13.5c-79.333 0 -145.333 -35.833 -198 -107.5s-79 -160.167 -79 -265.5v-455c0 -56 10 -94.5 30 -115.5s55.333 -31.5 106 -31.5v-43c-114.667 5.33301 -191.334 8 -230.001 8s-120.667 -2.66699 -246 -8v43c57.333 0 97.666 10.5 120.999 31.5
s35 59.5 35 115.5v641c0 63.333 -11.5 109.333 -34.5 138s-63.5 43 -121.5 43v43c42.667 -4 85 -6 127 -6c86.667 0 157.667 9.33301 213 28v-241c33.333 84 80 146.167 140 186.5s125.333 60.5 196 60.5c92.667 0 163.667 -25.667 213 -77c34 -36.667 55 -91.667 63 -165
c23.333 59.333 54.166 107.666 92.499 144.999s77.666 62.833 117.999 76.5s83.833 20.5 130.5 20.5c92.667 0 163.667 -25.667 213 -77c24.667 -27.333 42 -62.166 52 -104.499s15 -97.166 15 -164.499z" />
    <glyph glyph-name="n" unicode="n" horiz-adv-x="1223" 
d="M399 1077l0.00683594 -241.002c34 86.667 81.5 149.5 142.5 188.5s129.833 58.5 206.5 58.5c95.333 0 167.666 -25.667 216.999 -77c25.333 -28 43.5 -62.5 54.5 -103.5s16.5 -96.167 16.5 -165.5v-547c0 -56 11.667 -94.5 35 -115.5s63.666 -31.5 120.999 -31.5v-43
c-125.333 5.33301 -207.333 8 -246 8c-38 0 -114.333 -2.66699 -229 -8v43c50 0 85 10.5 105 31.5s30 59.5 30 115.5v592c0 28.667 -1 53.334 -3 74.001s-6.33301 41.834 -13 63.501s-15.834 39.167 -27.501 52.5s-27.834 24.333 -48.501 33s-45.334 13 -74.001 13
c-84.667 0 -153.667 -35.667 -207 -107s-80 -160 -80 -266v-455c0 -56 10 -94.5 30 -115.5s55.333 -31.5 106 -31.5v-43c-114.667 5.33301 -191.334 8 -230.001 8s-120.667 -2.66699 -246 -8v43c57.333 0 97.666 10.5 120.999 31.5s35 59.5 35 115.5v641
c0 63.333 -11.5 109.333 -34.5 138s-63.5 43 -121.5 43v43c42.667 -4 85 -6 127 -6c86.667 0 157.667 9.33301 213 28z" />
    <glyph glyph-name="o" unicode="o" horiz-adv-x="1122" 
d="M561 1083c53.333 0 102.831 -6.66699 148.498 -20s88.167 -34.333 127.5 -63s72.833 -64.5 100.5 -107.5s49.334 -95.5 65.001 -157.5s23.5 -131.667 23.5 -209c0 -95.333 -11.833 -179.166 -35.5 -251.499s-57 -130.333 -100 -174s-92 -76.167 -147 -97.5
s-115.833 -32 -182.5 -32s-127.5 10.667 -182.5 32s-104 53.833 -147 97.5s-76.333 101.667 -100 174s-35.5 156.166 -35.5 251.499c0 77.333 7.83301 147 23.5 209s37.334 114.5 65.001 157.5s61.167 78.833 100.5 107.5s81.833 49.667 127.5 63s95.167 20 148.5 20z
M560.998 1042c-82 0 -146.833 -42 -194.5 -126s-71.5 -214 -71.5 -390c0 -175.333 23.833 -304.833 71.5 -388.5s112.5 -125.5 194.5 -125.5s146.833 41.833 194.5 125.5s71.5 213.167 71.5 388.5c0 176 -23.833 306 -71.5 390s-112.5 126 -194.5 126z" />
    <glyph glyph-name="p" unicode="p" horiz-adv-x="1190" 
d="M385 1077l-0.000976562 -216c30.667 70.667 74.834 125.334 132.501 164.001s122.834 58 195.501 58c111.333 0 202.666 -44.667 273.999 -134s107 -214 107 -374c0 -60.667 -5.5 -119.5 -16.5 -176.5s-28.667 -111.667 -53 -164s-54.333 -97.833 -90 -136.5
s-80 -69.5 -133 -92.5s-111.833 -34.5 -176.5 -34.5c-52 0 -99 10.167 -141 30.5s-75 47.166 -99 80.499v-262c0 -55.333 16.333 -93.833 49 -115.5s82 -32.5 148 -32.5v-43c-180 6 -278.333 9 -295 9c-18 0 -91.667 -3 -221 -9v43c50 0 85 9.16699 105 27.5
s30 51.5 30 99.5v1032c0 63.333 -11.5 109.333 -34.5 138s-63.5 43 -121.5 43v43c42.667 -4 85 -6 127 -6c86.667 0 157.667 9.33301 213 28zM384.999 763v-613c44 -88 116.333 -132 217 -132c195.333 0 293 176.333 293 529c0 316.667 -79.333 475 -238 475
c-62 0 -117.5 -22.167 -166.5 -66.5s-84.167 -108.5 -105.5 -192.5z" />
    <glyph glyph-name="q" unicode="q" horiz-adv-x="1153" 
d="M989 954v-1155c0 -48 10 -81.167 30 -99.5s55 -27.5 105 -27.5v-43c-129.333 6 -203 9 -221 9c-16.667 0 -115 -3 -295 -9v43c66 0 115.333 10.833 148 32.5s49 60.167 49 115.5v353c-27.333 -64.667 -66.166 -114.5 -116.499 -149.5s-107.166 -52.5 -170.499 -52.5
c-59.333 0 -114.333 11.5 -165 34.5s-95.334 57 -134.001 102s-68.834 103.167 -90.501 174.5s-32.5 152.666 -32.5 243.999c0 90.667 11.333 171.834 34 243.501s53.834 130.167 93.501 175.5s86 79.666 139 102.999s110.5 35 172.5 35
c69.333 0 127.166 -11.833 173.499 -35.5s84.5 -61.5 114.5 -113.5l66.5 70.5l79.5 82.5l35 -14c-10 -33.333 -15 -73 -15 -119zM805 270.001l0.000976562 629c-52.667 91.333 -137.334 137 -254.001 137c-82.667 0 -146 -42.5 -190 -127.5s-66 -212.5 -66 -382.5
c0 -163.333 24.167 -286.333 72.5 -369s118.5 -124 210.5 -124c50 0 95.833 20.5 137.5 61.5s71.5 99.5 89.5 175.5z" />
    <glyph glyph-name="r" unicode="r" horiz-adv-x="911" 
d="M399 1077l-0.00195312 -256.001c24.667 68 63.834 128.667 117.501 182s113.5 80 179.5 80c54.667 0 99.5 -15.667 134.5 -47s52.5 -69.333 52.5 -114c0 -36 -10.667 -66.5 -32 -91.5s-49.666 -37.5 -84.999 -37.5c-30 0 -55.667 9.5 -77 28.5s-32 44.833 -32 77.5
c0 44.667 23.333 81.667 70 111c-9.33301 13.333 -23.666 20 -42.999 20c-40.667 0 -79.5 -12.833 -116.5 -38.5s-67.333 -58 -91 -97s-42.5 -80.667 -56.5 -125s-21 -85.833 -21 -124.5v-434c0 -63.333 18 -107.166 54 -131.499s90.333 -36.5 163 -36.5v-43
c-168 5.33301 -273 8 -315 8c-36 0 -116.667 -2.66699 -242 -8v43c57.333 0 97.666 10.5 120.999 31.5s35 59.5 35 115.5v641c0 63.333 -11.5 109.333 -34.5 138s-63.5 43 -121.5 43v43c42.667 -4 85 -6 127 -6c86.667 0 157.667 9.33301 213 28z" />
    <glyph glyph-name="s" unicode="s" horiz-adv-x="913" 
d="M121 395l46.9971 -0.000976562c6 -49.333 12.833 -92 20.5 -128s18.5 -71 32.5 -105s31 -61.333 51 -82s45.167 -37.167 75.5 -49.5s65.5 -18.5 105.5 -18.5c48 0 90.333 15.833 127 47.5s55 80.834 55 147.501c0 23.333 -4.16699 45.5 -12.5 66.5
s-18.166 39.167 -29.499 54.5s-28.5 32.333 -51.5 51s-43.667 34.167 -62 46.5l-76.5 49.5l-49.5 31.5l-45 30c-22.333 15 -37.5 25.833 -45.5 32.5l-38 32c-17.333 14.667 -29.333 26.667 -36 36l-27 37.5c-11.333 15.667 -19.166 30.334 -23.499 44.001
s-8.33301 29.167 -12 46.5s-5.5 35.333 -5.5 54c0 86.667 28.833 152.334 86.5 197.001s129.834 67 216.501 67s161 -25 223 -75c14.667 -11.333 26.667 -17 36 -17c24 0 39.333 30 46 90h47c-5.33301 -66.667 -8 -182.667 -8 -348h-47c-34 207.333 -127 311 -279 311
c-49.333 0 -89.666 -13.833 -120.999 -41.5s-47 -66.167 -47 -115.5c0 -17.333 2.16699 -33.5 6.5 -48.5s11.666 -29.5 21.999 -43.5s20.333 -26.333 30 -37s24 -22.834 43 -36.501l47 -33c12.333 -8.33301 31.166 -20.333 56.499 -36l58 -36.5l89.5 -60
c23 -16 48 -36 75 -60s47.833 -46.833 62.5 -68.5s27.167 -47.167 37.5 -76.5s15.5 -60.333 15.5 -93c0 -60.667 -16.5 -113.167 -49.5 -157.5s-75.5 -77 -127.5 -98s-109.667 -31.5 -173 -31.5c-60.667 0 -114.667 9.66699 -162 29
c-26.667 13.333 -54.667 31.666 -84 54.999c-5.33301 5.33301 -11.666 8 -18.999 8c-20 0 -34 -25.667 -42 -77h-47c5.33301 78 8 214.333 8 409z" />
    <glyph glyph-name="t" unicode="t" horiz-adv-x="725" 
d="M389 1053h303v-41h-303v-793c0 -62 11 -106.5 33 -133.5s54.667 -40.5 98 -40.5c42.667 0 79 17 109 51s55.333 90 76 168l40 -10c-33.333 -188.667 -122 -283 -266 -283c-84 0 -148.667 22.667 -194 68c-29.333 30 -50 66.833 -62 110.5s-18 102.5 -18 176.5v686h-197
v41h197v313c76.667 2 138 11.667 184 29v-342z" />
    <glyph glyph-name="u" unicode="u" horiz-adv-x="1190" 
d="M989 1077l-0.00390625 -855.999c0 -63.333 11.5 -109.166 34.5 -137.499s63.5 -42.5 121.5 -42.5v-43c-43.333 4 -85.666 6 -126.999 6c-88 0 -159 -9.66699 -213 -29v242c-33.333 -84 -79.833 -146 -139.5 -186s-125.167 -60 -196.5 -60c-92 0 -163 26 -213 78
c-45.333 48.667 -68 138 -68 268v514c0 63.333 -11.333 109.333 -34 138s-63 43 -121 43v43c42.667 -4 85 -6 127 -6c86 0 157 9.33301 213 28v-805c0 -30.667 0.666992 -55.5 2 -74.5s4.83301 -39.833 10.5 -62.5s13.834 -40.334 24.501 -53.001
s25.834 -23.334 45.501 -32.001s43.834 -13 72.501 -13c79.333 0 145.333 35.5 198 106.5s79 159.167 79 264.5v423c0 63.333 -11.5 109.333 -34.5 138s-63.5 43 -121.5 43v43c42.667 -4 85 -6 127 -6c86.667 0 157.667 9.33301 213 28z" />
    <glyph glyph-name="v" unicode="v" horiz-adv-x="1001" 
d="M668 1014l-0.00292969 41c70.667 -4 128 -6 172 -6c60 0 111.667 2 155 6v-41c-27.333 -3.33301 -51.666 -15.666 -72.999 -36.999s-41.333 -57 -60 -107l-336 -880h-34l-377 907c-32 76.667 -71.667 115 -119 115v43c70.667 -5.33301 130.667 -8 180 -8
c104.667 0 193.334 2.66699 266.001 8v-43c-17.333 0 -30.166 -0.166992 -38.499 -0.5s-19.333 -1 -33 -2s-24 -3 -31 -6s-14.333 -7 -22 -12s-13 -11.667 -16 -20s-4.5 -18.166 -4.5 -29.499c0 -22.667 7.33301 -52.667 22 -90l252 -623l226 592c14.667 37.333 22 69 22 95
c0 31.333 -12 54.666 -36 69.999s-62.333 24.666 -115 27.999z" />
    <glyph glyph-name="w" unicode="w" horiz-adv-x="1577" 
d="M1243 1014l-0.00195312 40.9971c72 -4 129.333 -6 172 -6c60.667 0 112.667 2 156 6v-41c-28.667 -3.33301 -54 -15.666 -76 -36.999s-41 -57 -57 -107l-297 -880h-35l-325 824l-292 -824h-34l-336 907c-10 26 -20.667 47.333 -32 64s-22.5 28.334 -33.5 35.001
s-20.333 11 -28 13s-16.167 3 -25.5 3v43c57.333 -8.66699 117.333 -13 180 -13c60.667 0 149.334 4.33301 266.001 13v-43c-21.333 0 -36.666 -0.166992 -45.999 -0.5s-21.666 -1.66602 -36.999 -3.99902s-26.333 -6 -33 -11s-12.834 -12.5 -18.501 -22.5
s-8.5 -22.333 -8.5 -37c0 -25.333 7 -57.666 21 -96.999l205 -589l294 812h47l314 -829l192 587c12.667 40 19 71 19 93c0 32.667 -11.833 56.667 -35.5 72s-62.5 24.666 -116.5 27.999z" />
    <glyph glyph-name="x" unicode="x" horiz-adv-x="1063" 
d="M608 584l300.999 -438.998c24 -34.667 44.667 -59.167 62 -73.5s39 -23.833 65 -28.5v-43c-69.333 5.33301 -117.666 8 -144.999 8c-46.667 0 -127.334 -2.66699 -242.001 -8v43c22 0 41 4.33301 57 13s24 19.667 24 33c0 7.33301 -3 15.333 -9 24l-233 340l-150 -195
c-38 -48.667 -57 -89.667 -57 -123c0 -56 50.333 -87.333 151 -94v-41c-72 4 -149.667 6 -233 6c-60.667 0 -112.667 -2 -156 -6v41c26.667 3.33301 54 15.666 82 36.999s60.667 56.666 98 105.999l236 311l-285 414c-27.333 39.333 -49.166 65.5 -65.499 78.5
s-36.833 21.167 -61.5 24.5v43c72 -5.33301 120.667 -8 146 -8c46 0 126.333 2.66699 241 8v-43c-22 0 -40.833 -4.16699 -56.5 -12.5s-23.5 -19.5 -23.5 -33.5c0 -8 2.66699 -16 8 -24l219 -319l142 198c41.333 58 62 101 62 129c0 36.667 -39 58 -117 64v41
c70.667 -4 128 -6 172 -6c60 0 111.667 2 155 6v-41c-55.333 -6.66699 -115.333 -54.667 -180 -144z" />
    <glyph glyph-name="y" unicode="y" horiz-adv-x="1032" 
d="M684 1014l-0.00292969 41c72 -4 129.333 -6 172 -6c61.333 0 113.333 2 156 6v-41c-27.333 -3.33301 -51.666 -15.666 -72.999 -36.999s-41.333 -57 -60 -107l-336 -880l-70 -178c-26 -67.333 -55.333 -115.333 -88 -144c-38.667 -35.333 -92 -53 -160 -53
c-40.667 0 -74 10.833 -100 32.5s-39 51.834 -39 90.501c0 32.667 9.66699 58.834 29 78.501s46 29.5 80 29.5c30 0 54.833 -8.33301 74.5 -25s29.5 -40.334 29.5 -71.001c0 -40.667 -18.333 -71.334 -55 -92.001c2.66699 -1.33301 6.66699 -2 12 -2
c75.333 0 133.333 53.333 174 160l73 187l-372 894c-38 76.667 -84.333 115 -139 115v43c64 -8.66699 131 -13 201 -13c58.667 0 147.334 4.33301 266.001 13v-43c-20 0 -35 -0.166992 -45 -0.5s-22.5 -1.66602 -37.5 -3.99902s-26 -5.83301 -33 -10.5
s-13.333 -11.667 -19 -21s-8.5 -21 -8.5 -35c0 -24.667 8.66699 -58.334 26 -101.001l247 -612l226 593c14.667 40 22 71.333 22 94c0 32 -12.167 55.667 -36.5 71s-63.166 24.666 -116.499 27.999z" />
    <glyph glyph-name="z" unicode="z" horiz-adv-x="975" 
d="M307 31h225.002c173.333 0 268.333 109.667 285 329h47c0 -178 2.66699 -300.667 8 -368c-106.667 5.33301 -233.334 8 -380.001 8c-130.667 0 -268.667 -3.33301 -414 -10l592 1034h-226c-91.333 0 -159.333 -25.5 -204 -76.5s-71.334 -135.5 -80.001 -253.5h-47
c0 180.667 -3 303.667 -9 369c107.333 -5.33301 234.333 -8 381 -8c130.667 0 268.667 3.33301 414 10z" />
    <glyph glyph-name="braceleft" unicode="{" horiz-adv-x="623" 
d="M569 1602l-0.000976562 -38.998c-24 -0.666992 -43.5 -2.83398 -58.5 -6.50098s-29.167 -11.167 -42.5 -22.5s-23.5 -26.166 -30.5 -44.499s-13.167 -44.166 -18.5 -77.499s-8.83301 -72.333 -10.5 -117s-2.5 -100.334 -2.5 -167.001
c0 -71.333 -5.5 -134.833 -16.5 -190.5s-25.167 -101.5 -42.5 -137.5s-39.166 -67 -65.499 -93s-52.666 -45.833 -78.999 -59.5s-56.166 -25.5 -89.499 -35.5c33.333 -10 63.166 -21.833 89.499 -35.5s52.666 -33.667 78.999 -60s48.166 -57.333 65.499 -93
s31.5 -81.334 42.5 -137.001s16.5 -119.167 16.5 -190.5c0 -69.333 0.833008 -127 2.5 -173s5.16699 -86 10.5 -120s11.333 -60.167 18 -78.5s16.834 -33 30.501 -44s27.834 -18 42.501 -21s34.334 -4.83301 59.001 -5.5v-39c-67.333 0 -122.333 7.33301 -165 22
s-78 40.5 -106 77.5s-47.833 86 -59.5 147s-17.5 139.167 -17.5 234.5c0 99.333 -2.16699 179 -6.5 239s-12.5 109.667 -24.5 149s-27.667 66.833 -47 82.5s-45 24.834 -77 27.501h-11v37h11c25.333 1.33301 46.666 7.33301 63.999 18s32 27 44 49s21.333 52.667 28 92
s11.5 85.666 14.5 138.999s4.5 119.666 4.5 198.999c0 122 11.167 216.833 33.5 284.5s58.166 116.167 107.499 145.5s118.333 44 207 44z" />
    <glyph glyph-name="bar" unicode="|" horiz-adv-x="455" 
d="M268 -399h-82v2156h82v-2156z" />
    <glyph glyph-name="braceright" unicode="}" horiz-adv-x="623" 
d="M54 1563l-0.000976562 38.998c88.667 0 157.667 -14.667 207 -44s85.166 -77.833 107.499 -145.5s33.5 -162.5 33.5 -284.5c0 -79.333 1.5 -145.666 4.5 -198.999s7.83301 -99.666 14.5 -138.999s16 -70 28 -92s26.667 -38.333 44 -49s38.666 -16.667 63.999 -18h11v-37
h-11c-32 -2.66699 -57.667 -11.834 -77 -27.501s-35 -43.167 -47 -82.5s-20.167 -89 -24.5 -149s-6.5 -139.667 -6.5 -239c0 -95.333 -5.83301 -173.5 -17.5 -234.5s-31.5 -110 -59.5 -147s-63.333 -62.833 -106 -77.5s-97.667 -22 -165 -22v39
c24.667 0.666992 44.334 2.5 59.001 5.5s28.834 10 42.501 21s23.834 25.667 30.501 44s12.667 44.5 18 78.5s8.83301 74 10.5 120s2.5 103.667 2.5 173c0 71.333 5.5 134.833 16.5 190.5s25.167 101.334 42.5 137.001s39.166 66.667 65.499 93s52.666 46.333 78.999 60
s56.166 25.5 89.499 35.5c-33.333 10 -63.166 21.833 -89.499 35.5s-52.666 33.5 -78.999 59.5s-48.166 57 -65.499 93s-31.5 81.833 -42.5 137.5s-16.5 119.167 -16.5 190.5c0 66.667 -0.833008 122.334 -2.5 167.001s-5.16699 83.667 -10.5 117s-11.5 59.166 -18.5 77.499
s-17.167 33.166 -30.5 44.499s-27.5 18.833 -42.5 22.5s-34.5 5.83398 -58.5 6.50098z" />
    <glyph glyph-name="asciitilde" unicode="~" horiz-adv-x="1329" 
d="M186 520l-34.001 10c8 66 39.333 118.833 94 158.5s119.334 59.5 194.001 59.5c44.667 0 91.167 -8.16699 139.5 -24.5s90.166 -34.5 125.499 -54.5s76.333 -38.167 123 -54.5s91 -24.5 133 -24.5c89.333 0 150.666 39.667 183.999 119l35 -11
c-8 -66 -39.5 -118.667 -94.5 -158s-119.833 -59 -194.5 -59c-44.667 0 -91.167 8.16699 -139.5 24.5s-90.166 34.5 -125.499 54.5s-76.166 38.167 -122.499 54.5s-90.5 24.5 -132.5 24.5c-90 0 -151.667 -39.667 -185 -119z" />
    <glyph glyph-name="uni00A0" unicode="&#xa0;" horiz-adv-x="510" 
 />
    <glyph glyph-name="exclamdown" unicode="&#xa1;" horiz-adv-x="510" 
d="M256 1083c36 0 66.833 -12.833 92.5 -38.5s38.5 -56.5 38.5 -92.5c0 -35.333 -12.833 -66 -38.5 -92s-56.5 -39 -92.5 -39s-66.833 13 -92.5 39s-38.5 56.667 -38.5 92c0 36 12.833 66.833 38.5 92.5s56.5 38.5 92.5 38.5zM236 651h36
c0 -137.333 12.667 -313.833 38 -529.5s38 -346.167 38 -391.5c0 -39.333 -8.66699 -68.333 -26 -87s-40 -28 -68 -28c-27.333 0 -49.833 9.5 -67.5 28.5s-26.5 47.833 -26.5 86.5c0 45.333 12.667 175.833 38 391.5s38 392.167 38 529.5z" />
    <glyph glyph-name="cent" unicode="&#xa2;" horiz-adv-x="971" 
d="M860 270l38.9971 -13.999c-10.667 -34.667 -25.5 -67.5 -44.5 -98.5s-42.667 -60.333 -71 -88s-63.166 -50.334 -104.499 -68.001s-86.666 -27.834 -135.999 -30.501v-342h-45v343c-124 6 -226.5 58 -307.5 156s-121.5 226.667 -121.5 386c0 157.333 39.667 288 119 392
s182.666 162.333 309.999 175v369h45v-367h3c92 0 171.333 -21.667 238 -65c64 -43.333 96 -96 96 -158c0 -36 -10.167 -64.167 -30.5 -84.5s-46.166 -30.5 -77.499 -30.5c-32 0 -58.833 9.16699 -80.5 27.5s-32.5 43.5 -32.5 75.5c0 29.333 8.16699 53.833 24.5 73.5
s36.833 32.834 61.5 39.501c-13.333 24.667 -37.666 45.167 -72.999 61.5s-72.333 24.5 -111 24.5l-18 -1v-986l20 -1c58 0 113.5 17 166.5 51s96.5 87.333 130.5 160zM497.997 67.001v971c-31.333 -8.66699 -60 -23.834 -86 -45.501s-50.167 -51.5 -72.5 -89.5
s-39.833 -87.5 -52.5 -148.5s-19 -130.833 -19 -209.5c0 -147.333 20.833 -259.666 62.5 -336.999s97.5 -124.333 167.5 -141z" />
    <glyph glyph-name="sterling" unicode="&#xa3;" horiz-adv-x="1233" 
d="M897 422l7.99805 33.0068c72 -11.333 133.667 -39.333 185 -84s77 -102 77 -172c0 -62 -19.667 -115.5 -59 -160.5s-94 -67.5 -164 -67.5c-36.667 0 -74.667 7.16699 -114 21.5s-73.5 30.666 -102.5 48.999s-62.167 38.166 -99.5 59.499s-70 36.666 -98 45.999
c-28.667 11.333 -62 17 -100 17c-38.667 0 -76.334 -7 -113.001 -21c-31.333 -54 -65.666 -96.167 -102.999 -126.5s-74 -45.5 -110 -45.5c-21.333 0 -32 7 -32 21c0 20 19.667 47.333 59 82s81 60 125 76c9.33301 44 15.5 92.167 18.5 144.5s4.5 130.166 4.5 233.499v80
h-158v41h158v164h-158v41h158v45c0 405.333 151.333 608 454 608c80.667 0 145 -18.333 193 -55c40.667 -32.667 61 -70.334 61 -113.001c0 -28.667 -9.5 -52.5 -28.5 -71.5s-41.5 -28.5 -67.5 -28.5c-24.667 0 -46.5 8.66699 -65.5 26s-28.5 39.333 -28.5 66
c0 47.333 22.333 79.333 67 96c-2.66699 13.333 -17.167 25 -43.5 35s-54.166 15 -83.499 15c-26 0 -49.833 -2.33301 -71.5 -7s-40.667 -12.167 -57 -22.5s-31.166 -21.333 -44.499 -33s-24.833 -27.167 -34.5 -46.5s-18 -37.333 -25 -54s-12.667 -37.834 -17 -63.501
s-7.83301 -48.334 -10.5 -68.001s-4.5 -44.667 -5.5 -75s-1.66699 -55.666 -2 -75.999s-0.5 -46.833 -0.5 -79.5v-98h297v-41h-297v-164h297v-41h-298c-2.66699 -81.333 -14.5 -154 -35.5 -218s-53.167 -134 -96.5 -210c58 27.333 116.667 41 176 41
c46 0 114.167 -15.333 204.5 -46s162.166 -46 215.499 -46c46 0 80.667 11.167 104 33.5s35 50.166 35 83.499c0 46 -15.667 84.167 -47 114.5s-73.666 50.833 -126.999 61.5z" />
    <glyph glyph-name="currency" unicode="&#xa4;" horiz-adv-x="1096" 
d="M942 950l-92 -92c57.333 -72.667 86 -154 86 -244c0 -92 -28.667 -173 -86 -243l90 -88l-57 -60l-90 90c-73.333 -57.333 -154.666 -86 -243.999 -86c-92.667 0 -174 28 -244 84l-88 -88l-59 60l88 88c-57.333 70 -86 151 -86 243c0 92.667 29.333 174.667 88 246l-90 90
l57 58l90 -90c71.333 57.333 152.666 86 243.999 86c90.667 0 172 -29.667 244 -89l92 93zM549 928c-84 0 -155.833 -31 -215.5 -93s-89.5 -135.667 -89.5 -221c0 -84.667 30 -157.667 90 -219s131.667 -92 215 -92c82.667 0 153.834 30.5 213.501 91.5
s89.5 134.167 89.5 219.5c0 84.667 -29.833 158.167 -89.5 220.5s-130.834 93.5 -213.501 93.5z" />
    <glyph glyph-name="yen" unicode="&#xa5;" horiz-adv-x="1325" 
d="M876 1409l-0.00292969 41.001c78 -4 156.667 -6 236 -6c61.333 0 112.333 2 153 6v-41c-27.333 -6 -54 -23.167 -80 -51.5s-54 -71.833 -84 -130.5l-313 -621h279v-41h-287v-164h287v-41h-287v-143c0 -38.667 1.83301 -68.5 5.5 -89.5s12.167 -38.167 25.5 -51.5
s29.833 -22.166 49.5 -26.499s48.167 -7.16602 85.5 -8.49902v-41c-64 4 -150.667 6 -260 6c-117.333 0 -205 -2 -263 -6v41c37.333 1.33301 65.833 4.16602 85.5 8.49902s36.167 13.166 49.5 26.499s21.833 30.5 25.5 51.5s5.5 50.833 5.5 89.5v143h-286v41h286v125l-21 39
h-265v41h243l-372 686c-25.333 46 -47.166 76.667 -65.499 92s-36.166 23 -53.499 23v43c53.333 -4 113.333 -6 180 -6c132.667 0 228.334 2 287.001 6v-43c-96 0 -144 -26.333 -144 -79c0 -20 7 -43.667 21 -71l340 -651h2l260 518c37.333 75.333 56 134 56 176
c0 38.667 -15 66.167 -45 82.5s-75.333 25.166 -136 26.499z" />
    <glyph glyph-name="brokenbar" unicode="&#xa6;" horiz-adv-x="459" 
d="M270 786h-82v971h82v-971zM270 -399h-82v1067h82v-1067z" />
    <glyph glyph-name="section" unicode="&#xa7;" horiz-adv-x="1040" 
d="M718 228c49.333 -44 86.668 -89.167 112.001 -135.5s38 -98.166 38 -155.499c0 -96 -32.833 -173.667 -98.5 -233s-152.834 -89 -261.501 -89c-65.333 0 -126 11.667 -182 35c-49.333 20.667 -88 47.5 -116 80.5s-42 67.5 -42 103.5c0 31.333 9.66699 57.666 29 78.999
s45.666 32 78.999 32c32 0 58.833 -10.167 80.5 -30.5s32.5 -46.5 32.5 -78.5c0 -57.333 -29.333 -93.333 -88 -108c11.333 -26 37.333 -44.833 78 -56.5s81.667 -17.5 123 -17.5c76 0 132.167 20.333 168.5 61s54.5 88 54.5 142c0 28.667 -6.16699 57.167 -18.5 85.5
s-27 53.166 -44 74.499s-40.833 45.166 -71.5 71.499s-57.334 47.666 -80.001 63.999l-91 63.5l-35 24c-54.667 37.333 -98.5 69.5 -131.5 96.5s-63.5 56.667 -91.5 89s-48 65.5 -60 99.5s-18 72 -18 114c0 149.333 78.333 267.333 235 354
c-47.333 43.333 -83.333 87.833 -108 133.5s-37 96.834 -37 153.501c0 96 32.833 173.667 98.5 233s153.167 89 262.5 89c61.333 0 122 -11.667 182 -35c48.667 -20.667 87 -47.667 115 -81s42 -68 42 -104c0 -31.333 -9.66699 -57.5 -29 -78.5s-45.666 -31.5 -78.999 -31.5
c-31.333 0 -58 10 -80 30s-33 46 -33 78c0 25.333 7.16699 48 21.5 68s36.5 33.667 66.5 41c-12.667 26 -39 44.833 -79 56.5s-79.667 17.5 -119 17.5c-40.667 0 -76.167 -6.16699 -106.5 -18.5s-53.833 -28.666 -70.5 -48.999s-29 -41.833 -37 -64.5
s-12 -46.334 -12 -71.001c0 -35.333 7.5 -69.166 22.5 -101.499s40.667 -65.166 77 -98.499s66.333 -59 90 -77s61.834 -45 114.501 -81l36 -25c54.667 -37.333 98.5 -69.5 131.5 -96.5s63.5 -56.667 91.5 -89s48 -65.5 60 -99.5s18 -72 18 -114
c0 -146 -80 -262.667 -240 -350zM489.002 397c102.667 -70.667 171.669 -120.667 207.002 -150c101.333 56.667 152 132.667 152 228c0 32.667 -7.33301 64.167 -22 94.5s-37.834 60.666 -69.501 90.999s-61.5 56.166 -89.5 77.499s-66 48.333 -114 81
c-102.667 70.667 -172 121 -208 151c-50 -28 -87.5 -62 -112.5 -102s-37.5 -82.333 -37.5 -127c0 -26.667 5.66699 -53 17 -79s24.833 -49.167 40.5 -69.5s38.167 -43.166 67.5 -68.499s55.166 -46.166 77.499 -62.499z" />
    <glyph glyph-name="dieresis" unicode="&#xa8;" horiz-adv-x="799" 
d="M182 1522c32 0 59.833 -12 83.5 -36s35.5 -51.667 35.5 -83c0 -32.667 -11.833 -60.667 -35.5 -84s-51.5 -35 -83.5 -35c-32.667 0 -60.667 11.667 -84 35s-35 51.333 -35 84c0 32 11.833 59.833 35.5 83.5s51.5 35.5 83.5 35.5zM616 1522c32 0 59.833 -12 83.5 -36
s35.5 -51.667 35.5 -83c0 -32.667 -11.833 -60.667 -35.5 -84s-51.5 -35 -83.5 -35c-32.667 0 -60.5 11.667 -83.5 35s-34.5 51.333 -34.5 84c0 32 11.667 59.833 35 83.5s51 35.5 83 35.5z" />
    <glyph glyph-name="copyright" unicode="&#xa9;" horiz-adv-x="1831" 
d="M915 1602c110.667 0 216.334 -21.5 317.001 -64.5s187.5 -101 260.5 -174s131 -159.833 174 -260.5s64.5 -206.334 64.5 -317.001s-21.5 -216.334 -64.5 -317.001s-101 -187.334 -174 -260.001s-159.833 -130.5 -260.5 -173.5s-206.334 -64.5 -317.001 -64.5
s-216.334 21.5 -317.001 64.5s-187.334 100.833 -260.001 173.5s-130.5 159.334 -173.5 260.001s-64.5 206.334 -64.5 317.001s21.5 216.334 64.5 317.001s100.833 187.5 173.5 260.5s159.334 131 260.001 174s206.334 64.5 317.001 64.5zM915 1536
c-99.333 0 -194.332 -19.833 -284.999 -59.5s-168.667 -93 -234 -160s-117.333 -146.667 -156 -239s-58 -189.5 -58 -291.5c0 -101.333 19.333 -198.166 58 -290.499s90.667 -172 156 -239s143.333 -120.333 234 -160s185.667 -59.5 285 -59.5
c100 0 195.333 19.833 286 59.5s168.667 93 234 160s117.333 146.667 156 239s58 189.166 58 290.499c0 102 -19.333 199.167 -58 291.5s-90.834 172 -156.501 239s-143.667 120.333 -234 160s-185.5 59.5 -285.5 59.5zM1262 530l37.998 -14.001
c-10.667 -35.333 -25.834 -69 -45.501 -101s-44.5 -62.167 -74.5 -90.5s-66.833 -51 -110.5 -68s-91.5 -25.5 -143.5 -25.5c-131.333 0 -240 49.167 -326 147.5s-129 230.166 -129 395.499c0 168 44.333 304.833 133 410.5s204 158.5 346 158.5
c100.667 0 182.667 -23.667 246 -71c57.333 -40 86 -90.667 86 -152c0 -35.333 -10.167 -63.166 -30.5 -83.499s-46.166 -30.5 -77.499 -30.5c-32 0 -58.833 10 -80.5 30s-32.5 46.667 -32.5 80c0 28 7.66699 51 23 69s36.333 30 63 36
c-13.333 24.667 -37.666 45.167 -72.999 61.5s-72.333 24.5 -111 24.5c-67.333 0 -126.333 -26.667 -177 -80c-77.333 -85.333 -116 -228 -116 -428c0 -85.333 7.83301 -159.666 23.5 -222.999s37.334 -113.333 65.001 -150s58.5 -63.667 92.5 -81s71.333 -26 112 -26
c59.333 0 115.5 17 168.5 51s96.5 87.333 130.5 160z" />
    <glyph glyph-name="ordfeminine" unicode="&#xaa;" horiz-adv-x="948" 
d="M547 1235v37.0029c0 59.333 -11.667 102.166 -35 128.499s-58 39.5 -104 39.5c-56.667 0 -107.334 -14.333 -152.001 -43c20 -6 36.667 -17.5 50 -34.5s20 -37.833 20 -62.5c0 -26 -9 -47.5 -27 -64.5s-39 -25.5 -63 -25.5c-30 0 -54 8.5 -72 25.5s-27 39.5 -27 67.5
c0 54 33 97 99 129c66 31.333 141 47 225 47c88 0 151.667 -20.5 191 -61.5s59 -107.167 59 -198.5v-334c0 -28.667 3.83301 -48.5 11.5 -59.5s20.834 -16.5 39.501 -16.5c32.667 0 60.667 11.667 84 35l22 -31c-53.333 -50.667 -114.666 -76 -183.999 -76
c-48.667 0 -83.167 8.16699 -103.5 24.5s-31.5 40.5 -33.5 72.5c-66.667 -64.667 -146.667 -97 -240 -97c-51.333 0 -95.833 13.667 -133.5 41s-56.5 67 -56.5 119c0 22.667 4.66699 43.667 14 63s20.833 35.833 34.5 49.5s33.167 27.5 58.5 41.5s49.166 25.667 71.499 35
s51.5 20.666 87.5 33.999c21.333 8 37.166 14.167 47.499 18.5s24.333 10.666 42 18.999s30.834 15.833 39.501 22.5s16.667 15 24 25s11 20 11 30zM547 874.003l-0.000976562 296.999c-5.33301 -11.333 -15.833 -22.166 -31.5 -32.499s-43.5 -24.5 -83.5 -42.5
c-51.333 -23.333 -88.666 -47.333 -111.999 -72s-35 -54.667 -35 -90c0 -37.333 10.333 -67.5 31 -90.5s47.667 -34.5 81 -34.5c51.333 0 101.333 21.667 150 65z" />
    <glyph glyph-name="guillemotleft" unicode="&#xab;" horiz-adv-x="1028" 
d="M537 1083l34.001 -14.002c-47.333 -127.333 -99 -231.833 -155 -313.5s-121.667 -155.167 -197 -220.5c73.333 -64 138.166 -139.167 194.499 -225.5s108.833 -194.166 157.5 -323.499l-34 -15c-58.667 130.667 -125.5 241.334 -200.5 332.001s-165.167 165 -270.5 223v2
c105.333 58.667 195.5 133.167 270.5 223.5s141.833 200.833 200.5 331.5zM895.001 1083l35.001 -14.001c-48 -127.333 -99.833 -231.833 -155.5 -313.5s-121.167 -155.167 -196.5 -220.5c73.333 -64 138.166 -139 194.499 -225s108.833 -194 157.5 -324l-35 -15
c-58.667 130.667 -125.5 241.334 -200.5 332.001s-165.167 165 -270.5 223v2c105.333 58.667 195.5 133.167 270.5 223.5s141.833 200.833 200.5 331.5z" />
    <glyph glyph-name="logicalnot" unicode="&#xac;" horiz-adv-x="1343" 
d="M1194 338h-74v358h-952v62h1026v-420z" />
    <glyph glyph-name="softhyphen" unicode="&#xad;" horiz-adv-x="1022" 
 />
    <glyph glyph-name="registered" unicode="&#xae;" horiz-adv-x="1389" 
d="M694 1602c103.333 0 199 -25.5 287 -76.5s157.5 -120.5 208.5 -208.5s76.5 -183.667 76.5 -287s-25.5 -198.833 -76.5 -286.5s-120.5 -157 -208.5 -208s-183.667 -76.5 -287 -76.5s-198.833 25.5 -286.5 76.5s-157 120.333 -208 208s-76.5 183.167 -76.5 286.5
s25.5 199 76.5 287s120.333 157.5 208 208.5s183.167 76.5 286.5 76.5zM694 524c88.667 0 170.334 22.833 245.001 68.5s133.5 107.334 176.5 185.001s64.5 161.834 64.5 252.501c0 91.333 -21.5 175.666 -64.5 252.999s-101.833 138.833 -176.5 184.5
s-156.334 68.5 -245.001 68.5s-170.167 -22.833 -244.5 -68.5s-133 -107.167 -176 -184.5s-64.5 -161.666 -64.5 -252.999c0 -90.667 21.5 -174.834 64.5 -252.501s101.833 -139.334 176.5 -185.001s156 -68.5 244 -68.5zM913 930l25.001 -116.999l3 -14.5l3 -14.5
c0.666992 -3.33301 1.66699 -7.5 3 -12.5s2.83301 -8.66699 4.5 -11l5.5 -8c2 -3 4.5 -5 7.5 -6s6.5 -1.5 10.5 -1.5c10 0 18 5.66699 24 17l21 -14c-14 -28.667 -44 -43 -90 -43c-34.667 0 -60.334 6.5 -77.001 19.5s-28.667 34.167 -36 63.5l-35 152
c-8 38.667 -22.333 63.667 -43 75s-66.334 17.666 -137.001 18.999v-207c0 -30.667 2.83301 -50.334 8.5 -59.001s18.5 -14 38.5 -16v-31c-8 0 -24 0.333008 -48 1s-42.667 1 -56 1c-16 0 -36.167 -0.333008 -60.5 -1s-39.833 -1 -46.5 -1v31c20 2 32.833 7.33301 38.5 16
s8.5 28.334 8.5 59.001v449c0 32 -2.83301 52.5 -8.5 61.5s-18.5 14.5 -38.5 16.5v30c16.667 -1.33301 49.667 -2 99 -2c28.667 0 63.667 0.333008 105 1s65 1 71 1c76.667 0 135.334 -14 176.001 -42s61 -67.667 61 -119c0 -92.667 -66 -150.667 -198 -174
c54 -6 92.667 -18.333 116 -37s38.333 -46 45 -82zM602.001 1067l49.001 0.000976562c67.333 0 112.833 11.667 136.5 35s35.5 56.666 35.5 99.999c0 52.667 -10.833 91.167 -32.5 115.5s-58.5 36.5 -110.5 36.5c-32.667 0 -53.834 -4.33301 -63.501 -13
s-14.5 -27 -14.5 -55v-219z" />
    <glyph glyph-name="macron" unicode="&#xaf;" horiz-adv-x="741" 
d="M690 1407h-639v51h639v-51z" />
    <glyph glyph-name="degree" unicode="&#xb0;" horiz-adv-x="682" 
d="M340 1679c69.333 0 128.333 -22.5 177 -67.5s73 -104.167 73 -177.5c0 -74.667 -24.333 -134.667 -73 -180s-107.667 -68 -177 -68c-68 0 -126.333 22.667 -175 68s-73 105.333 -73 180c0 73.333 24.333 132.5 73 177.5s107 67.5 175 67.5zM340 1645
c-50.667 0 -96.167 -19.167 -136.5 -57.5s-60.5 -90.166 -60.5 -155.499c0 -67.333 20 -119.333 60 -156s85.667 -55 137 -55s97.333 18.5 138 55.5s61 88.833 61 155.5c0 65.333 -20.5 117.166 -61.5 155.499s-86.833 57.5 -137.5 57.5z" />
    <glyph glyph-name="plusminus" unicode="&#xb1;" horiz-adv-x="1313" 
d="M680 758h475v-62h-475v-481h-74v481h-477v62h477v483h74v-483zM1176 0h-1026v62h1026v-62z" />
    <glyph glyph-name="twosuperior" unicode="&#xb2;" horiz-adv-x="692" 
d="M104 1366l-29.999 15.9961c25.333 47.333 61.833 86.5 109.5 117.5s105.167 46.5 172.5 46.5c62 0 111.667 -13 149 -39s56 -64 56 -114c0 -31.333 -7.66699 -61.833 -23 -91.5s-36.333 -57.167 -63 -82.5s-53.667 -48.666 -81 -69.999l-89.5 -70
c-32.333 -25.333 -57.5 -47.666 -75.5 -66.999h271c30 0 51 5 63 15s23 28 33 54l35 -6c-18.667 -69.333 -29 -130.666 -31 -183.999c-16.667 4 -42.667 6 -78 6h-450v41c15.333 13.333 42.666 34.5 81.999 63.5s72.333 54.833 99 77.5s55.167 49.667 85.5 81
s53.5 64.333 69.5 99s24 70.334 24 107.001c0 74 -44.333 111 -133 111c-82.667 0 -147.667 -37 -195 -111z" />
    <glyph glyph-name="threesuperior" unicode="&#xb3;" horiz-adv-x="664" 
d="M88 1368l-31.002 15.998c25.333 47.333 62 86.5 110 117.5s107 46.5 177 46.5c62.667 0 112.834 -13 150.501 -39s56.5 -62.667 56.5 -110c0 -45.333 -17.5 -84.833 -52.5 -118.5s-81.167 -58.5 -138.5 -74.5c66.667 -1.33301 123 -18.166 169 -50.499
s69 -76.833 69 -133.5c0 -60.667 -27.5 -115.167 -82.5 -163.5s-122.5 -84.666 -202.5 -108.999s-162.333 -36.5 -247 -36.5v35c107.333 3.33301 202 31.5 284 84.5s123 116.167 123 189.5c0 46.667 -13.5 84.834 -40.5 114.501s-63.167 45.5 -108.5 47.5
c-4.66699 -2 -11.667 -5.5 -21 -10.5s-16 -8.33301 -20 -10s-9.16699 -3.5 -15.5 -5.5s-12.166 -3 -17.499 -3c-22 0 -33 8.33301 -33 25c0 21.333 30 30.666 90 27.999c41.333 17.333 70.833 40 88.5 68s26.5 56 26.5 84c0 36 -12.667 64.833 -38 86.5s-59 32.5 -101 32.5
c-84.667 0 -149.667 -37 -195 -111z" />
    <glyph glyph-name="acute" unicode="&#xb4;" horiz-adv-x="457" 
d="M63 1227l-21.999 18.002c44 69.333 87.333 145.166 130 227.499s73.667 136.166 93 161.499c23.333 30.667 49.333 46 78 46c17.333 0 32.333 -5 45 -15c18.667 -15.333 28 -34.333 28 -57c0 -22 -9.33301 -45.333 -28 -70c-20 -25.333 -64.833 -68.5 -134.5 -129.5
s-132.834 -121.5 -189.501 -181.5z" />
    <glyph glyph-name="paragraph" unicode="&#xb6;" horiz-adv-x="1321" 
d="M889 -133l0.000976562 105.998c-118 0 -223.5 12.667 -316.5 38s-170.5 60.333 -232.5 105s-113.333 99.334 -154 164.001s-69.834 134.5 -87.501 209.5s-26.5 157.5 -26.5 247.5c0 140 28.5 263.5 85.5 370.5s141.333 191.167 253 252.5s243.167 92 394.5 92
c38.667 0 92.167 -1.16699 160.5 -3.5s117.833 -3.5 148.5 -3.5c48 0 89 1.66699 123 5v-39c-63.333 -2.66699 -105.5 -14.5 -126.5 -35.5s-31.5 -55.5 -31.5 -103.5v-1426c0 -51.333 4.5 -88.666 13.5 -111.999s24.333 -39.333 46 -48s57.167 -14 106.5 -16v-41
c-63.333 4 -150 6 -260 6c-136 0 -237 -2 -303 -6v41c84 2.66699 139.5 17.5 166.5 44.5s40.5 77.833 40.5 152.5zM891.001 97.998l-0.000976562 1245c-4.66699 0 -11.667 -26 -21 -78s-18.5 -126.333 -27.5 -223s-14.167 -194 -15.5 -292
c-96 0 -190.833 -2.16699 -284.5 -6.5s-165.167 -9 -214.5 -14s-74 -8.5 -74 -10.5c0 -2.66699 24.833 -6.33398 74.5 -11.001s120.834 -8.83398 213.501 -12.501s187.667 -5.5 285 -5.5c1.33301 -102 6.5 -201.167 15.5 -297.5s18.167 -169.5 27.5 -219.5
s16.333 -75 21 -75z" />
    <glyph glyph-name="periodcentered" unicode="&#xb7;" horiz-adv-x="541" 
d="M270 679c36 0 66.833 -12.833 92.5 -38.5s38.5 -56.5 38.5 -92.5c0 -35.333 -12.833 -66 -38.5 -92s-56.5 -39 -92.5 -39s-66.833 13 -92.5 39s-38.5 56.667 -38.5 92c0 36 12.833 66.833 38.5 92.5s56.5 38.5 92.5 38.5z" />
    <glyph glyph-name="cedilla" unicode="&#xb8;" horiz-adv-x="467" 
d="M229 12l-53 -159c40.667 9.33301 81 14 121 14c38.667 0 69.167 -8.5 91.5 -25.5s33.5 -40.5 33.5 -70.5c0 -36 -12.833 -66.333 -38.5 -91s-55.167 -41.667 -88.5 -51s-68.333 -14 -105 -14c-70 0 -126.667 7.66699 -170 23l9 36c28 -4 53.667 -6 77 -6
c49.333 0 92.5 7.16699 129.5 21.5s55.5 37.833 55.5 70.5c0 38.667 -28.667 58 -86 58c-39.333 0 -73 -5 -101 -15l70 209h55z" />
    <glyph glyph-name="onesuperior" unicode="&#xb9;" horiz-adv-x="539" 
d="M365 1542v-503.999c0 -38.667 10.167 -65 30.5 -79s55.833 -21 106.5 -21v-43c-52 2.66699 -118.333 4 -199 4c-88.667 0 -161.667 -1.33301 -219 -4v43c50.667 0 88.667 7.16699 114 21.5s38 40.5 38 78.5v265c0 57.333 -10.833 93.833 -32.5 109.5
s-66.167 23.5 -133.5 23.5v43c70 1.33301 127.5 6.66602 172.5 15.999s85.833 25 122.5 47z" />
    <glyph glyph-name="ordmasculine" unicode="&#xba;" horiz-adv-x="930" 
d="M465 1479c62 0 119.833 -13.5 173.5 -40.5s98.5 -69.333 134.5 -127s54 -125.5 54 -203.5s-18 -145.833 -54 -203.5s-80.833 -100 -134.5 -127s-111.5 -40.5 -173.5 -40.5c-36.667 0 -72.334 5 -107.001 15s-67.5 25.167 -98.5 45.5s-58.167 45 -81.5 74
s-41.833 63.833 -55.5 104.5s-20.5 84.667 -20.5 132s6.83301 91.333 20.5 132s32.167 75.5 55.5 104.5s50.5 53.667 81.5 74s63.833 35.5 98.5 45.5s70.334 15 107.001 15zM465 1442c-56.667 0 -103 -27.5 -139 -82.5s-54 -138.833 -54 -251.5s18 -196.5 54 -251.5
s82.333 -82.5 139 -82.5c56 0 102 27.5 138 82.5s54 138.833 54 251.5s-18 196.5 -54 251.5s-82 82.5 -138 82.5z" />
    <glyph glyph-name="guillemotright" unicode="&#xbb;" horiz-adv-x="1026" 
d="M98 1067l34.998 14.001c58.667 -130.667 125.5 -241.167 200.5 -331.5s165.167 -164.833 270.5 -223.5v-2c-105.333 -58.667 -195.5 -133.167 -270.5 -223.5s-141.833 -200.833 -200.5 -331.5l-35 15c48 127.333 99.833 231.666 155.5 312.999s121.5 155 197.5 221
c-73.333 64 -138.166 139 -194.499 225s-109.166 194 -158.499 324zM456.998 1067l34.999 14c58 -130.667 124.5 -241.167 199.5 -331.5s165.5 -164.833 271.5 -223.5v-2c-106 -58.667 -196.5 -133.167 -271.5 -223.5s-141.5 -200.833 -199.5 -331.5l-35 15
c47.333 126.667 98.833 230.834 154.5 312.501s121.5 155.5 197.5 221.5c-73.333 64 -138.166 139.167 -194.499 225.5s-108.833 194.166 -157.5 323.499z" />
    <glyph glyph-name="onequarter" unicode="&#xbc;" horiz-adv-x="1419" 
d="M1368 1661l-1198 -1774l-39 27l1198 1774zM117 895v43.001c50.667 0 88.667 7.16699 114 21.5s38 40.5 38 78.5v265c0 57.333 -10.833 93.833 -32.5 109.5s-66.167 23.5 -133.5 23.5v43c70 1.33301 127.5 6.66602 172.5 15.999s85.833 25 122.5 47v-504
c0 -38.667 10.167 -65 30.5 -79s55.833 -21 106.5 -21v-43c-52 2.66699 -118.333 4 -199 4c-88.667 0 -161.667 -1.33301 -219 -4zM1125 121.001h16.001c30.667 0 51.667 5 63 15s22.333 28 33 54l35 -6c-16.667 -57.333 -26.334 -108.333 -29.001 -153
c-16 4 -41.667 6 -77 6h-41v-240h-115v240h-397v43l469 541h43v-500zM1010 121.001v367l-316 -367h316z" />
    <glyph glyph-name="onehalf" unicode="&#xbd;" horiz-adv-x="1434" 
d="M1335 1661l-1198 -1774l-39 27l1198 1774zM414 1542v-503.999c0 -38.667 10.167 -65 30.5 -79s55.833 -21 106.5 -21v-43c-52 2.66699 -118.333 4 -199 4c-88.667 0 -161.667 -1.33301 -219 -4v43c50.667 0 88.667 7.16699 114 21.5s38 40.5 38 78.5v265
c0 57.333 -10.833 93.833 -32.5 109.5s-66.167 23.5 -133.5 23.5v43c70 1.33301 127.5 6.66602 172.5 15.999s85.833 25 122.5 47zM827 471.001l-29.999 15.9961c25.333 47.333 61.833 86.5 109.5 117.5s105.167 46.5 172.5 46.5c62 0 111.667 -13 149 -39s56 -64 56 -114
c0 -31.333 -7.66699 -61.833 -23 -91.5s-36.333 -57.167 -63 -82.5s-53.667 -48.666 -81 -69.999l-89.5 -70c-32.333 -25.333 -57.5 -47.666 -75.5 -66.999h271c30 0 51 5 63 15s23 28 33 54l35 -6c-18.667 -69.333 -29 -130.666 -31 -183.999c-16.667 4 -42.667 6 -78 6
h-450v41c15.333 13.333 42.666 34.5 81.999 63.5s72.333 54.833 99 77.5s55.167 49.667 85.5 81s53.5 64.333 69.5 99s24 70.334 24 107.001c0 74 -44.333 111 -133 111c-82.667 0 -147.667 -37 -195 -111z" />
    <glyph glyph-name="threequarters" unicode="&#xbe;" horiz-adv-x="1524" 
d="M1464 1661l-1198 -1774l-39 27l1198 1774zM113 713l-0.00195312 34.998c107.333 3.33301 202 31.5 284 84.5s123 116.167 123 189.5c0 46.667 -13.5 84.834 -40.5 114.501s-63.167 45.5 -108.5 47.5c-4.66699 -2 -11.667 -5.5 -21 -10.5s-16 -8.33301 -20 -10
s-9.16699 -3.5 -15.5 -5.5s-12.166 -3 -17.499 -3c-22 0 -33 8.33301 -33 25c0 21.333 30 30.666 90 27.999c41.333 17.333 70.833 40 88.5 68s26.5 56 26.5 84c0 36 -12.667 64.833 -38 86.5s-59 32.5 -101 32.5c-85.333 0 -150.333 -37 -195 -111l-31 16
c25.333 47.333 62 86.5 110 117.5s107 46.5 177 46.5c62.667 0 112.834 -13 150.501 -39s56.5 -62.667 56.5 -110c0 -45.333 -17.5 -84.833 -52.5 -118.5s-81.167 -58.5 -138.5 -74.5c66.667 -1.33301 123 -18.166 169 -50.499s69 -76.833 69 -133.5
c0 -60.667 -27.5 -115.167 -82.5 -163.5s-122.5 -84.666 -202.5 -108.999s-162.333 -36.5 -247 -36.5zM1221 120.998h16.001c30.667 0 51.667 5 63 15s22.333 28 33 54l35 -6c-16.667 -57.333 -26.334 -108.333 -29.001 -153c-16 4 -41.667 6 -77 6h-41v-240h-115v240h-397
v43l469 541h43v-500zM1106 120.998v367l-316 -367h316z" />
    <glyph glyph-name="questiondown" unicode="&#xbf;" horiz-adv-x="928" 
d="M543 1085c36 0 66.833 -12.833 92.5 -38.5s38.5 -56.5 38.5 -92.5c0 -35.333 -12.833 -66 -38.5 -92s-56.5 -39 -92.5 -39s-66.833 13 -92.5 39s-38.5 56.667 -38.5 92c0 36 12.833 66.833 38.5 92.5s56.5 38.5 92.5 38.5zM565 655l0.000976562 -276.001
c-66 -22.667 -120.667 -48 -164 -76s-76 -58.667 -98 -92s-37 -66 -45 -98s-12 -69 -12 -111c0 -117.333 25.333 -204.333 76 -261s120.667 -85 210 -85c95.333 0 162.333 17.667 201 53c-26.667 5.33301 -47.667 16.833 -63 34.5s-23 41.167 -23 70.5
c0 33.333 10.833 60 32.5 80s48.5 30 80.5 30c31.333 0 57.166 -10.167 77.499 -30.5s30.5 -46.166 30.5 -77.499c0 -56.667 -32 -104 -96 -142c-67.333 -39.333 -160 -59 -278 -59c-129.333 0 -233.5 31.167 -312.5 93.5s-118.5 147.166 -118.5 254.499
s41.5 198.333 124.5 273s195.167 128.334 336.5 161.001v258h41z" />
    <glyph glyph-name="Agrave" unicode="&#xc0;" horiz-adv-x="1290" 
d="M770 1608l-13.9971 -27.002c-74.667 38 -155.334 73.833 -242.001 107.5s-143.334 58.5 -170.001 74.5c-36 24 -54 51 -54 81c0 12.667 3.66699 25.334 11 38.001c15.333 22.667 36.333 34 63 34c20.667 0 41.334 -6.66699 62.001 -20
c27.333 -17.333 75.166 -57.166 143.499 -119.499s135.166 -118.5 200.499 -168.5zM662.003 1460l499.001 -1288c33.333 -84.667 80.666 -128.334 141.999 -131.001v-41c-56 4 -129.333 6 -220 6c-116.667 0 -204 -2 -262 -6v41c52 2 89.167 8.33301 111.5 19
s33.5 29.667 33.5 57c0 23.333 -8 55.333 -24 96l-126 336h-494l-84 -217c-27.333 -69.333 -41 -125.333 -41 -168c0 -43.333 14.5 -74.333 43.5 -93s73.833 -28.667 134.5 -30v-41c-78 4 -156.667 6 -236 6c-61.333 0 -112.333 -2 -153 -6v41
c68 15.333 121.667 74.666 161 177.999l482 1241h33zM801.004 590l-229 611l-235 -611h464z" />
    <glyph glyph-name="Aacute" unicode="&#xc1;" horiz-adv-x="1290" 
d="M522 1581l-13.9971 27.002c65.333 50 132.166 106.167 200.499 168.5s116.166 102.166 143.499 119.499c20.667 13.333 41.334 20 62.001 20c26.667 0 47.667 -11.333 63 -34c7.33301 -12.667 11 -25.334 11 -38.001c0 -30 -18 -57 -54 -81
c-26.667 -16 -83.334 -40.833 -170.001 -74.5s-167.334 -69.5 -242.001 -107.5zM662.003 1460l499.001 -1288c33.333 -84.667 80.666 -128.334 141.999 -131.001v-41c-56 4 -129.333 6 -220 6c-116.667 0 -204 -2 -262 -6v41c52 2 89.167 8.33301 111.5 19
s33.5 29.667 33.5 57c0 23.333 -8 55.333 -24 96l-126 336h-494l-84 -217c-27.333 -69.333 -41 -125.333 -41 -168c0 -43.333 14.5 -74.333 43.5 -93s73.833 -28.667 134.5 -30v-41c-78 4 -156.667 6 -236 6c-61.333 0 -112.333 -2 -153 -6v41
c68 15.333 121.667 74.666 161 177.999l482 1241h33zM801.004 590.004l-229 611l-235 -611h464z" />
    <glyph glyph-name="Acircumflex" unicode="&#xc2;" horiz-adv-x="1290" 
d="M1035 1606l-11.001 -29c-82.667 17.333 -163.667 39.166 -243 65.499s-142.333 52.166 -189 77.499c-38.667 -25.333 -90.167 -51.166 -154.5 -77.499s-129.5 -48.166 -195.5 -65.499l-10 29c87.333 30 164.833 69.167 232.5 117.5s117.834 99.166 150.501 152.499h37
c32 -53.333 81.833 -104.166 149.5 -152.499s145.5 -87.5 233.5 -117.5zM661.999 1460l499.001 -1288c33.333 -84.667 80.666 -128.334 141.999 -131.001v-41c-56 4 -129.333 6 -220 6c-116.667 0 -204 -2 -262 -6v41c52 2 89.167 8.33301 111.5 19s33.5 29.667 33.5 57
c0 23.333 -8 55.333 -24 96l-126 336h-494l-84 -217c-27.333 -69.333 -41 -125.333 -41 -168c0 -43.333 14.5 -74.333 43.5 -93s73.833 -28.667 134.5 -30v-41c-78 4 -156.667 6 -236 6c-61.333 0 -112.333 -2 -153 -6v41c68 15.333 121.667 74.666 161 177.999l482 1241h33
zM801 590.002l-229 611l-235 -611h464z" />
    <glyph glyph-name="Atilde" unicode="&#xc3;" horiz-adv-x="1290" 
d="M992 1804l30.002 -6c-6 -66 -30.5 -118.667 -73.5 -158s-94.167 -59 -153.5 -59c-28 0 -56.333 5.5 -85 16.5s-55.334 24.167 -80.001 39.5l-74 46c-24.667 15.333 -50.667 28.5 -78 39.5s-54 16.5 -80 16.5c-64 0 -106.333 -38.333 -127 -115l-31 6
c6 66 30.667 118.667 74 158s94.333 59 153 59c34 0 69.5 -8.16699 106.5 -24.5s69.167 -34.333 96.5 -54s58.833 -37.667 94.5 -54s69.167 -24.5 100.5 -24.5c63.333 0 105.666 38 126.999 114zM662.002 1460l499.001 -1288
c33.333 -84.667 80.666 -128.334 141.999 -131.001v-41c-56 4 -129.333 6 -220 6c-116.667 0 -204 -2 -262 -6v41c52 2 89.167 8.33301 111.5 19s33.5 29.667 33.5 57c0 23.333 -8 55.333 -24 96l-126 336h-494l-84 -217c-27.333 -69.333 -41 -125.333 -41 -168
c0 -43.333 14.5 -74.333 43.5 -93s73.833 -28.667 134.5 -30v-41c-78 4 -156.667 6 -236 6c-61.333 0 -112.333 -2 -153 -6v41c68 15.333 121.667 74.666 161 177.999l482 1241h33zM801.003 590.002l-229 611l-235 -611h464z" />
    <glyph glyph-name="Adieresis" unicode="&#xc4;" horiz-adv-x="1290" 
d="M416 1581c-33.333 0 -61.5 11.5 -84.5 34.5s-34.5 51.167 -34.5 84.5c0 32 11.667 59.833 35 83.5s51.333 35.5 84 35.5c31.333 0 59 -12 83 -36s36 -51.667 36 -83c0 -32.667 -11.833 -60.667 -35.5 -84s-51.5 -35 -83.5 -35zM850 1581c-32.667 0 -60.667 11.667 -84 35
s-35 51.333 -35 84c0 32 11.833 59.833 35.5 83.5s51.5 35.5 83.5 35.5s59.833 -12 83.5 -36s35.5 -51.667 35.5 -83c0 -32.667 -11.833 -60.667 -35.5 -84s-51.5 -35 -83.5 -35zM662 1460l499.001 -1288c33.333 -84.667 80.666 -128.334 141.999 -131.001v-41
c-56 4 -129.333 6 -220 6c-116.667 0 -204 -2 -262 -6v41c52 2 89.167 8.33301 111.5 19s33.5 29.667 33.5 57c0 23.333 -8 55.333 -24 96l-126 336h-494l-84 -217c-27.333 -69.333 -41 -125.333 -41 -168c0 -43.333 14.5 -74.333 43.5 -93s73.833 -28.667 134.5 -30v-41
c-78 4 -156.667 6 -236 6c-61.333 0 -112.333 -2 -153 -6v41c68 15.333 121.667 74.666 161 177.999l482 1241h33zM801.001 590.002l-229 611l-235 -611h464z" />
    <glyph glyph-name="Aring" unicode="&#xc5;" horiz-adv-x="1290" 
d="M633 1520c-54 0 -100.167 17.168 -138.5 51.501s-57.5 79.833 -57.5 136.5c0 55.333 19.167 100.166 57.5 134.499s84.5 51.5 138.5 51.5c55.333 0 102.333 -17 141 -51s58 -79 58 -135c0 -56.667 -19.333 -102.167 -58 -136.5s-85.667 -51.5 -141 -51.5zM633 1851
c-35.333 0 -67.333 -13.167 -96 -39.5s-43 -61.5 -43 -105.5c0 -44.667 14.167 -79.667 42.5 -105s60.5 -38 96.5 -38c37.333 0 70.333 12.667 99 38s43 60.333 43 105c0 44 -14.5 79.167 -43.5 105.5s-61.833 39.5 -98.5 39.5zM662 1460l499.001 -1288
c33.333 -84.667 80.666 -128.334 141.999 -131.001v-41c-56 4 -129.333 6 -220 6c-116.667 0 -204 -2 -262 -6v41c52 2 89.167 8.33301 111.5 19s33.5 29.667 33.5 57c0 23.333 -8 55.333 -24 96l-126 336h-494l-84 -217c-27.333 -69.333 -41 -125.333 -41 -168
c0 -43.333 14.5 -74.333 43.5 -93s73.833 -28.667 134.5 -30v-41c-78 4 -156.667 6 -236 6c-61.333 0 -112.333 -2 -153 -6v41c68 15.333 121.667 74.666 161 177.999l482 1241h33zM801.001 590.003l-229 611l-235 -611h464z" />
    <glyph glyph-name="AE" unicode="&#xc6;" horiz-adv-x="1749" 
d="M1595 410h47.002c-4 -36.667 -6 -86 -6 -148c0 -80 5 -167.333 15 -262c-84.667 4 -227.334 6 -428.001 6c-214.667 0 -378.667 -2 -492 -6v41c38 2 65.167 7.5 81.5 16.5s27.666 25 33.999 48s9.5 60.167 9.5 111.5v492h-358l-299 -496
c-25.333 -42.667 -38 -76 -38 -100s11.667 -41.5 35 -52.5s59 -17.5 107 -19.5v-41c-40.667 4 -102.667 6 -186 6c-57.333 0 -103 -2 -137 -6v41c22 1.33301 44 11.833 66 31.5s47 52.834 75 99.501l718 1184c-10 19.333 -26 32.5 -48 39.5s-55.667 11.5 -101 13.5v41
c40.667 -1.33301 108.334 -2.66602 203.001 -3.99902l82 135h49l-82 -136c75.333 -0.666992 169 -1 281 -1c181.333 0 310.333 2 387 6c-10 -87.333 -15 -168 -15 -242c0 -56 2.33301 -98.333 7 -127h-48c-4.66699 53.333 -9.33398 95.833 -14.001 127.5
s-11.667 61.5 -21 89.5s-21.5 48.833 -36.5 62.5s-33.833 24.167 -56.5 31.5s-51 11 -85 11h-129c-70.667 0 -115.834 -9.83301 -135.501 -29.5s-29.5 -66.5 -29.5 -140.5v-483h149c22.667 0 42.667 4.16699 60 12.5s30.666 17.666 39.999 27.999s17.333 25.166 24 44.499
s11 35 13 47s4.33301 29.5 7 52.5s4.66699 37.833 6 44.5h47c-5.33301 -69.333 -8 -126.333 -8 -171c0 -10.667 0.166992 -24.5 0.5 -41.5s0.5 -29.5 0.5 -37.5c0 -50 4.33301 -133.333 13 -250h-47l-3 24c-7.33301 70 -18.333 118 -33 144
c-23.333 40.667 -63.333 61.334 -120 62.001h-149v-492c0 -74 9.83301 -120.833 29.5 -140.5s64.834 -29.5 135.501 -29.5h150c34 0 62.5 2.16699 85.5 6.5s42.833 14 59.5 29s29.5 29.333 38.5 43s17 37.5 24 71.5s11.833 64.167 14.5 90.5s6.33398 67.166 11.001 122.499z
M856.002 750v483c0 25.333 -1 47 -3 65l-330 -548h333z" />
    <glyph glyph-name="Ccedilla" unicode="&#xc7;" horiz-adv-x="1409" 
d="M1221 492h47c0 -235.333 2.66699 -399.333 8 -492h-47c-3.33301 42.667 -8.83301 73.5 -16.5 92.5s-18.834 28.5 -33.501 28.5c-10.667 0 -24.667 -5.66699 -42 -17c-60 -42 -116.5 -74.167 -169.5 -96.5s-116.833 -34.5 -191.5 -36.5l-41 -118
c40.667 9.33301 81 14 121 14c38.667 0 69.167 -8.5 91.5 -25.5s33.5 -40.5 33.5 -70.5c0 -36 -12.833 -66.333 -38.5 -91s-55.167 -41.667 -88.5 -51s-68 -14 -104 -14c-70 0 -126.667 7.66699 -170 23l8 36c28 -4 54 -6 78 -6c49.333 0 92.333 7.16699 129 21.5
s55 37.833 55 70.5c0 38.667 -28.667 58 -86 58c-38.667 0 -72 -5 -100 -15l56 169c-186.667 8.66699 -335.167 78.334 -445.5 209.001s-165.5 308 -165.5 532c0 150.667 27.667 284.167 83 400.5s132.333 206.333 231 270s211 95.5 337 95.5
c81.333 0 150.833 -11.667 208.5 -35s113.834 -56 168.501 -98c14.667 -12 28 -18 40 -18c28 0 45.333 40.667 52 122h47c-5.33301 -88.667 -8 -245.667 -8 -471h-47c-14.667 89.333 -28.334 153.166 -41.001 191.499s-33.334 75.5 -62.001 111.5
c-41.333 53.333 -93.666 93.333 -156.999 120s-131.666 40 -204.999 40c-134 0 -241.333 -65 -322 -195s-121 -305.333 -121 -526c0 -222.667 43.167 -396.5 129.5 -521.5s197.5 -187.5 333.5 -187.5c68 0 134.333 13 199 39s115 65 151 117c28 37.333 48 77.833 60 121.5
s23.667 111.167 35 202.5z" />
    <glyph glyph-name="Egrave" unicode="&#xc8;" horiz-adv-x="1247" 
d="M764 1608l-13.9971 -27.002c-74.667 38 -155.334 73.833 -242.001 107.5s-143.334 58.5 -170.001 74.5c-36 24 -54 51 -54 81c0 12.667 3.66699 25.334 11 38.001c15.333 22.667 36.333 34 63 34c20.667 0 41.334 -6.66699 62.001 -20
c27.333 -17.333 75.166 -57.166 143.499 -119.499s135.166 -118.5 200.499 -168.5zM1094 409.998l47 -0.00683594c-4 -36.667 -6 -86 -6 -148c0 -77.333 4.66699 -164.666 14 -261.999c-92.667 4 -249 6 -469 6c-262 0 -460 -2 -594 -6v41c49.333 2 84.833 7.33301 106.5 16
s37 24.667 46 48s13.5 60.666 13.5 111.999v1016c0 51.333 -4.5 88.666 -13.5 111.999s-24.333 39.333 -46 48s-57.167 14 -106.5 16v41c134 -4 332 -6 594 -6c200.667 0 343.334 2 428.001 6c-9.33301 -89.333 -14 -170 -14 -242c0 -53.333 2 -95.666 6 -126.999h-47
c-4.66699 44.667 -9.5 80.834 -14.5 108.501s-11.833 54.834 -20.5 81.501s-19 47.334 -31 62.001s-27.667 27.834 -47 39.501s-42 19.667 -68 24s-57.333 6.5 -94 6.5h-170c-70.667 0 -116 -10 -136 -30s-30 -66.667 -30 -140v-483h136c24.667 0 46.5 3 65.5 9
s34.833 15.333 47.5 28s23.167 25.167 31.5 37.5s15.166 28.666 20.499 48.999s9.16602 36.833 11.499 49.5s4.83301 30 7.5 52s4.66699 37 6 45h47c-4.66699 -68 -7 -132.333 -7 -193c0 -13.333 0.166992 -30.666 0.5 -51.999s0.5 -36.666 0.5 -45.999
c0 -69.333 4 -166.333 12 -291h-47c-9.33301 76.667 -17 125.334 -23 146.001c-18.667 66 -57.334 105.667 -116.001 119c-16.667 4 -35.667 6 -57 6h-136v-492c0 -73.333 10 -120 30 -140s65.333 -30 136 -30h150c64.667 0 116.834 5.83301 156.501 17.5
s71.834 32.834 96.501 63.501s42.667 67.167 54 109.5s21 99.833 29 172.5z" />
    <glyph glyph-name="Eacute" unicode="&#xc9;" horiz-adv-x="1247" 
d="M516 1581l-13.9971 27.002c65.333 50 132.166 106.167 200.499 168.5s116.166 102.166 143.499 119.499c20.667 13.333 41.334 20 62.001 20c26.667 0 47.667 -11.333 63 -34c7.33301 -12.667 11 -25.334 11 -38.001c0 -30 -18 -57 -54 -81
c-26.667 -16 -83.334 -40.833 -170.001 -74.5s-167.334 -69.5 -242.001 -107.5zM1094 410.002l47 -0.00683594c-4 -36.667 -6 -86 -6 -148c0 -77.333 4.66699 -164.666 14 -261.999c-92.667 4 -249 6 -469 6c-262 0 -460 -2 -594 -6v41c49.333 2 84.833 7.33301 106.5 16
s37 24.667 46 48s13.5 60.666 13.5 111.999v1016c0 51.333 -4.5 88.666 -13.5 111.999s-24.333 39.333 -46 48s-57.167 14 -106.5 16v41c134 -4 332 -6 594 -6c200.667 0 343.334 2 428.001 6c-9.33301 -89.333 -14 -170 -14 -242c0 -53.333 2 -95.666 6 -126.999h-47
c-4.66699 44.667 -9.5 80.834 -14.5 108.501s-11.833 54.834 -20.5 81.501s-19 47.334 -31 62.001s-27.667 27.834 -47 39.501s-42 19.667 -68 24s-57.333 6.5 -94 6.5h-170c-70.667 0 -116 -10 -136 -30s-30 -66.667 -30 -140v-483h136c24.667 0 46.5 3 65.5 9
s34.833 15.333 47.5 28s23.167 25.167 31.5 37.5s15.166 28.666 20.499 48.999s9.16602 36.833 11.499 49.5s4.83301 30 7.5 52s4.66699 37 6 45h47c-4.66699 -68 -7 -132.333 -7 -193c0 -13.333 0.166992 -30.666 0.5 -51.999s0.5 -36.666 0.5 -45.999
c0 -69.333 4 -166.333 12 -291h-47c-9.33301 76.667 -17 125.334 -23 146.001c-18.667 66 -57.334 105.667 -116.001 119c-16.667 4 -35.667 6 -57 6h-136v-492c0 -73.333 10 -120 30 -140s65.333 -30 136 -30h150c64.667 0 116.834 5.83301 156.501 17.5
s71.834 32.834 96.501 63.501s42.667 67.167 54 109.5s21 99.833 29 172.5z" />
    <glyph glyph-name="Ecircumflex" unicode="&#xca;" horiz-adv-x="1247" 
d="M1029 1606l-11.001 -29c-82.667 17.333 -163.667 39.166 -243 65.499s-142.333 52.166 -189 77.499c-38.667 -25.333 -90.167 -51.166 -154.5 -77.499s-129.5 -48.166 -195.5 -65.499l-10 29c87.333 30 164.833 69.167 232.5 117.5s117.834 99.166 150.501 152.499h37
c32 -53.333 81.833 -104.166 149.5 -152.499s145.5 -87.5 233.5 -117.5zM1094 410l47 -0.00683594c-4 -36.667 -6 -86 -6 -148c0 -77.333 4.66699 -164.666 14 -261.999c-92.667 4 -249 6 -469 6c-262 0 -460 -2 -594 -6v41c49.333 2 84.833 7.33301 106.5 16
s37 24.667 46 48s13.5 60.666 13.5 111.999v1016c0 51.333 -4.5 88.666 -13.5 111.999s-24.333 39.333 -46 48s-57.167 14 -106.5 16v41c134 -4 332 -6 594 -6c200.667 0 343.334 2 428.001 6c-9.33301 -89.333 -14 -170 -14 -242c0 -53.333 2 -95.666 6 -126.999h-47
c-4.66699 44.667 -9.5 80.834 -14.5 108.501s-11.833 54.834 -20.5 81.501s-19 47.334 -31 62.001s-27.667 27.834 -47 39.501s-42 19.667 -68 24s-57.333 6.5 -94 6.5h-170c-70.667 0 -116 -10 -136 -30s-30 -66.667 -30 -140v-483h136c24.667 0 46.5 3 65.5 9
s34.833 15.333 47.5 28s23.167 25.167 31.5 37.5s15.166 28.666 20.499 48.999s9.16602 36.833 11.499 49.5s4.83301 30 7.5 52s4.66699 37 6 45h47c-4.66699 -68 -7 -132.333 -7 -193c0 -13.333 0.166992 -30.666 0.5 -51.999s0.5 -36.666 0.5 -45.999
c0 -69.333 4 -166.333 12 -291h-47c-9.33301 76.667 -17 125.334 -23 146.001c-18.667 66 -57.334 105.667 -116.001 119c-16.667 4 -35.667 6 -57 6h-136v-492c0 -73.333 10 -120 30 -140s65.333 -30 136 -30h150c64.667 0 116.834 5.83301 156.501 17.5
s71.834 32.834 96.501 63.501s42.667 67.167 54 109.5s21 99.833 29 172.5z" />
    <glyph glyph-name="Edieresis" unicode="&#xcb;" horiz-adv-x="1247" 
d="M410 1581c-33.333 0 -61.5 11.5 -84.5 34.5s-34.5 51.167 -34.5 84.5c0 32 11.667 59.833 35 83.5s51.333 35.5 84 35.5c31.333 0 59 -12 83 -36s36 -51.667 36 -83c0 -32.667 -11.833 -60.667 -35.5 -84s-51.5 -35 -83.5 -35zM844 1581c-32.667 0 -60.667 11.667 -84 35
s-35 51.333 -35 84c0 32 11.833 59.833 35.5 83.5s51.5 35.5 83.5 35.5s59.833 -12 83.5 -36s35.5 -51.667 35.5 -83c0 -32.667 -11.833 -60.667 -35.5 -84s-51.5 -35 -83.5 -35zM1094 410l47 -0.00683594c-4 -36.667 -6 -86 -6 -148
c0 -77.333 4.66699 -164.666 14 -261.999c-92.667 4 -249 6 -469 6c-262 0 -460 -2 -594 -6v41c49.333 2 84.833 7.33301 106.5 16s37 24.667 46 48s13.5 60.666 13.5 111.999v1016c0 51.333 -4.5 88.666 -13.5 111.999s-24.333 39.333 -46 48s-57.167 14 -106.5 16v41
c134 -4 332 -6 594 -6c200.667 0 343.334 2 428.001 6c-9.33301 -89.333 -14 -170 -14 -242c0 -53.333 2 -95.666 6 -126.999h-47c-4.66699 44.667 -9.5 80.834 -14.5 108.501s-11.833 54.834 -20.5 81.501s-19 47.334 -31 62.001s-27.667 27.834 -47 39.501
s-42 19.667 -68 24s-57.333 6.5 -94 6.5h-170c-70.667 0 -116 -10 -136 -30s-30 -66.667 -30 -140v-483h136c24.667 0 46.5 3 65.5 9s34.833 15.333 47.5 28s23.167 25.167 31.5 37.5s15.166 28.666 20.499 48.999s9.16602 36.833 11.499 49.5s4.83301 30 7.5 52
s4.66699 37 6 45h47c-4.66699 -68 -7 -132.333 -7 -193c0 -13.333 0.166992 -30.666 0.5 -51.999s0.5 -36.666 0.5 -45.999c0 -69.333 4 -166.333 12 -291h-47c-9.33301 76.667 -17 125.334 -23 146.001c-18.667 66 -57.334 105.667 -116.001 119c-16.667 4 -35.667 6 -57 6
h-136v-492c0 -73.333 10 -120 30 -140s65.333 -30 136 -30h150c64.667 0 116.834 5.83301 156.501 17.5s71.834 32.834 96.501 63.501s42.667 67.167 54 109.5s21 99.833 29 172.5z" />
    <glyph glyph-name="Igrave" unicode="&#xcc;" 
d="M485 1608l-13.9971 -27.002c-74.667 38 -155.334 73.833 -242.001 107.5s-143.334 58.5 -170.001 74.5c-36 24 -54 51 -54 81c0 12.667 3.66699 25.334 11 38.001c15.333 22.667 36.333 34 63 34c20.667 0 41.334 -6.66699 62.001 -20
c27.333 -17.333 75.166 -57.166 143.499 -119.499s135.166 -118.5 200.499 -168.5zM608.003 1450l-0.000976562 -41c-49.333 -2 -84.833 -7.33301 -106.5 -16s-37 -24.667 -46 -48s-13.5 -60.666 -13.5 -111.999v-1016c0 -51.333 4.5 -88.666 13.5 -111.999
s24.333 -39.333 46 -48s57.167 -14 106.5 -16v-41c-62.667 4 -149.334 6 -260.001 6c-117.333 0 -204.666 -2 -261.999 -6v41c49.333 2 84.833 7.33301 106.5 16s37 24.667 46 48s13.5 60.666 13.5 111.999v1016c0 51.333 -4.5 88.666 -13.5 111.999s-24.333 39.333 -46 48
s-57.167 14 -106.5 16v41c56.667 -4 144 -6 262 -6c110.667 0 197.334 2 260.001 6z" />
    <glyph glyph-name="Iacute" unicode="&#xcd;" 
d="M237 1581l-13.9971 27.002c65.333 50 132.166 106.167 200.499 168.5s116.166 102.166 143.499 119.499c20.667 13.333 41.334 20 62.001 20c26.667 0 47.667 -11.333 63 -34c7.33301 -12.667 11 -25.334 11 -38.001c0 -30 -18 -57 -54 -81
c-26.667 -16 -83.334 -40.833 -170.001 -74.5s-167.334 -69.5 -242.001 -107.5zM608.003 1450l-0.000976562 -41c-49.333 -2 -84.833 -7.33301 -106.5 -16s-37 -24.667 -46 -48s-13.5 -60.666 -13.5 -111.999v-1016c0 -51.333 4.5 -88.666 13.5 -111.999
s24.333 -39.333 46 -48s57.167 -14 106.5 -16v-41c-62.667 4 -149.334 6 -260.001 6c-117.333 0 -204.666 -2 -261.999 -6v41c49.333 2 84.833 7.33301 106.5 16s37 24.667 46 48s13.5 60.666 13.5 111.999v1016c0 51.333 -4.5 88.666 -13.5 111.999s-24.333 39.333 -46 48
s-57.167 14 -106.5 16v41c56.667 -4 144 -6 262 -6c110.667 0 197.334 2 260.001 6z" />
    <glyph glyph-name="Icircumflex" unicode="&#xce;" 
d="M330 1876h36.999c32 -53.333 81.833 -104.166 149.5 -152.499s145.5 -87.5 233.5 -117.5l-11 -29c-82.667 17.333 -163.667 39.166 -243 65.499s-142.333 52.166 -189 77.499c-38.667 -25.333 -90.167 -51.166 -154.5 -77.499s-129.5 -48.166 -195.5 -65.499l-10 29
c87.333 30 164.833 69.167 232.5 117.5s117.834 99.166 150.501 152.499zM607.999 1450l-0.000976562 -41c-49.333 -2 -84.833 -7.33301 -106.5 -16s-37 -24.667 -46 -48s-13.5 -60.666 -13.5 -111.999v-1016c0 -51.333 4.5 -88.666 13.5 -111.999s24.333 -39.333 46 -48
s57.167 -14 106.5 -16v-41c-62.667 4 -149.334 6 -260.001 6c-117.333 0 -204.666 -2 -261.999 -6v41c49.333 2 84.833 7.33301 106.5 16s37 24.667 46 48s13.5 60.666 13.5 111.999v1016c0 51.333 -4.5 88.666 -13.5 111.999s-24.333 39.333 -46 48s-57.167 14 -106.5 16
v41c56.667 -4 144 -6 262 -6c110.667 0 197.334 2 260.001 6z" />
    <glyph glyph-name="Idieresis" unicode="&#xcf;" 
d="M131 1819c31.333 0 59 -12 83 -36s36 -51.667 36 -83c0 -32.667 -11.833 -60.667 -35.5 -84s-51.5 -35 -83.5 -35c-32.667 0 -60.667 11.5 -84 34.5s-35 51.167 -35 84.5c0 32 11.667 59.833 35 83.5s51.333 35.5 84 35.5zM565 1819c32 0 59.833 -12 83.5 -36
s35.5 -51.667 35.5 -83c0 -32.667 -11.833 -60.667 -35.5 -84s-51.5 -35 -83.5 -35c-32.667 0 -60.667 11.667 -84 35s-35 51.333 -35 84c0 32 11.833 59.833 35.5 83.5s51.5 35.5 83.5 35.5zM608 1450l-0.000976562 -41c-49.333 -2 -84.833 -7.33301 -106.5 -16
s-37 -24.667 -46 -48s-13.5 -60.666 -13.5 -111.999v-1016c0 -51.333 4.5 -88.666 13.5 -111.999s24.333 -39.333 46 -48s57.167 -14 106.5 -16v-41c-62.667 4 -149.334 6 -260.001 6c-117.333 0 -204.666 -2 -261.999 -6v41c49.333 2 84.833 7.33301 106.5 16
s37 24.667 46 48s13.5 60.666 13.5 111.999v1016c0 51.333 -4.5 88.666 -13.5 111.999s-24.333 39.333 -46 48s-57.167 14 -106.5 16v41c56.667 -4 144 -6 262 -6c110.667 0 197.334 2 260.001 6z" />
    <glyph glyph-name="Eth" unicode="&#xd0;" horiz-adv-x="1483" 
d="M88 1409l0.00488281 41.002c73.333 -4.66699 140 -7 200 -7c5.33301 0 13.666 0.166992 24.999 0.5s19.666 0.5 24.999 0.5c188 4 291 6 309 6c241.333 0 422.166 -60.333 542.499 -181s180.5 -296.667 180.5 -528c0 -226 -65.333 -406 -196 -540
s-312.334 -201 -545.001 -201c-18.667 0 -63.334 1 -134.001 3s-121.667 3 -153 3c-112 0 -196.667 -2 -254 -6v41c49.333 2 84.833 7.33301 106.5 16s37 24.667 46 48s13.5 60.666 13.5 111.999v492h-166v41h166v483c0 51.333 -4.5 88.666 -13.5 111.999
s-24.333 39.333 -46 48s-57.167 14 -106.5 16zM444.005 709.002l-0.000976562 -495.999c0 -72 9.83301 -119.333 29.5 -142s61.167 -34 124.5 -34c74 0 139.667 6.66699 197 20s106.833 33.833 148.5 61.5s76.834 60.667 105.501 99s51.5 84.166 68.5 137.499
s29.167 110.333 36.5 171s11 129.667 11 207c0 117.333 -9.83301 217.5 -29.5 300.5s-51.667 153.333 -96 211s-103 100.167 -176 127.5s-162.167 41 -267.5 41c-62 0 -102.833 -11.5 -122.5 -34.5s-29.5 -70.167 -29.5 -141.5v-487h285v-41h-285z" />
    <glyph glyph-name="Ntilde" unicode="&#xd1;" horiz-adv-x="1446" 
d="M404 1624l-30.998 6c6 66 30.667 118.667 74 158s94.333 59 153 59c34 0 69.5 -8.16699 106.5 -24.5s69.167 -34.333 96.5 -54s58.833 -37.667 94.5 -54s69.167 -24.5 100.5 -24.5c63.333 0 105.666 38 126.999 114l30 -6c-6 -66 -30.5 -118.667 -73.5 -158
s-94.167 -59 -153.5 -59c-28 0 -56.333 5.5 -85 16.5s-55.334 24.167 -80.001 39.5l-74 46c-24.667 15.333 -50.667 28.5 -78 39.5s-54 16.5 -80 16.5c-64 0 -106.333 -38.333 -127 -115zM1372 1450l0.000976562 -40.998c-68.667 -2.66699 -113.5 -17.167 -134.5 -43.5
s-31.5 -77.5 -31.5 -153.5v-1222h-47l-860 1329v-1081c0 -76.667 11.5 -128 34.5 -154s73.5 -40.333 151.5 -43v-41c-49.333 4 -119 6 -209 6c-81.333 0 -144.666 -2 -189.999 -6v41c68.667 2.66699 113.5 17.167 134.5 43.5s31.5 77.5 31.5 153.5v995
c0 51.333 -4.5 88.666 -13.5 111.999s-24.333 39.333 -46 48s-57.167 14 -106.5 16v41c44.667 -4 108 -6 190 -6c62 0 115.333 2 160 6l723 -1114v876c0 40 -2.16699 71.333 -6.5 94s-13.333 42 -27 58s-32.334 27.167 -56.001 33.5s-55.834 10.166 -96.501 11.499v41
c48.667 -4 118.334 -6 209.001 -6c81.333 0 144.666 2 189.999 6z" />
    <glyph glyph-name="Ograve" unicode="&#xd2;" horiz-adv-x="1518" 
d="M893 1608l-13.9971 -27.002c-74.667 38 -155.334 73.833 -242.001 107.5s-143.334 58.5 -170.001 74.5c-36 24 -54 51 -54 81c0 12.667 3.66699 25.334 11 38.001c15.333 22.667 36.333 34 63 34c20.667 0 41.334 -6.66699 62.001 -20
c27.333 -17.333 75.166 -57.166 143.499 -119.499s135.166 -118.5 200.499 -168.5zM760.003 1479c197.333 0 354.833 -65.833 472.5 -197.5s176.5 -313.167 176.5 -544.5c0 -150.667 -27.667 -284.167 -83 -400.5s-132.333 -206.333 -231 -270s-211 -95.5 -337 -95.5
c-197.333 0 -354.833 65.833 -472.5 197.5s-176.5 313.167 -176.5 544.5c0 150.667 27.667 284.167 83 400.5s132.333 206.333 231 270s211 95.5 337 95.5zM752.003 1442c-87.333 0 -164.5 -30.5 -231.5 -91.5s-118.333 -146 -154 -255s-53.5 -233.833 -53.5 -374.5
c0 -213.333 43.167 -385.5 129.5 -516.5s194.166 -196.5 323.499 -196.5c87.333 0 164.333 30.5 231 91.5s117.834 146 153.501 255s53.5 233.833 53.5 374.5c0 213.333 -43.167 385.5 -129.5 516.5s-193.833 196.5 -322.5 196.5z" />
    <glyph glyph-name="Oacute" unicode="&#xd3;" horiz-adv-x="1518" 
d="M645 1581l-13.9971 27.002c65.333 50 132.166 106.167 200.499 168.5s116.166 102.166 143.499 119.499c20.667 13.333 41.334 20 62.001 20c26.667 0 47.667 -11.333 63 -34c7.33301 -12.667 11 -25.334 11 -38.001c0 -30 -18 -57 -54 -81
c-26.667 -16 -83.334 -40.833 -170.001 -74.5s-167.334 -69.5 -242.001 -107.5zM760.003 1479c197.333 0 354.833 -65.833 472.5 -197.5s176.5 -313.167 176.5 -544.5c0 -150.667 -27.667 -284.167 -83 -400.5s-132.333 -206.333 -231 -270s-211 -95.5 -337 -95.5
c-197.333 0 -354.833 65.833 -472.5 197.5s-176.5 313.167 -176.5 544.5c0 150.667 27.667 284.167 83 400.5s132.333 206.333 231 270s211 95.5 337 95.5zM752.003 1442c-87.333 0 -164.5 -30.5 -231.5 -91.5s-118.333 -146 -154 -255s-53.5 -233.833 -53.5 -374.5
c0 -213.333 43.167 -385.5 129.5 -516.5s194.166 -196.5 323.499 -196.5c87.333 0 164.333 30.5 231 91.5s117.834 146 153.501 255s53.5 233.833 53.5 374.5c0 213.333 -43.167 385.5 -129.5 516.5s-193.833 196.5 -322.5 196.5z" />
    <glyph glyph-name="Ocircumflex" unicode="&#xd4;" horiz-adv-x="1518" 
d="M738 1876h36.999c32 -53.333 81.833 -104.166 149.5 -152.499s145.5 -87.5 233.5 -117.5l-11 -29c-82.667 17.333 -163.667 39.166 -243 65.499s-142.333 52.166 -189 77.499c-38.667 -25.333 -90.167 -51.166 -154.5 -77.499s-129.5 -48.166 -195.5 -65.499l-10 29
c87.333 30 164.833 69.167 232.5 117.5s117.834 99.166 150.501 152.499zM759.999 1479c197.333 0 354.833 -65.833 472.5 -197.5s176.5 -313.167 176.5 -544.5c0 -150.667 -27.667 -284.167 -83 -400.5s-132.333 -206.333 -231 -270s-211 -95.5 -337 -95.5
c-197.333 0 -354.833 65.833 -472.5 197.5s-176.5 313.167 -176.5 544.5c0 150.667 27.667 284.167 83 400.5s132.333 206.333 231 270s211 95.5 337 95.5zM751.999 1442c-87.333 0 -164.5 -30.5 -231.5 -91.5s-118.333 -146 -154 -255s-53.5 -233.833 -53.5 -374.5
c0 -213.333 43.167 -385.5 129.5 -516.5s194.166 -196.5 323.499 -196.5c87.333 0 164.333 30.5 231 91.5s117.834 146 153.501 255s53.5 233.833 53.5 374.5c0 213.333 -43.167 385.5 -129.5 516.5s-193.833 196.5 -322.5 196.5z" />
    <glyph glyph-name="Otilde" unicode="&#xd5;" horiz-adv-x="1518" 
d="M394 1624l-30.998 6c6 66 30.667 118.667 74 158s94.333 59 153 59c34 0 69.5 -8.16699 106.5 -24.5s69.167 -34.333 96.5 -54s58.833 -37.667 94.5 -54s69.167 -24.5 100.5 -24.5c63.333 0 105.666 38 126.999 114l30 -6c-6 -66 -30.5 -118.667 -73.5 -158
s-94.167 -59 -153.5 -59c-28 0 -56.333 5.5 -85 16.5s-55.334 24.167 -80.001 39.5l-74 46c-24.667 15.333 -50.667 28.5 -78 39.5s-54 16.5 -80 16.5c-64 0 -106.333 -38.333 -127 -115zM760.002 1479c197.333 0 354.833 -65.833 472.5 -197.5s176.5 -313.167 176.5 -544.5
c0 -150.667 -27.667 -284.167 -83 -400.5s-132.333 -206.333 -231 -270s-211 -95.5 -337 -95.5c-197.333 0 -354.833 65.833 -472.5 197.5s-176.5 313.167 -176.5 544.5c0 150.667 27.667 284.167 83 400.5s132.333 206.333 231 270s211 95.5 337 95.5zM752.002 1442
c-87.333 0 -164.5 -30.5 -231.5 -91.5s-118.333 -146 -154 -255s-53.5 -233.833 -53.5 -374.5c0 -213.333 43.167 -385.5 129.5 -516.5s194.166 -196.5 323.499 -196.5c87.333 0 164.333 30.5 231 91.5s117.834 146 153.501 255s53.5 233.833 53.5 374.5
c0 213.333 -43.167 385.5 -129.5 516.5s-193.833 196.5 -322.5 196.5z" />
    <glyph glyph-name="Odieresis" unicode="&#xd6;" horiz-adv-x="1518" 
d="M539 1819c31.333 0 59 -12 83 -36s36 -51.667 36 -83c0 -32.667 -11.833 -60.667 -35.5 -84s-51.5 -35 -83.5 -35c-32.667 0 -60.667 11.5 -84 34.5s-35 51.167 -35 84.5c0 32 11.667 59.833 35 83.5s51.333 35.5 84 35.5zM973 1819c32 0 59.833 -12 83.5 -36
s35.5 -51.667 35.5 -83c0 -32.667 -11.833 -60.667 -35.5 -84s-51.5 -35 -83.5 -35c-32.667 0 -60.667 11.667 -84 35s-35 51.333 -35 84c0 32 11.833 59.833 35.5 83.5s51.5 35.5 83.5 35.5zM760 1479c197.333 0 354.833 -65.833 472.5 -197.5s176.5 -313.167 176.5 -544.5
c0 -150.667 -27.667 -284.167 -83 -400.5s-132.333 -206.333 -231 -270s-211 -95.5 -337 -95.5c-197.333 0 -354.833 65.833 -472.5 197.5s-176.5 313.167 -176.5 544.5c0 150.667 27.667 284.167 83 400.5s132.333 206.333 231 270s211 95.5 337 95.5zM752 1442
c-87.333 0 -164.5 -30.5 -231.5 -91.5s-118.333 -146 -154 -255s-53.5 -233.833 -53.5 -374.5c0 -213.333 43.167 -385.5 129.5 -516.5s194.166 -196.5 323.499 -196.5c87.333 0 164.333 30.5 231 91.5s117.834 146 153.501 255s53.5 233.833 53.5 374.5
c0 213.333 -43.167 385.5 -129.5 516.5s-193.833 196.5 -322.5 196.5z" />
    <glyph glyph-name="multiply" unicode="&#xd7;" horiz-adv-x="1044" 
d="M524 772l355 354l45 -45l-355 -352l355 -354l-45 -45l-355 354l-356 -356l-45 45l356 354l-358 358l45 45z" />
    <glyph glyph-name="Oslash" unicode="&#xd8;" horiz-adv-x="1518" 
d="M1356 1556l-161 -236c68.667 -64 121.5 -145.333 158.5 -244s55.5 -211.667 55.5 -339c0 -150.667 -27.667 -284.167 -83 -400.5s-132.333 -206.333 -231 -270s-211 -95.5 -337 -95.5c-156 0 -288.667 42.333 -398 127l-167 -248l-43 29l172 252
c-142 133.333 -213 327.333 -213 582c0 150.667 27.667 284.167 83 400.5s132.333 206.333 231 270s211 95.5 337 95.5c157.333 0 290 -42.333 398 -127l159 231zM416 249l657 999c-40.667 62 -88.667 109.833 -144 143.5s-114.333 50.5 -177 50.5
c-87.333 0 -164.5 -30.5 -231.5 -91.5s-118.333 -146 -154 -255s-53.5 -233.833 -53.5 -374.5c0 -186 34.333 -343.333 103 -472zM1101 1201l-655.001 -1001c40.667 -62 88.5 -109.5 143.5 -142.5s113.833 -49.5 176.5 -49.5c87.333 0 164.333 30.5 231 91.5
s117.834 146 153.501 255s53.5 233.833 53.5 374.5c0 188 -34.333 345.333 -103 472z" />
    <glyph glyph-name="Ugrave" unicode="&#xd9;" horiz-adv-x="1397" 
d="M858 1608l-13.9971 -27.002c-74.667 38 -155.334 73.833 -242.001 107.5s-143.334 58.5 -170.001 74.5c-36 24 -54 51 -54 81c0 12.667 3.66699 25.334 11 38.001c15.333 22.667 36.333 34 63 34c20.667 0 41.334 -6.66699 62.001 -20
c27.333 -17.333 75.166 -57.166 143.499 -119.499s135.166 -118.5 200.499 -168.5zM1341 1450l0.00195312 -41c-68 -2.66699 -112.5 -17 -133.5 -43s-31.5 -77.333 -31.5 -154v-616c0 -194 -28 -338.667 -84 -434c-34.667 -58.667 -85.167 -105.167 -151.5 -139.5
s-140.833 -51.5 -223.5 -51.5c-150 0 -264.667 37 -344 111c-60 56 -100.333 119.333 -121 190s-31 176.667 -31 318v643c0 38.667 -1.83301 68.5 -5.5 89.5s-12.167 38.167 -25.5 51.5s-29.833 22.166 -49.5 26.499s-48.167 7.16602 -85.5 8.49902v41
c58 -4 145.333 -6 262 -6c110 0 197 2 261 6v-41c-37.333 -1.33301 -65.833 -4.16602 -85.5 -8.49902s-36.167 -13.166 -49.5 -26.499s-21.833 -30.5 -25.5 -51.5s-5.5 -50.833 -5.5 -89.5v-678c0 -52.667 1.33301 -98.167 4 -136.5s7.66699 -78.5 15 -120.5
s18.5 -77.167 33.5 -105.5s34 -54.5 57 -78.5s52.5 -41.833 88.5 -53.5s77.667 -17.5 125 -17.5c75.333 0 139.166 13 191.499 39s92.833 63.667 121.5 113s49.167 104.5 61.5 165.5s18.5 131.833 18.5 212.5v639c0 74 -13.333 124.5 -40 151.5
s-75.334 42.167 -146.001 45.5v41c49.333 -4 119 -6 209 -6c82 0 145.333 2 190 6z" />
    <glyph glyph-name="Uacute" unicode="&#xda;" horiz-adv-x="1397" 
d="M610 1581l-13.9971 27.002c65.333 50 132.166 106.167 200.499 168.5s116.166 102.166 143.499 119.499c20.667 13.333 41.334 20 62.001 20c26.667 0 47.667 -11.333 63 -34c7.33301 -12.667 11 -25.334 11 -38.001c0 -30 -18 -57 -54 -81
c-26.667 -16 -83.334 -40.833 -170.001 -74.5s-167.334 -69.5 -242.001 -107.5zM1341 1450l0.00195312 -41c-68 -2.66699 -112.5 -17 -133.5 -43s-31.5 -77.333 -31.5 -154v-616c0 -194 -28 -338.667 -84 -434c-34.667 -58.667 -85.167 -105.167 -151.5 -139.5
s-140.833 -51.5 -223.5 -51.5c-150 0 -264.667 37 -344 111c-60 56 -100.333 119.333 -121 190s-31 176.667 -31 318v643c0 38.667 -1.83301 68.5 -5.5 89.5s-12.167 38.167 -25.5 51.5s-29.833 22.166 -49.5 26.499s-48.167 7.16602 -85.5 8.49902v41
c58 -4 145.333 -6 262 -6c110 0 197 2 261 6v-41c-37.333 -1.33301 -65.833 -4.16602 -85.5 -8.49902s-36.167 -13.166 -49.5 -26.499s-21.833 -30.5 -25.5 -51.5s-5.5 -50.833 -5.5 -89.5v-678c0 -52.667 1.33301 -98.167 4 -136.5s7.66699 -78.5 15 -120.5
s18.5 -77.167 33.5 -105.5s34 -54.5 57 -78.5s52.5 -41.833 88.5 -53.5s77.667 -17.5 125 -17.5c75.333 0 139.166 13 191.499 39s92.833 63.667 121.5 113s49.167 104.5 61.5 165.5s18.5 131.833 18.5 212.5v639c0 74 -13.333 124.5 -40 151.5
s-75.334 42.167 -146.001 45.5v41c49.333 -4 119 -6 209 -6c82 0 145.333 2 190 6z" />
    <glyph glyph-name="Ucircumflex" unicode="&#xdb;" horiz-adv-x="1397" 
d="M703 1876h36.999c32 -53.333 81.833 -104.166 149.5 -152.499s145.5 -87.5 233.5 -117.5l-11 -29c-82.667 17.333 -163.667 39.166 -243 65.499s-142.333 52.166 -189 77.499c-38.667 -25.333 -90.167 -51.166 -154.5 -77.499s-129.5 -48.166 -195.5 -65.499l-10 29
c87.333 30 164.833 69.167 232.5 117.5s117.834 99.166 150.501 152.499zM1341 1450l0.00195312 -41c-68 -2.66699 -112.5 -17 -133.5 -43s-31.5 -77.333 -31.5 -154v-616c0 -194 -28 -338.667 -84 -434c-34.667 -58.667 -85.167 -105.167 -151.5 -139.5
s-140.833 -51.5 -223.5 -51.5c-150 0 -264.667 37 -344 111c-60 56 -100.333 119.333 -121 190s-31 176.667 -31 318v643c0 38.667 -1.83301 68.5 -5.5 89.5s-12.167 38.167 -25.5 51.5s-29.833 22.166 -49.5 26.499s-48.167 7.16602 -85.5 8.49902v41
c58 -4 145.333 -6 262 -6c110 0 197 2 261 6v-41c-37.333 -1.33301 -65.833 -4.16602 -85.5 -8.49902s-36.167 -13.166 -49.5 -26.499s-21.833 -30.5 -25.5 -51.5s-5.5 -50.833 -5.5 -89.5v-678c0 -52.667 1.33301 -98.167 4 -136.5s7.66699 -78.5 15 -120.5
s18.5 -77.167 33.5 -105.5s34 -54.5 57 -78.5s52.5 -41.833 88.5 -53.5s77.667 -17.5 125 -17.5c75.333 0 139.166 13 191.499 39s92.833 63.667 121.5 113s49.167 104.5 61.5 165.5s18.5 131.833 18.5 212.5v639c0 74 -13.333 124.5 -40 151.5
s-75.334 42.167 -146.001 45.5v41c49.333 -4 119 -6 209 -6c82 0 145.333 2 190 6z" />
    <glyph glyph-name="Udieresis" unicode="&#xdc;" horiz-adv-x="1397" 
d="M504 1819c31.333 0 59 -12 83 -36s36 -51.667 36 -83c0 -32.667 -11.833 -60.667 -35.5 -84s-51.5 -35 -83.5 -35c-33.333 0 -61.5 11.5 -84.5 34.5s-34.5 51.167 -34.5 84.5c0 32 11.667 59.833 35 83.5s51.333 35.5 84 35.5zM938 1819c32 0 59.833 -12 83.5 -36
s35.5 -51.667 35.5 -83c0 -32.667 -11.833 -60.667 -35.5 -84s-51.5 -35 -83.5 -35c-32.667 0 -60.667 11.667 -84 35s-35 51.333 -35 84c0 32 11.833 59.833 35.5 83.5s51.5 35.5 83.5 35.5zM1341 1450l0.00195312 -41c-68 -2.66699 -112.5 -17 -133.5 -43
s-31.5 -77.333 -31.5 -154v-616c0 -194 -28 -338.667 -84 -434c-34.667 -58.667 -85.167 -105.167 -151.5 -139.5s-140.833 -51.5 -223.5 -51.5c-150 0 -264.667 37 -344 111c-60 56 -100.333 119.333 -121 190s-31 176.667 -31 318v643c0 38.667 -1.83301 68.5 -5.5 89.5
s-12.167 38.167 -25.5 51.5s-29.833 22.166 -49.5 26.499s-48.167 7.16602 -85.5 8.49902v41c58 -4 145.333 -6 262 -6c110 0 197 2 261 6v-41c-37.333 -1.33301 -65.833 -4.16602 -85.5 -8.49902s-36.167 -13.166 -49.5 -26.499s-21.833 -30.5 -25.5 -51.5
s-5.5 -50.833 -5.5 -89.5v-678c0 -52.667 1.33301 -98.167 4 -136.5s7.66699 -78.5 15 -120.5s18.5 -77.167 33.5 -105.5s34 -54.5 57 -78.5s52.5 -41.833 88.5 -53.5s77.667 -17.5 125 -17.5c75.333 0 139.166 13 191.499 39s92.833 63.667 121.5 113
s49.167 104.5 61.5 165.5s18.5 131.833 18.5 212.5v639c0 74 -13.333 124.5 -40 151.5s-75.334 42.167 -146.001 45.5v41c49.333 -4 119 -6 209 -6c82 0 145.333 2 190 6z" />
    <glyph glyph-name="Yacute" unicode="&#xdd;" horiz-adv-x="1210" 
d="M512 1581l-13.9971 27.002c65.333 50 132.166 106.167 200.499 168.5s116.166 102.166 143.499 119.499c20.667 13.333 41.334 20 62.001 20c26.667 0 47.667 -11.333 63 -34c7.33301 -12.667 11 -25.334 11 -38.001c0 -30 -18 -57 -54 -81
c-26.667 -16 -83.334 -40.833 -170.001 -74.5s-167.334 -69.5 -242.001 -107.5zM815.003 1409l-0.00292969 41.001c78 -4 156.667 -6 236 -6c60.667 0 111.667 2 153 6v-41c-27.333 -6 -54 -23.167 -80 -51.5s-54 -71.833 -84 -130.5l-321 -637v-373
c0 -38.667 1.83301 -68.5 5.5 -89.5s12.167 -38.167 25.5 -51.5s29.833 -22.166 49.5 -26.499s48.167 -7.16602 85.5 -8.49902v-41c-64 4 -150.667 6 -260 6c-117.333 0 -205 -2 -263 -6v41c37.333 1.33301 65.833 4.16602 85.5 8.49902s36.167 13.166 49.5 26.499
s21.833 30.5 25.5 51.5s5.5 50.833 5.5 89.5v309l-415 766c-25.333 46 -47.166 76.667 -65.499 92s-36.166 23 -53.499 23v43c53.333 -4 113.333 -6 180 -6c132.667 0 228.334 2 287.001 6v-43c-96 0 -144 -26.333 -144 -79c0 -20 7 -43.667 21 -71l341 -653l261 520
c37.333 75.333 56 134 56 176c0 38.667 -15 66.167 -45 82.5s-75.333 25.166 -136 26.499z" />
    <glyph glyph-name="Thorn" unicode="&#xde;" horiz-adv-x="1188" 
d="M442 283v-66c0 -51.333 4.5 -88.666 13.5 -111.999s24.333 -39.333 46 -48s57.167 -14 106.5 -16v-41c-62.667 4 -149.334 6 -260.001 6c-117.333 0 -204.666 -2 -261.999 -6v41c49.333 2 84.833 7.33301 106.5 16s37 24.667 46 48s13.5 60.666 13.5 111.999v1016
c0 51.333 -4.5 88.666 -13.5 111.999s-24.333 39.333 -46 48s-57.167 14 -106.5 16v41c56.667 -4 144 -6 262 -6c110.667 0 197.334 2 260.001 6v-41c-49.333 -2 -84.833 -7.33301 -106.5 -16s-37 -24.667 -46 -48s-13.5 -60.666 -13.5 -111.999v-91
c26.667 0 62 0.5 106 1.5s71.667 1.5 83 1.5c159.333 0 281.333 -37.167 366 -111.5s127 -170.5 127 -288.5c0 -44 -4.83301 -86.5 -14.5 -127.5s-27.334 -82.333 -53.001 -124s-58.167 -77.667 -97.5 -108s-91 -55 -155 -74s-136.667 -28.5 -218 -28.5h-144zM442 324h123
c56.667 0 106.167 7.33301 148.5 22s76.5 34.167 102.5 58.5s47 54.5 63 90.5s26.833 73 32.5 111s8.5 80.333 8.5 127c0 125.333 -26.5 218.833 -79.5 280.5s-139.833 92.5 -260.5 92.5c-30.667 0 -76.667 -0.666992 -138 -2v-780z" />
    <glyph glyph-name="germandbls" unicode="&#xdf;" horiz-adv-x="1196" 
d="M199 223l-0.00390625 879.01c0 174.667 35.667 301.667 107 381s170 119 296 119c116.667 0 206.334 -26 269.001 -78s94 -123.667 94 -215c0 -50 -12.667 -99.5 -38 -148.5s-57 -91.333 -95 -127s-75.667 -65.834 -113 -90.501s-71.666 -43.334 -102.999 -56.001
c66 -15.333 128.5 -38.833 187.5 -70.5s111.333 -69.834 157 -114.501s82 -96.667 109 -156s40.5 -122 40.5 -188c0 -116 -36.333 -209.5 -109 -280.5s-160 -106.5 -262 -106.5c-39.333 0 -77.333 5.83301 -114 17.5s-68.5 31.5 -95.5 59.5s-40.5 61 -40.5 99
c0 33.333 9.5 60.166 28.5 80.499s45.167 30.5 78.5 30.5c31.333 0 57.333 -9 78 -27s31 -42.333 31 -73c0 -52.667 -29.667 -88.334 -89 -107.001c4.66699 -12.667 17.334 -24 38.001 -34s43.667 -15 69 -15s49.5 5.5 72.5 16.5s44.667 28.167 65 51.5
s36.666 56.333 48.999 99s18.5 92.667 18.5 150c0 59.333 -6.83301 117.166 -20.5 173.499s-34 109.5 -61 159.5s-62.667 94.167 -107 132.5s-94.833 66.166 -151.5 83.499c-32.667 -20 -58 -30 -76 -30c-10.667 0 -20.167 3 -28.5 9s-12.5 14.333 -12.5 25
c0 26 15.667 39 47 39c20.667 0 45.334 -5.33301 74.001 -16c67.333 52 115.5 110 144.5 174s43.5 141 43.5 231c0 87.333 -17 154.333 -51 201s-83.667 70 -149 70c-17.333 0 -34 -1.83301 -50 -5.5s-33.333 -11.834 -52 -24.501s-34.667 -29.167 -48 -49.5
s-24.5 -48.833 -33.5 -85.5s-13.5 -79.334 -13.5 -128.001v-1301c-54 19.333 -125 29 -213 29c-41.333 0 -83.666 -2 -126.999 -6v43c58 0 98.5 14.167 121.5 42.5s34.5 74.166 34.5 137.499z" />
    <glyph glyph-name="agrave" unicode="&#xe0;" horiz-adv-x="1020" 
d="M598 1245l-23 -18.002c-56 60 -118.833 120.5 -188.5 181.5s-114.5 104.167 -134.5 129.5c-18.667 24.667 -28 48 -28 70c0 22.667 9.33301 41.667 28 57c12.667 10 27.334 15 44.001 15c29.333 0 55.666 -15.333 78.999 -46c19.333 -25.333 50.333 -79.166 93 -161.499
s86 -158.166 130 -227.499zM655 708.998v127.001c0 79.333 -16.5 133.5 -49.5 162.5s-79.833 43.5 -140.5 43.5c-96.667 0 -164.334 -24.333 -203.001 -73c27.333 -6.66699 50.166 -21.167 68.499 -43.5s27.5 -49.5 27.5 -81.5c0 -34.667 -10.833 -61.834 -32.5 -81.501
s-50.834 -29.5 -87.501 -29.5c-34.667 0 -61.834 11.667 -81.501 35s-29.5 54 -29.5 92c0 53.333 32 102 96 146c78.667 51.333 174.334 77 287.001 77c114 0 196.667 -25.667 248 -77c31.333 -32 52.833 -69.167 64.5 -111.5s17.5 -100.833 17.5 -175.5v-569
c0 -34 4.83301 -58.667 14.5 -74s25.834 -23 48.501 -23c28 0 58.667 14.333 92 43l23 -35c-24 -18 -42.667 -31.333 -56 -40s-31.666 -16.667 -54.999 -24s-48.666 -11 -75.999 -11c-66 0 -111.833 16.5 -137.5 49.5s-38.5 77.167 -38.5 132.5
c-40 -66 -88 -112.833 -144 -140.5s-113 -41.5 -171 -41.5c-74 0 -135.833 19.333 -185.5 58s-74.5 95.667 -74.5 171c0 39.333 7 74.333 21 105s36.833 58.667 68.5 84s65.334 47.5 101.001 66.5s82.167 40.5 139.5 64.5c8.66699 4 23.167 10 43.5 18
s34.666 13.833 42.999 17.5l37.5 16.5c16.667 7.33301 28.5 13.166 35.5 17.499l28 17c11.667 7 20 13.333 25 19s10.5 12.334 16.5 20.001s10.167 15.5 12.5 23.5s3.5 16.333 3.5 25zM655 222.999l-0.00195312 401.995c-10 -15.333 -26.667 -29.666 -50 -42.999
s-72 -38 -146 -74c-28.667 -14 -52.167 -26.667 -70.5 -38s-38.666 -27.166 -60.999 -47.499s-39.166 -45.166 -50.499 -74.499s-17 -62.666 -17 -99.999c0 -59.333 15 -104.166 45 -134.499s69.667 -45.5 119 -45.5c90.667 0 167.667 51.667 231 155z" />
    <glyph glyph-name="aacute" unicode="&#xe1;" horiz-adv-x="1020" 
d="M399 1227l-21.999 18.002c44 69.333 87.333 145.166 130 227.499s73.667 136.166 93 161.499c23.333 30.667 49.333 46 78 46c17.333 0 32.333 -5 45 -15c18.667 -15.333 28 -34.333 28 -57c0 -22 -9.33301 -45.333 -28 -70c-20 -25.333 -64.833 -68.5 -134.5 -129.5
s-132.834 -121.5 -189.501 -181.5zM655.001 709.002v127.001c0 79.333 -16.5 133.5 -49.5 162.5s-79.833 43.5 -140.5 43.5c-96.667 0 -164.334 -24.333 -203.001 -73c27.333 -6.66699 50.166 -21.167 68.499 -43.5s27.5 -49.5 27.5 -81.5
c0 -34.667 -10.833 -61.834 -32.5 -81.501s-50.834 -29.5 -87.501 -29.5c-34.667 0 -61.834 11.667 -81.501 35s-29.5 54 -29.5 92c0 53.333 32 102 96 146c78.667 51.333 174.334 77 287.001 77c114 0 196.667 -25.667 248 -77c31.333 -32 52.833 -69.167 64.5 -111.5
s17.5 -100.833 17.5 -175.5v-569c0 -34 4.83301 -58.667 14.5 -74s25.834 -23 48.501 -23c28 0 58.667 14.333 92 43l23 -35c-24 -18 -42.667 -31.333 -56 -40s-31.666 -16.667 -54.999 -24s-48.666 -11 -75.999 -11c-66 0 -111.833 16.5 -137.5 49.5
s-38.5 77.167 -38.5 132.5c-40 -66 -88 -112.833 -144 -140.5s-113 -41.5 -171 -41.5c-74 0 -135.833 19.333 -185.5 58s-74.5 95.667 -74.5 171c0 39.333 7 74.333 21 105s36.833 58.667 68.5 84s65.334 47.5 101.001 66.5s82.167 40.5 139.5 64.5
c8.66699 4 23.167 10 43.5 18s34.666 13.833 42.999 17.5l37.5 16.5c16.667 7.33301 28.5 13.166 35.5 17.499l28 17c11.667 7 20 13.333 25 19s10.5 12.334 16.5 20.001s10.167 15.5 12.5 23.5s3.5 16.333 3.5 25zM655.001 223.003l-0.00195312 401.995
c-10 -15.333 -26.667 -29.666 -50 -42.999s-72 -38 -146 -74c-28.667 -14 -52.167 -26.667 -70.5 -38s-38.666 -27.166 -60.999 -47.499s-39.166 -45.166 -50.499 -74.499s-17 -62.666 -17 -99.999c0 -59.333 15 -104.166 45 -134.499s69.667 -45.5 119 -45.5
c90.667 0 167.667 51.667 231 155z" />
    <glyph glyph-name="acircumflex" unicode="&#xe2;" horiz-adv-x="1020" 
d="M485 1642h37c28 -69.333 72.5 -135.666 133.5 -198.999s130.5 -114.333 208.5 -153l-16 -28c-74 25.333 -146 56.5 -216 93.5s-126.333 73.833 -169 110.5c-34.667 -36.667 -79.5 -73.5 -134.5 -110.5s-111.167 -68.167 -168.5 -93.5l-17 28
c78 38.667 147.5 89.667 208.5 153s105.5 129.666 133.5 198.999zM655 709v127.001c0 79.333 -16.5 133.5 -49.5 162.5s-79.833 43.5 -140.5 43.5c-96.667 0 -164.334 -24.333 -203.001 -73c27.333 -6.66699 50.166 -21.167 68.499 -43.5s27.5 -49.5 27.5 -81.5
c0 -34.667 -10.833 -61.834 -32.5 -81.501s-50.834 -29.5 -87.501 -29.5c-34.667 0 -61.834 11.667 -81.501 35s-29.5 54 -29.5 92c0 53.333 32 102 96 146c78.667 51.333 174.334 77 287.001 77c114 0 196.667 -25.667 248 -77c31.333 -32 52.833 -69.167 64.5 -111.5
s17.5 -100.833 17.5 -175.5v-569c0 -34 4.83301 -58.667 14.5 -74s25.834 -23 48.501 -23c28 0 58.667 14.333 92 43l23 -35c-24 -18 -42.667 -31.333 -56 -40s-31.666 -16.667 -54.999 -24s-48.666 -11 -75.999 -11c-66 0 -111.833 16.5 -137.5 49.5
s-38.5 77.167 -38.5 132.5c-40 -66 -88 -112.833 -144 -140.5s-113 -41.5 -171 -41.5c-74 0 -135.833 19.333 -185.5 58s-74.5 95.667 -74.5 171c0 39.333 7 74.333 21 105s36.833 58.667 68.5 84s65.334 47.5 101.001 66.5s82.167 40.5 139.5 64.5
c8.66699 4 23.167 10 43.5 18s34.666 13.833 42.999 17.5l37.5 16.5c16.667 7.33301 28.5 13.166 35.5 17.499l28 17c11.667 7 20 13.333 25 19s10.5 12.334 16.5 20.001s10.167 15.5 12.5 23.5s3.5 16.333 3.5 25zM655 223.001l-0.00195312 401.995
c-10 -15.333 -26.667 -29.666 -50 -42.999s-72 -38 -146 -74c-28.667 -14 -52.167 -26.667 -70.5 -38s-38.666 -27.166 -60.999 -47.499s-39.166 -45.166 -50.499 -74.499s-17 -62.666 -17 -99.999c0 -59.333 15 -104.166 45 -134.499s69.667 -45.5 119 -45.5
c90.667 0 167.667 51.667 231 155z" />
    <glyph glyph-name="atilde" unicode="&#xe3;" horiz-adv-x="1020" 
d="M138 1348l-29 13.999c20.667 72 52.5 125.167 95.5 159.5s92.5 51.5 148.5 51.5c27.333 0 52.833 -4.66699 76.5 -14s44.334 -20.5 62.001 -33.5l52 -39.5c17 -13.333 35.5 -24.666 55.5 -33.999s41 -14 63 -14c62 0 114.667 36 158 108l29 -14
c-20.667 -72 -52.5 -125.167 -95.5 -159.5s-91.833 -51.5 -146.5 -51.5c-33.333 0 -65 7.16699 -95 21.5s-54.167 30 -72.5 47s-40.333 32.667 -66 47s-51.5 21.5 -77.5 21.5c-60.667 0 -113.334 -36.667 -158.001 -110zM655 708.999v127.001
c0 79.333 -16.5 133.5 -49.5 162.5s-79.833 43.5 -140.5 43.5c-96.667 0 -164.334 -24.333 -203.001 -73c27.333 -6.66699 50.166 -21.167 68.499 -43.5s27.5 -49.5 27.5 -81.5c0 -34.667 -10.833 -61.834 -32.5 -81.501s-50.834 -29.5 -87.501 -29.5
c-34.667 0 -61.834 11.667 -81.501 35s-29.5 54 -29.5 92c0 53.333 32 102 96 146c78.667 51.333 174.334 77 287.001 77c114 0 196.667 -25.667 248 -77c31.333 -32 52.833 -69.167 64.5 -111.5s17.5 -100.833 17.5 -175.5v-569c0 -34 4.83301 -58.667 14.5 -74
s25.834 -23 48.501 -23c28 0 58.667 14.333 92 43l23 -35c-24 -18 -42.667 -31.333 -56 -40s-31.666 -16.667 -54.999 -24s-48.666 -11 -75.999 -11c-66 0 -111.833 16.5 -137.5 49.5s-38.5 77.167 -38.5 132.5c-40 -66 -88 -112.833 -144 -140.5s-113 -41.5 -171 -41.5
c-74 0 -135.833 19.333 -185.5 58s-74.5 95.667 -74.5 171c0 39.333 7 74.333 21 105s36.833 58.667 68.5 84s65.334 47.5 101.001 66.5s82.167 40.5 139.5 64.5c8.66699 4 23.167 10 43.5 18s34.666 13.833 42.999 17.5l37.5 16.5c16.667 7.33301 28.5 13.166 35.5 17.499
l28 17c11.667 7 20 13.333 25 19s10.5 12.334 16.5 20.001s10.167 15.5 12.5 23.5s3.5 16.333 3.5 25zM655 223l-0.00195312 401.995c-10 -15.333 -26.667 -29.666 -50 -42.999s-72 -38 -146 -74c-28.667 -14 -52.167 -26.667 -70.5 -38s-38.666 -27.166 -60.999 -47.499
s-39.166 -45.166 -50.499 -74.499s-17 -62.666 -17 -99.999c0 -59.333 15 -104.166 45 -134.499s69.667 -45.5 119 -45.5c90.667 0 167.667 51.667 231 155z" />
    <glyph glyph-name="adieresis" unicode="&#xe4;" horiz-adv-x="1020" 
d="M289 1522c32 0 59.833 -12 83.5 -36s35.5 -51.667 35.5 -83c0 -32.667 -11.833 -60.667 -35.5 -84s-51.5 -35 -83.5 -35c-32.667 0 -60.667 11.667 -84 35s-35 51.333 -35 84c0 32 11.833 59.833 35.5 83.5s51.5 35.5 83.5 35.5zM723 1522c32 0 59.833 -12 83.5 -36
s35.5 -51.667 35.5 -83c0 -32.667 -11.833 -60.667 -35.5 -84s-51.5 -35 -83.5 -35c-32.667 0 -60.5 11.667 -83.5 35s-34.5 51.333 -34.5 84c0 32 11.667 59.833 35 83.5s51 35.5 83 35.5zM655 709v127.001c0 79.333 -16.5 133.5 -49.5 162.5s-79.833 43.5 -140.5 43.5
c-96.667 0 -164.334 -24.333 -203.001 -73c27.333 -6.66699 50.166 -21.167 68.499 -43.5s27.5 -49.5 27.5 -81.5c0 -34.667 -10.833 -61.834 -32.5 -81.501s-50.834 -29.5 -87.501 -29.5c-34.667 0 -61.834 11.667 -81.501 35s-29.5 54 -29.5 92c0 53.333 32 102 96 146
c78.667 51.333 174.334 77 287.001 77c114 0 196.667 -25.667 248 -77c31.333 -32 52.833 -69.167 64.5 -111.5s17.5 -100.833 17.5 -175.5v-569c0 -34 4.83301 -58.667 14.5 -74s25.834 -23 48.501 -23c28 0 58.667 14.333 92 43l23 -35c-24 -18 -42.667 -31.333 -56 -40
s-31.666 -16.667 -54.999 -24s-48.666 -11 -75.999 -11c-66 0 -111.833 16.5 -137.5 49.5s-38.5 77.167 -38.5 132.5c-40 -66 -88 -112.833 -144 -140.5s-113 -41.5 -171 -41.5c-74 0 -135.833 19.333 -185.5 58s-74.5 95.667 -74.5 171c0 39.333 7 74.333 21 105
s36.833 58.667 68.5 84s65.334 47.5 101.001 66.5s82.167 40.5 139.5 64.5c8.66699 4 23.167 10 43.5 18s34.666 13.833 42.999 17.5l37.5 16.5c16.667 7.33301 28.5 13.166 35.5 17.499l28 17c11.667 7 20 13.333 25 19s10.5 12.334 16.5 20.001s10.167 15.5 12.5 23.5
s3.5 16.333 3.5 25zM655 223.001l-0.00195312 401.995c-10 -15.333 -26.667 -29.666 -50 -42.999s-72 -38 -146 -74c-28.667 -14 -52.167 -26.667 -70.5 -38s-38.666 -27.166 -60.999 -47.499s-39.166 -45.166 -50.499 -74.499s-17 -62.666 -17 -99.999
c0 -59.333 15 -104.166 45 -134.499s69.667 -45.5 119 -45.5c90.667 0 167.667 51.667 231 155z" />
    <glyph glyph-name="aring" unicode="&#xe5;" horiz-adv-x="1020" 
d="M504 1620c55.333 0 102.333 -17.167 141 -51.5s58 -79.166 58 -134.499c0 -56.667 -19.333 -102.334 -58 -137.001s-85.667 -52 -141 -52c-54 0 -100.167 17.333 -138.5 52s-57.5 80.334 -57.5 137.001c0 55.333 19.167 100.166 57.5 134.499s84.5 51.5 138.5 51.5z
M504 1577c-35.333 0 -67.333 -13.167 -96 -39.5s-43 -61.5 -43 -105.5c0 -45.333 14.167 -80.666 42.5 -105.999s60.5 -38 96.5 -38c37.333 0 70.333 12.667 99 38s43 60.666 43 105.999c0 44 -14.5 79.167 -43.5 105.5s-61.833 39.5 -98.5 39.5zM655 709v127.001
c0 79.333 -16.5 133.5 -49.5 162.5s-79.833 43.5 -140.5 43.5c-96.667 0 -164.334 -24.333 -203.001 -73c27.333 -6.66699 50.166 -21.167 68.499 -43.5s27.5 -49.5 27.5 -81.5c0 -34.667 -10.833 -61.834 -32.5 -81.501s-50.834 -29.5 -87.501 -29.5
c-34.667 0 -61.834 11.667 -81.501 35s-29.5 54 -29.5 92c0 53.333 32 102 96 146c78.667 51.333 174.334 77 287.001 77c114 0 196.667 -25.667 248 -77c31.333 -32 52.833 -69.167 64.5 -111.5s17.5 -100.833 17.5 -175.5v-569c0 -34 4.83301 -58.667 14.5 -74
s25.834 -23 48.501 -23c28 0 58.667 14.333 92 43l23 -35c-24 -18 -42.667 -31.333 -56 -40s-31.666 -16.667 -54.999 -24s-48.666 -11 -75.999 -11c-66 0 -111.833 16.5 -137.5 49.5s-38.5 77.167 -38.5 132.5c-40 -66 -88 -112.833 -144 -140.5s-113 -41.5 -171 -41.5
c-74 0 -135.833 19.333 -185.5 58s-74.5 95.667 -74.5 171c0 39.333 7 74.333 21 105s36.833 58.667 68.5 84s65.334 47.5 101.001 66.5s82.167 40.5 139.5 64.5c8.66699 4 23.167 10 43.5 18s34.666 13.833 42.999 17.5l37.5 16.5c16.667 7.33301 28.5 13.166 35.5 17.499
l28 17c11.667 7 20 13.333 25 19s10.5 12.334 16.5 20.001s10.167 15.5 12.5 23.5s3.5 16.333 3.5 25zM655 223.001l-0.00195312 401.995c-10 -15.333 -26.667 -29.666 -50 -42.999s-72 -38 -146 -74c-28.667 -14 -52.167 -26.667 -70.5 -38
s-38.666 -27.166 -60.999 -47.499s-39.166 -45.166 -50.499 -74.499s-17 -62.666 -17 -99.999c0 -59.333 15 -104.166 45 -134.499s69.667 -45.5 119 -45.5c90.667 0 167.667 51.667 231 155z" />
    <glyph glyph-name="ae" unicode="&#xe6;" horiz-adv-x="1520" 
d="M1432 633l-596 0.00488281c-4.66699 -36.667 -7 -80.334 -7 -131.001c0 -134.667 28.667 -242.5 86 -323.5s125 -121.5 203 -121.5c117.333 0 204 68.333 260 205l41 -16c-22.667 -76 -64 -140.833 -124 -194.5s-132.667 -80.5 -218 -80.5
c-93.333 0 -172.166 22.5 -236.499 67.5s-112.166 109.833 -143.499 194.5c-76.667 -174.667 -193.667 -262 -351 -262c-46 0 -88 7.16699 -126 21.5s-70.167 39 -96.5 74s-39.5 78.5 -39.5 130.5c0 42 7.16699 79.667 21.5 113s36.833 63.166 67.5 89.499
s63.334 49.166 98.001 68.499s78.667 40.666 132 63.999c95.333 42 152.666 68.667 171.999 80c49.333 28.667 74 61 74 97v127c0 41.333 -5.66699 76.166 -17 104.499s-27 49.5 -47 63.5s-40.833 23.833 -62.5 29.5s-46.167 8.5 -73.5 8.5
c-92.667 0 -158.334 -24.333 -197.001 -73c26.667 -6 47.667 -18 63 -36s23 -41 23 -69c0 -33.333 -10.833 -60 -32.5 -80s-48.5 -30 -80.5 -30c-31.333 0 -57.166 10.167 -77.499 30.5s-30.5 46.166 -30.5 77.499c0 54.667 32 104 96 148c71.333 48.667 165 73 281 73
c141.333 0 236.666 -43.333 285.999 -130c71.333 86.667 167.666 130 288.999 130c116 0 205.5 -37.167 268.5 -111.5s94.5 -187.166 94.5 -338.499zM832 672.005l403 -0.000976562c3.33301 106 -10.167 194.5 -40.5 265.5s-74.833 106.5 -133.5 106.5
c-59.333 0 -109.833 -31.167 -151.5 -93.5s-67.5 -155.166 -77.5 -278.499zM649 223.004l-0.000976562 401.999c-24 -28 -79.333 -63 -166 -105c-71.333 -34.667 -125.666 -74.167 -162.999 -118.5s-56 -101.166 -56 -170.499c0 -62.667 15.333 -108 46 -136
s68.667 -42 114 -42c94.667 0 169.667 56.667 225 170z" />
    <glyph glyph-name="ccedilla" unicode="&#xe7;" horiz-adv-x="995" 
d="M885 270l38.999 -14.002c-10.667 -35.333 -26 -69 -46 -101s-45 -62.167 -75 -90.5s-67.167 -51 -111.5 -68s-92.5 -25.5 -144.5 -25.5h-19l-39 -118c40.667 9.33301 81 14 121 14c38.667 0 69.167 -8.5 91.5 -25.5s33.5 -40.5 33.5 -70.5
c0 -36 -12.833 -66.333 -38.5 -91s-55.167 -41.667 -88.5 -51s-68.333 -14 -105 -14c-70 0 -126.667 7.66699 -170 23l9 36c28 -4 53.667 -6 77 -6c49.333 0 92.5 7.16699 129.5 21.5s55.5 37.833 55.5 70.5c0 38.667 -28.667 58 -86 58c-39.333 0 -73 -5 -101 -15l58 174
c-112.667 18 -204.334 74.833 -275.001 170.5s-106 217.834 -106 366.501c0 168 44.5 304.833 133.5 410.5s203.5 158.5 343.5 158.5c92 0 171.333 -21.667 238 -65c64 -43.333 96 -96 96 -158c0 -36 -10.167 -64.167 -30.5 -84.5s-46.166 -30.5 -77.499 -30.5
c-32 0 -58.833 9.16699 -80.5 27.5s-32.5 43.5 -32.5 75.5c0 29.333 8.16699 53.833 24.5 73.5s36.833 32.834 61.5 39.501c-13.333 24.667 -37.666 45.167 -72.999 61.5s-72.333 24.5 -111 24.5c-28.667 0 -56.167 -4.83301 -82.5 -14.5s-52.5 -26.667 -78.5 -51
s-48.667 -55 -68 -92s-34.833 -85 -46.5 -144s-17.5 -125.833 -17.5 -200.5c0 -88 7.83301 -164.167 23.5 -228.5s37.5 -114.833 65.5 -151.5s59 -63.5 93 -80.5s71.667 -25.5 113 -25.5c58 0 113.5 17 166.5 51s96.5 87.333 130.5 160z" />
    <glyph glyph-name="egrave" unicode="&#xe8;" horiz-adv-x="1036" 
d="M649 1245l-23 -18.002c-56 60 -118.833 120.5 -188.5 181.5s-114.5 104.167 -134.5 129.5c-18.667 24.667 -28 48 -28 70c0 22.667 9.33301 41.667 28 57c12.667 10 27.334 15 44.001 15c29.333 0 55.666 -15.333 78.999 -46c19.333 -25.333 50.333 -79.166 93 -161.499
s86 -158.166 130 -227.499zM907 261.998l41.002 -15.999c-24.667 -75.333 -70.834 -140 -138.501 -194s-149.167 -81 -244.5 -81c-146 0 -261 48.667 -345 146s-126 225.666 -126 384.999c0 179.333 41.833 321 125.5 425s196.167 156 337.5 156
c122.667 0 217.167 -37.167 283.5 -111.5s99.5 -187.166 99.5 -338.499h-640c-4.66699 -36.667 -7 -80.334 -7 -131.001c0 -134 31.333 -241.667 94 -323s135.667 -122 219 -122c137.333 0 237.666 68.333 300.999 205zM297.002 671.999l446 -0.000976562
c4 106 -11 194.5 -45 265.5s-83.667 106.5 -149 106.5c-64.667 0 -120.167 -31.167 -166.5 -93.5s-74.833 -155.166 -85.5 -278.499z" />
    <glyph glyph-name="eacute" unicode="&#xe9;" horiz-adv-x="1036" 
d="M450 1227l-21.999 18.002c44 69.333 87.333 145.166 130 227.499s73.667 136.166 93 161.499c23.333 30.667 49.333 46 78 46c16.667 0 31.667 -5 45 -15c18.667 -15.333 28 -34.333 28 -57c0 -22 -9.33301 -45.333 -28 -70c-20 -25.333 -64.833 -68.5 -134.5 -129.5
s-132.834 -121.5 -189.501 -181.5zM907.001 262.002l41.002 -15.999c-24.667 -75.333 -70.834 -140 -138.501 -194s-149.167 -81 -244.5 -81c-146 0 -261 48.667 -345 146s-126 225.666 -126 384.999c0 179.333 41.833 321 125.5 425s196.167 156 337.5 156
c122.667 0 217.167 -37.167 283.5 -111.5s99.5 -187.166 99.5 -338.499h-640c-4.66699 -36.667 -7 -80.334 -7 -131.001c0 -134 31.333 -241.667 94 -323s135.667 -122 219 -122c137.333 0 237.666 68.333 300.999 205zM297.003 672.003l446 -0.000976562
c4 106 -11 194.5 -45 265.5s-83.667 106.5 -149 106.5c-64.667 0 -120.167 -31.167 -166.5 -93.5s-74.833 -155.166 -85.5 -278.499z" />
    <glyph glyph-name="ecircumflex" unicode="&#xea;" horiz-adv-x="1036" 
d="M915 1290l-16 -28c-74 25.333 -146 56.5 -216 93.5s-126.333 73.833 -169 110.5c-34.667 -36.667 -79.5 -73.5 -134.5 -110.5s-111.167 -68.167 -168.5 -93.5l-17 28c78 38.667 147.5 89.667 208.5 153s105.5 129.666 133.5 198.999h37
c28 -69.333 72.5 -135.666 133.5 -198.999s130.5 -114.333 208.5 -153zM907 262l41.002 -15.999c-24.667 -75.333 -70.834 -140 -138.501 -194s-149.167 -81 -244.5 -81c-146 0 -261 48.667 -345 146s-126 225.666 -126 384.999c0 179.333 41.833 321 125.5 425
s196.167 156 337.5 156c122.667 0 217.167 -37.167 283.5 -111.5s99.5 -187.166 99.5 -338.499h-640c-4.66699 -36.667 -7 -80.334 -7 -131.001c0 -134 31.333 -241.667 94 -323s135.667 -122 219 -122c137.333 0 237.666 68.333 300.999 205zM297.002 672.001
l446 -0.000976562c4 106 -11 194.5 -45 265.5s-83.667 106.5 -149 106.5c-64.667 0 -120.167 -31.167 -166.5 -93.5s-74.833 -155.166 -85.5 -278.499z" />
    <glyph glyph-name="edieresis" unicode="&#xeb;" horiz-adv-x="1036" 
d="M340 1284c-32.667 0 -60.667 11.667 -84 35s-35 51.333 -35 84c0 32 11.833 59.833 35.5 83.5s51.5 35.5 83.5 35.5s59.833 -12 83.5 -36s35.5 -51.667 35.5 -83c0 -32.667 -11.833 -60.667 -35.5 -84s-51.5 -35 -83.5 -35zM774 1284c-32.667 0 -60.5 11.667 -83.5 35
s-34.5 51.333 -34.5 84c0 32 11.667 59.833 35 83.5s51 35.5 83 35.5s59.833 -12 83.5 -36s35.5 -51.667 35.5 -83c0 -32.667 -11.833 -60.667 -35.5 -84s-51.5 -35 -83.5 -35zM907 262l41.002 -15.999c-24.667 -75.333 -70.834 -140 -138.501 -194s-149.167 -81 -244.5 -81
c-146 0 -261 48.667 -345 146s-126 225.666 -126 384.999c0 179.333 41.833 321 125.5 425s196.167 156 337.5 156c122.667 0 217.167 -37.167 283.5 -111.5s99.5 -187.166 99.5 -338.499h-640c-4.66699 -36.667 -7 -80.334 -7 -131.001c0 -134 31.333 -241.667 94 -323
s135.667 -122 219 -122c137.333 0 237.666 68.333 300.999 205zM297.002 672.001l446 -0.000976562c4 106 -11 194.5 -45 265.5s-83.667 106.5 -149 106.5c-64.667 0 -120.167 -31.167 -166.5 -93.5s-74.833 -155.166 -85.5 -278.499z" />
    <glyph glyph-name="igrave" unicode="&#xec;" horiz-adv-x="600" 
d="M383 1245l-22.999 -18.002c-56 60 -118.833 120.5 -188.5 181.5s-114.5 104.167 -134.5 129.5c-18.667 24.667 -28 48 -28 70c0 22.667 9.33301 41.667 28 57c13.333 10 28 15 44 15c29.333 0 55.666 -15.333 78.999 -46c19.333 -25.333 50.333 -79.166 93 -161.499
s86 -158.166 130 -227.499zM399.001 1077l0.00195312 -887c0 -56 11.667 -94.5 35 -115.5s63.666 -31.5 120.999 -31.5v-43c-125.333 5.33301 -208 8 -248 8s-122.667 -2.66699 -248 -8v43c57.333 0 97.666 10.5 120.999 31.5s35 59.5 35 115.5v641
c0 63.333 -11.5 109.333 -34.5 138s-63.5 43 -121.5 43v43c42.667 -4 85 -6 127 -6c86.667 0 157.667 9.33301 213 28z" />
    <glyph glyph-name="iacute" unicode="&#xed;" horiz-adv-x="600" 
d="M184 1227l-21.999 18.002c44 69.333 87.333 145.166 130 227.499s73.667 136.166 93 161.499c23.333 30.667 49.333 46 78 46c16.667 0 31.667 -5 45 -15c18.667 -15.333 28 -34.333 28 -57c0 -22 -9.33301 -45.333 -28 -70c-20 -25.333 -64.833 -68.5 -134.5 -129.5
s-132.834 -121.5 -189.501 -181.5zM399.001 1077l0.00195312 -887c0 -56 11.667 -94.5 35 -115.5s63.666 -31.5 120.999 -31.5v-43c-125.333 5.33301 -208 8 -248 8s-122.667 -2.66699 -248 -8v43c57.333 0 97.666 10.5 120.999 31.5s35 59.5 35 115.5v641
c0 63.333 -11.5 109.333 -34.5 138s-63.5 43 -121.5 43v43c42.667 -4 85 -6 127 -6c86.667 0 157.667 9.33301 213 28z" />
    <glyph glyph-name="icircumflex" unicode="&#xee;" horiz-adv-x="600" 
d="M270 1642h37c28 -69.333 72.5 -135.666 133.5 -198.999s130.5 -114.333 208.5 -153l-16 -28c-74 25.333 -146 56.5 -216 93.5s-126.333 73.833 -169 110.5c-34.667 -36.667 -79.5 -73.5 -134.5 -110.5s-111.167 -68.167 -168.5 -93.5l-17 28
c78 38.667 147.5 89.667 208.5 153s105.5 129.666 133.5 198.999zM399 1077l0.00195312 -887c0 -56 11.667 -94.5 35 -115.5s63.666 -31.5 120.999 -31.5v-43c-125.333 5.33301 -208 8 -248 8s-122.667 -2.66699 -248 -8v43c57.333 0 97.666 10.5 120.999 31.5
s35 59.5 35 115.5v641c0 63.333 -11.5 109.333 -34.5 138s-63.5 43 -121.5 43v43c42.667 -4 85 -6 127 -6c86.667 0 157.667 9.33301 213 28z" />
    <glyph glyph-name="idieresis" unicode="&#xef;" horiz-adv-x="600" 
d="M74 1522c32 0 59.833 -12 83.5 -36s35.5 -51.667 35.5 -83c0 -32.667 -11.833 -60.667 -35.5 -84s-51.5 -35 -83.5 -35c-32.667 0 -60.667 11.667 -84 35s-35 51.333 -35 84c0 32 11.833 59.833 35.5 83.5s51.5 35.5 83.5 35.5zM508 1522c32 0 59.833 -12 83.5 -36
s35.5 -51.667 35.5 -83c0 -32.667 -11.833 -60.667 -35.5 -84s-51.5 -35 -83.5 -35c-32.667 0 -60.5 11.667 -83.5 35s-34.5 51.333 -34.5 84c0 32 11.667 59.833 35 83.5s51 35.5 83 35.5zM399 1077l0.00195312 -887c0 -56 11.667 -94.5 35 -115.5
s63.666 -31.5 120.999 -31.5v-43c-125.333 5.33301 -208 8 -248 8s-122.667 -2.66699 -248 -8v43c57.333 0 97.666 10.5 120.999 31.5s35 59.5 35 115.5v641c0 63.333 -11.5 109.333 -34.5 138s-63.5 43 -121.5 43v43c42.667 -4 85 -6 127 -6
c86.667 0 157.667 9.33301 213 28z" />
    <glyph glyph-name="eth" unicode="&#xf0;" horiz-adv-x="1135" 
d="M909 1538l-269.999 -130.997c254 -192.667 381 -455.667 381 -789c0 -106 -13 -201.167 -39 -285.5s-61 -152.333 -105 -204s-93.5 -90.834 -148.5 -117.501s-113.167 -40 -174.5 -40c-138.667 0 -249.834 47.333 -333.501 142s-125.5 231 -125.5 409
c0 54.667 6 108.667 18 162s30.333 104.166 55 152.499s54.334 90.666 89.001 126.999s76.5 65.333 125.5 87s102.167 32.5 159.5 32.5c111.333 0 193 -35.333 245 -106c-40 162.667 -112.667 294.667 -218 396l-369 -181l-19 37l356 173
c-66.667 56.667 -156.667 111.667 -270 165l17 35c125.333 -50 231.666 -106 318.999 -168l289 141zM543.001 12.0029c38 0 72.999 9.83203 104.999 29.499s61.667 51.5 89 95.5s48.833 106.833 64.5 188.5s23.5 179.167 23.5 292.5c0 50 -1.33301 93.667 -4 131
c-6 48 -15.833 89.833 -29.5 125.5s-29 63.834 -46 84.501s-37 37.334 -60 50.001s-44.667 21 -65 25s-42.166 6 -65.499 6c-38 0 -72.167 -9.16699 -102.5 -27.5s-57.833 -47.333 -82.5 -87s-43.667 -94 -57 -163s-20 -150.5 -20 -244.5
c0 -88.667 6.66699 -166.5 20 -233.5s31.833 -119.833 55.5 -158.5s50 -67.334 79 -86.001s60.833 -28 95.5 -28z" />
    <glyph glyph-name="ntilde" unicode="&#xf1;" horiz-adv-x="1223" 
d="M261 1348l-29 13.999c20.667 72 52.5 125.167 95.5 159.5s92.5 51.5 148.5 51.5c27.333 0 52.833 -4.66699 76.5 -14s44.334 -20.5 62.001 -33.5l52 -39.5c17 -13.333 35.5 -24.666 55.5 -33.999s41 -14 63 -14c62 0 114.667 36 158 108l29 -14
c-20.667 -72 -52.5 -125.167 -95.5 -159.5s-91.833 -51.5 -146.5 -51.5c-33.333 0 -65 7.16699 -95 21.5s-54.167 30 -72.5 47s-40.333 32.667 -66 47s-51.5 21.5 -77.5 21.5c-60.667 0 -113.334 -36.667 -158.001 -110zM399 1077l0.00683594 -241.002
c34 86.667 81.5 149.5 142.5 188.5s129.833 58.5 206.5 58.5c95.333 0 167.666 -25.667 216.999 -77c25.333 -28 43.5 -62.5 54.5 -103.5s16.5 -96.167 16.5 -165.5v-547c0 -56 11.667 -94.5 35 -115.5s63.666 -31.5 120.999 -31.5v-43c-125.333 5.33301 -207.333 8 -246 8
c-38 0 -114.333 -2.66699 -229 -8v43c50 0 85 10.5 105 31.5s30 59.5 30 115.5v592c0 28.667 -1 53.334 -3 74.001s-6.33301 41.834 -13 63.501s-15.834 39.167 -27.501 52.5s-27.834 24.333 -48.501 33s-45.334 13 -74.001 13c-84.667 0 -153.667 -35.667 -207 -107
s-80 -160 -80 -266v-455c0 -56 10 -94.5 30 -115.5s55.333 -31.5 106 -31.5v-43c-114.667 5.33301 -191.334 8 -230.001 8s-120.667 -2.66699 -246 -8v43c57.333 0 97.666 10.5 120.999 31.5s35 59.5 35 115.5v641c0 63.333 -11.5 109.333 -34.5 138s-63.5 43 -121.5 43v43
c42.667 -4 85 -6 127 -6c86.667 0 157.667 9.33301 213 28z" />
    <glyph glyph-name="ograve" unicode="&#xf2;" horiz-adv-x="1122" 
d="M661 1245l-22.999 -18.002c-56 60 -118.833 120.5 -188.5 181.5s-114.5 104.167 -134.5 129.5c-18.667 24.667 -28 48 -28 70c0 22.667 9.33301 41.667 28 57c13.333 10 28 15 44 15c29.333 0 55.666 -15.333 78.999 -46c19.333 -25.333 50.333 -79.166 93 -161.499
s86 -158.166 130 -227.499zM561.001 1083c53.333 0 102.831 -6.66699 148.498 -20s88.167 -34.333 127.5 -63s72.833 -64.5 100.5 -107.5s49.334 -95.5 65.001 -157.5s23.5 -131.667 23.5 -209c0 -95.333 -11.833 -179.166 -35.5 -251.499s-57 -130.333 -100 -174
s-92 -76.167 -147 -97.5s-115.833 -32 -182.5 -32s-127.5 10.667 -182.5 32s-104 53.833 -147 97.5s-76.333 101.667 -100 174s-35.5 156.166 -35.5 251.499c0 77.333 7.83301 147 23.5 209s37.334 114.5 65.001 157.5s61.167 78.833 100.5 107.5s81.833 49.667 127.5 63
s95.167 20 148.5 20zM560.999 1042c-82 0 -146.833 -42 -194.5 -126s-71.5 -214 -71.5 -390c0 -175.333 23.833 -304.833 71.5 -388.5s112.5 -125.5 194.5 -125.5s146.833 41.833 194.5 125.5s71.5 213.167 71.5 388.5c0 176 -23.833 306 -71.5 390s-112.5 126 -194.5 126z
" />
    <glyph glyph-name="oacute" unicode="&#xf3;" horiz-adv-x="1122" 
d="M462 1227l-21.999 18.002c44 69.333 87.333 145.166 130 227.499s73.667 136.166 93 161.499c23.333 30.667 49.333 46 78 46c16.667 0 31.667 -5 45 -15c18.667 -15.333 28 -34.333 28 -57c0 -22 -9.33301 -45.333 -28 -70c-20 -25.333 -64.833 -68.5 -134.5 -129.5
s-132.834 -121.5 -189.501 -181.5zM561.001 1083c53.333 0 102.831 -6.66699 148.498 -20s88.167 -34.333 127.5 -63s72.833 -64.5 100.5 -107.5s49.334 -95.5 65.001 -157.5s23.5 -131.667 23.5 -209c0 -95.333 -11.833 -179.166 -35.5 -251.499s-57 -130.333 -100 -174
s-92 -76.167 -147 -97.5s-115.833 -32 -182.5 -32s-127.5 10.667 -182.5 32s-104 53.833 -147 97.5s-76.333 101.667 -100 174s-35.5 156.166 -35.5 251.499c0 77.333 7.83301 147 23.5 209s37.334 114.5 65.001 157.5s61.167 78.833 100.5 107.5s81.833 49.667 127.5 63
s95.167 20 148.5 20zM560.999 1042c-82 0 -146.833 -42 -194.5 -126s-71.5 -214 -71.5 -390c0 -175.333 23.833 -304.833 71.5 -388.5s112.5 -125.5 194.5 -125.5s146.833 41.833 194.5 125.5s71.5 213.167 71.5 388.5c0 176 -23.833 306 -71.5 390s-112.5 126 -194.5 126z
" />
    <glyph glyph-name="ocircumflex" unicode="&#xf4;" horiz-adv-x="1122" 
d="M548 1642h37c28 -69.333 72.5 -135.666 133.5 -198.999s130.5 -114.333 208.5 -153l-16 -28c-74 25.333 -146 56.5 -216 93.5s-126.333 73.833 -169 110.5c-34.667 -36.667 -79.5 -73.5 -134.5 -110.5s-111.167 -68.167 -168.5 -93.5l-17 28
c78 38.667 147.5 89.667 208.5 153s105.5 129.666 133.5 198.999zM561 1083c53.333 0 102.831 -6.66699 148.498 -20s88.167 -34.333 127.5 -63s72.833 -64.5 100.5 -107.5s49.334 -95.5 65.001 -157.5s23.5 -131.667 23.5 -209c0 -95.333 -11.833 -179.166 -35.5 -251.499
s-57 -130.333 -100 -174s-92 -76.167 -147 -97.5s-115.833 -32 -182.5 -32s-127.5 10.667 -182.5 32s-104 53.833 -147 97.5s-76.333 101.667 -100 174s-35.5 156.166 -35.5 251.499c0 77.333 7.83301 147 23.5 209s37.334 114.5 65.001 157.5s61.167 78.833 100.5 107.5
s81.833 49.667 127.5 63s95.167 20 148.5 20zM560.998 1042c-82 0 -146.833 -42 -194.5 -126s-71.5 -214 -71.5 -390c0 -175.333 23.833 -304.833 71.5 -388.5s112.5 -125.5 194.5 -125.5s146.833 41.833 194.5 125.5s71.5 213.167 71.5 388.5c0 176 -23.833 306 -71.5 390
s-112.5 126 -194.5 126z" />
    <glyph glyph-name="otilde" unicode="&#xf5;" horiz-adv-x="1122" 
d="M201 1348l-29 13.999c20.667 72 52.5 125.167 95.5 159.5s92.5 51.5 148.5 51.5c27.333 0 52.833 -4.66699 76.5 -14s44.334 -20.5 62.001 -33.5l52 -39.5c17 -13.333 35.5 -24.666 55.5 -33.999s41 -14 63 -14c62 0 114.667 36 158 108l29 -14
c-20.667 -72 -52.5 -125.167 -95.5 -159.5s-91.833 -51.5 -146.5 -51.5c-33.333 0 -65 7.16699 -95 21.5s-54.167 30 -72.5 47s-40.333 32.667 -66 47s-51.5 21.5 -77.5 21.5c-60.667 0 -113.334 -36.667 -158.001 -110zM561 1083c53.333 0 102.831 -6.66699 148.498 -20
s88.167 -34.333 127.5 -63s72.833 -64.5 100.5 -107.5s49.334 -95.5 65.001 -157.5s23.5 -131.667 23.5 -209c0 -95.333 -11.833 -179.166 -35.5 -251.499s-57 -130.333 -100 -174s-92 -76.167 -147 -97.5s-115.833 -32 -182.5 -32s-127.5 10.667 -182.5 32
s-104 53.833 -147 97.5s-76.333 101.667 -100 174s-35.5 156.166 -35.5 251.499c0 77.333 7.83301 147 23.5 209s37.334 114.5 65.001 157.5s61.167 78.833 100.5 107.5s81.833 49.667 127.5 63s95.167 20 148.5 20zM560.998 1042c-82 0 -146.833 -42 -194.5 -126
s-71.5 -214 -71.5 -390c0 -175.333 23.833 -304.833 71.5 -388.5s112.5 -125.5 194.5 -125.5s146.833 41.833 194.5 125.5s71.5 213.167 71.5 388.5c0 176 -23.833 306 -71.5 390s-112.5 126 -194.5 126z" />
    <glyph glyph-name="odieresis" unicode="&#xf6;" horiz-adv-x="1122" 
d="M352 1522c32 0 59.833 -12 83.5 -36s35.5 -51.667 35.5 -83c0 -32.667 -11.833 -60.667 -35.5 -84s-51.5 -35 -83.5 -35c-32.667 0 -60.667 11.667 -84 35s-35 51.333 -35 84c0 32 11.833 59.833 35.5 83.5s51.5 35.5 83.5 35.5zM786 1522c32 0 59.833 -12 83.5 -36
s35.5 -51.667 35.5 -83c0 -32.667 -11.833 -60.667 -35.5 -84s-51.5 -35 -83.5 -35c-32.667 0 -60.5 11.667 -83.5 35s-34.5 51.333 -34.5 84c0 32 11.667 59.833 35 83.5s51 35.5 83 35.5zM561 1083c53.333 0 102.831 -6.66699 148.498 -20s88.167 -34.333 127.5 -63
s72.833 -64.5 100.5 -107.5s49.334 -95.5 65.001 -157.5s23.5 -131.667 23.5 -209c0 -95.333 -11.833 -179.166 -35.5 -251.499s-57 -130.333 -100 -174s-92 -76.167 -147 -97.5s-115.833 -32 -182.5 -32s-127.5 10.667 -182.5 32s-104 53.833 -147 97.5
s-76.333 101.667 -100 174s-35.5 156.166 -35.5 251.499c0 77.333 7.83301 147 23.5 209s37.334 114.5 65.001 157.5s61.167 78.833 100.5 107.5s81.833 49.667 127.5 63s95.167 20 148.5 20zM560.998 1042c-82 0 -146.833 -42 -194.5 -126s-71.5 -214 -71.5 -390
c0 -175.333 23.833 -304.833 71.5 -388.5s112.5 -125.5 194.5 -125.5s146.833 41.833 194.5 125.5s71.5 213.167 71.5 388.5c0 176 -23.833 306 -71.5 390s-112.5 126 -194.5 126z" />
    <glyph glyph-name="divide" unicode="&#xf7;" horiz-adv-x="1329" 
d="M664 1135c31.333 0 58.167 -11.167 80.5 -33.5s33.5 -48.833 33.5 -79.5c0 -32 -11 -58.833 -33 -80.5s-49 -32.5 -81 -32.5c-31.333 0 -58 10.833 -80 32.5s-33 48.5 -33 80.5c0 30.667 11.167 57.167 33.5 79.5s48.833 33.5 79.5 33.5zM1176 696h-1026v62h1026v-62z
M664.001 545c31.333 0 58.166 -11 80.499 -33s33.5 -48.667 33.5 -80s-11.167 -58.333 -33.5 -81s-49.166 -34 -80.499 -34c-30.667 0 -57.167 11.333 -79.5 34s-33.5 49.667 -33.5 81c0 30.667 11.167 57.167 33.5 79.5s48.833 33.5 79.5 33.5z" />
    <glyph glyph-name="oslash" unicode="&#xf8;" horiz-adv-x="1120" 
d="M1034 1176l-148.001 -219.001c93.333 -95.333 140 -239 140 -431c0 -95.333 -11.833 -179.166 -35.5 -251.499s-57 -130.333 -100 -174s-92 -76.167 -147 -97.5s-115.833 -32 -182.5 -32c-113.333 0 -208.333 29.667 -285 89l-143 -210l-43 29l148 215
c-94.667 96.667 -142 240.667 -142 432c0 77.333 7.83301 147 23.5 209s37.334 114.5 65.001 157.5s61.167 78.833 100.5 107.5s81.833 49.667 127.5 63s95.167 20 148.5 20c116 0 212.333 -31 289 -93l145 212zM335.999 210.999l431 683c-45.333 98.667 -114 148 -206 148
c-82 0 -146.833 -42 -194.5 -126s-71.5 -214 -71.5 -390c0 -128 13.667 -233 41 -315zM787.999 836.999l-428.999 -684c45.333 -94 112.666 -141 201.999 -141c82 0 146.833 41.833 194.5 125.5s71.5 213.167 71.5 388.5c0 126 -13 229.667 -39 311z" />
    <glyph glyph-name="ugrave" unicode="&#xf9;" horiz-adv-x="1190" 
d="M667 1245l-23 -18.002c-56 60 -118.833 120.5 -188.5 181.5s-114.5 104.167 -134.5 129.5c-18.667 24.667 -28 48 -28 70c0 22.667 9.33301 41.667 28 57c12.667 10 27.334 15 44.001 15c29.333 0 55.666 -15.333 78.999 -46c19.333 -25.333 50.333 -79.166 93 -161.499
s86 -158.166 130 -227.499zM989 1077l-0.00390625 -855.999c0 -63.333 11.5 -109.166 34.5 -137.499s63.5 -42.5 121.5 -42.5v-43c-43.333 4 -85.666 6 -126.999 6c-88 0 -159 -9.66699 -213 -29v242c-33.333 -84 -79.833 -146 -139.5 -186s-125.167 -60 -196.5 -60
c-92 0 -163 26 -213 78c-45.333 48.667 -68 138 -68 268v514c0 63.333 -11.333 109.333 -34 138s-63 43 -121 43v43c42.667 -4 85 -6 127 -6c86 0 157 9.33301 213 28v-805c0 -30.667 0.666992 -55.5 2 -74.5s4.83301 -39.833 10.5 -62.5s13.834 -40.334 24.501 -53.001
s25.834 -23.334 45.501 -32.001s43.834 -13 72.501 -13c79.333 0 145.333 35.5 198 106.5s79 159.167 79 264.5v423c0 63.333 -11.5 109.333 -34.5 138s-63.5 43 -121.5 43v43c42.667 -4 85 -6 127 -6c86.667 0 157.667 9.33301 213 28z" />
    <glyph glyph-name="uacute" unicode="&#xfa;" horiz-adv-x="1190" 
d="M468 1227l-21.999 18.002c44 69.333 87.333 145.166 130 227.499s73.667 136.166 93 161.499c23.333 30.667 49.333 46 78 46c16.667 0 31.667 -5 45 -15c18.667 -15.333 28 -34.333 28 -57c0 -22 -9.33301 -45.333 -28 -70c-20 -25.333 -64.833 -68.5 -134.5 -129.5
s-132.834 -121.5 -189.501 -181.5zM989.001 1077l-0.00390625 -855.999c0 -63.333 11.5 -109.166 34.5 -137.499s63.5 -42.5 121.5 -42.5v-43c-43.333 4 -85.666 6 -126.999 6c-88 0 -159 -9.66699 -213 -29v242c-33.333 -84 -79.833 -146 -139.5 -186
s-125.167 -60 -196.5 -60c-92 0 -163 26 -213 78c-45.333 48.667 -68 138 -68 268v514c0 63.333 -11.333 109.333 -34 138s-63 43 -121 43v43c42.667 -4 85 -6 127 -6c86 0 157 9.33301 213 28v-805c0 -30.667 0.666992 -55.5 2 -74.5s4.83301 -39.833 10.5 -62.5
s13.834 -40.334 24.501 -53.001s25.834 -23.334 45.501 -32.001s43.834 -13 72.501 -13c79.333 0 145.333 35.5 198 106.5s79 159.167 79 264.5v423c0 63.333 -11.5 109.333 -34.5 138s-63.5 43 -121.5 43v43c42.667 -4 85 -6 127 -6c86.667 0 157.667 9.33301 213 28z" />
    <glyph glyph-name="ucircumflex" unicode="&#xfb;" horiz-adv-x="1190" 
d="M554 1642h37c28 -69.333 72.5 -135.666 133.5 -198.999s130.5 -114.333 208.5 -153l-16 -28c-74 25.333 -146 56.5 -216 93.5s-126.333 73.833 -169 110.5c-34.667 -36.667 -79.5 -73.5 -134.5 -110.5s-111.167 -68.167 -168.5 -93.5l-17 28
c78 38.667 147.5 89.667 208.5 153s105.5 129.666 133.5 198.999zM989 1077l-0.00390625 -855.999c0 -63.333 11.5 -109.166 34.5 -137.499s63.5 -42.5 121.5 -42.5v-43c-43.333 4 -85.666 6 -126.999 6c-88 0 -159 -9.66699 -213 -29v242
c-33.333 -84 -79.833 -146 -139.5 -186s-125.167 -60 -196.5 -60c-92 0 -163 26 -213 78c-45.333 48.667 -68 138 -68 268v514c0 63.333 -11.333 109.333 -34 138s-63 43 -121 43v43c42.667 -4 85 -6 127 -6c86 0 157 9.33301 213 28v-805c0 -30.667 0.666992 -55.5 2 -74.5
s4.83301 -39.833 10.5 -62.5s13.834 -40.334 24.501 -53.001s25.834 -23.334 45.501 -32.001s43.834 -13 72.501 -13c79.333 0 145.333 35.5 198 106.5s79 159.167 79 264.5v423c0 63.333 -11.5 109.333 -34.5 138s-63.5 43 -121.5 43v43c42.667 -4 85 -6 127 -6
c86.667 0 157.667 9.33301 213 28z" />
    <glyph glyph-name="udieresis" unicode="&#xfc;" horiz-adv-x="1190" 
d="M358 1522c32 0 59.833 -12 83.5 -36s35.5 -51.667 35.5 -83c0 -32.667 -11.833 -60.667 -35.5 -84s-51.5 -35 -83.5 -35c-32.667 0 -60.667 11.667 -84 35s-35 51.333 -35 84c0 32 11.833 59.833 35.5 83.5s51.5 35.5 83.5 35.5zM792 1522c32 0 59.833 -12 83.5 -36
s35.5 -51.667 35.5 -83c0 -32.667 -11.833 -60.667 -35.5 -84s-51.5 -35 -83.5 -35c-32.667 0 -60.5 11.667 -83.5 35s-34.5 51.333 -34.5 84c0 32 11.667 59.833 35 83.5s51 35.5 83 35.5zM989 1077l-0.00390625 -855.999c0 -63.333 11.5 -109.166 34.5 -137.499
s63.5 -42.5 121.5 -42.5v-43c-43.333 4 -85.666 6 -126.999 6c-88 0 -159 -9.66699 -213 -29v242c-33.333 -84 -79.833 -146 -139.5 -186s-125.167 -60 -196.5 -60c-92 0 -163 26 -213 78c-45.333 48.667 -68 138 -68 268v514c0 63.333 -11.333 109.333 -34 138
s-63 43 -121 43v43c42.667 -4 85 -6 127 -6c86 0 157 9.33301 213 28v-805c0 -30.667 0.666992 -55.5 2 -74.5s4.83301 -39.833 10.5 -62.5s13.834 -40.334 24.501 -53.001s25.834 -23.334 45.501 -32.001s43.834 -13 72.501 -13c79.333 0 145.333 35.5 198 106.5
s79 159.167 79 264.5v423c0 63.333 -11.5 109.333 -34.5 138s-63.5 43 -121.5 43v43c42.667 -4 85 -6 127 -6c86.667 0 157.667 9.33301 213 28z" />
    <glyph glyph-name="yacute" unicode="&#xfd;" horiz-adv-x="1032" 
d="M415 1227l-21.999 18.002c44 69.333 87.333 145.166 130 227.499s73.667 136.166 93 161.499c23.333 30.667 49.333 46 78 46c17.333 0 32.333 -5 45 -15c18.667 -15.333 28 -34.333 28 -57c0 -22 -9.33301 -45.333 -28 -70c-20 -25.333 -64.833 -68.5 -134.5 -129.5
s-132.834 -121.5 -189.501 -181.5zM684.001 1014l-0.00292969 41c72 -4 129.333 -6 172 -6c61.333 0 113.333 2 156 6v-41c-27.333 -3.33301 -51.666 -15.666 -72.999 -36.999s-41.333 -57 -60 -107l-336 -880l-70 -178c-26 -67.333 -55.333 -115.333 -88 -144
c-38.667 -35.333 -92 -53 -160 -53c-40.667 0 -74 10.833 -100 32.5s-39 51.834 -39 90.501c0 32.667 9.66699 58.834 29 78.501s46 29.5 80 29.5c30 0 54.833 -8.33301 74.5 -25s29.5 -40.334 29.5 -71.001c0 -40.667 -18.333 -71.334 -55 -92.001
c2.66699 -1.33301 6.66699 -2 12 -2c75.333 0 133.333 53.333 174 160l73 187l-372 894c-38 76.667 -84.333 115 -139 115v43c64 -8.66699 131 -13 201 -13c58.667 0 147.334 4.33301 266.001 13v-43c-20 0 -35 -0.166992 -45 -0.5s-22.5 -1.66602 -37.5 -3.99902
s-26 -5.83301 -33 -10.5s-13.333 -11.667 -19 -21s-8.5 -21 -8.5 -35c0 -24.667 8.66699 -58.334 26 -101.001l247 -612l226 593c14.667 40 22 71.333 22 94c0 32 -12.167 55.667 -36.5 71s-63.166 24.666 -116.499 27.999z" />
    <glyph glyph-name="thorn" unicode="&#xfe;" horiz-adv-x="1145" 
d="M340 1604l-0.000976562 -742.999c30.667 70.667 74.834 125.334 132.501 164.001s122.834 58 195.501 58c111.333 0 202.666 -44.667 273.999 -134s107 -214 107 -374c0 -60.667 -5.5 -119.5 -16.5 -176.5s-28.667 -111.667 -53 -164s-54.333 -97.833 -90 -136.5
s-80 -69.5 -133 -92.5s-111.833 -34.5 -176.5 -34.5c-52 0 -99 10.167 -141 30.5s-75 47.166 -99 80.499v-262c0 -55.333 16.333 -93.833 49 -115.5s82 -32.5 148 -32.5v-43c-180 6 -278.333 9 -295 9c-18.667 0 -92.667 -3 -222 -9v43c50 0 85.167 9.16699 105.5 27.5
s30.5 51.5 30.5 99.5v1559c0 63.333 -11.5 109.166 -34.5 137.499s-63.5 42.5 -121.5 42.5v43c42.667 -4 85 -6 127 -6c88 0 159 9.66699 213 29zM339.999 763.001v-613c44 -88 116.333 -132 217 -132c195.333 0 293 176.333 293 529c0 316.667 -79.333 475 -238 475
c-62 0 -117.5 -22.167 -166.5 -66.5s-84.167 -108.5 -105.5 -192.5z" />
    <glyph glyph-name="ydieresis" unicode="&#xff;" horiz-adv-x="1032" 
d="M305 1284c-32.667 0 -60.667 11.667 -84 35s-35 51.333 -35 84c0 32 11.833 59.833 35.5 83.5s51.5 35.5 83.5 35.5s59.833 -12 83.5 -36s35.5 -51.667 35.5 -83c0 -32.667 -11.833 -60.667 -35.5 -84s-51.5 -35 -83.5 -35zM739 1284c-32.667 0 -60.5 11.667 -83.5 35
s-34.5 51.333 -34.5 84c0 32 11.667 59.833 35 83.5s51 35.5 83 35.5s59.833 -12 83.5 -36s35.5 -51.667 35.5 -83c0 -32.667 -11.833 -60.667 -35.5 -84s-51.5 -35 -83.5 -35zM684 1014l-0.00292969 41c72 -4 129.333 -6 172 -6c61.333 0 113.333 2 156 6v-41
c-27.333 -3.33301 -51.666 -15.666 -72.999 -36.999s-41.333 -57 -60 -107l-336 -880l-70 -178c-26 -67.333 -55.333 -115.333 -88 -144c-38.667 -35.333 -92 -53 -160 -53c-40.667 0 -74 10.833 -100 32.5s-39 51.834 -39 90.501c0 32.667 9.66699 58.834 29 78.501
s46 29.5 80 29.5c30 0 54.833 -8.33301 74.5 -25s29.5 -40.334 29.5 -71.001c0 -40.667 -18.333 -71.334 -55 -92.001c2.66699 -1.33301 6.66699 -2 12 -2c75.333 0 133.333 53.333 174 160l73 187l-372 894c-38 76.667 -84.333 115 -139 115v43
c64 -8.66699 131 -13 201 -13c58.667 0 147.334 4.33301 266.001 13v-43c-20 0 -35 -0.166992 -45 -0.5s-22.5 -1.66602 -37.5 -3.99902s-26 -5.83301 -33 -10.5s-13.333 -11.667 -19 -21s-8.5 -21 -8.5 -35c0 -24.667 8.66699 -58.334 26 -101.001l247 -612l226 593
c14.667 40 22 71.333 22 94c0 32 -12.167 55.667 -36.5 71s-63.166 24.666 -116.499 27.999z" />
    <glyph glyph-name="Amacron" unicode="&#x100;" horiz-adv-x="1290" 
d="M993 1677h-721v52h721v-52zM662 1460l499.001 -1288c33.333 -84.667 80.666 -128.334 141.999 -131.001v-41c-56 4 -129.333 6 -220 6c-116.667 0 -204 -2 -262 -6v41c52 2 89.167 8.33301 111.5 19s33.5 29.667 33.5 57c0 23.333 -8 55.333 -24 96l-126 336h-494
l-84 -217c-27.333 -69.333 -41 -125.333 -41 -168c0 -43.333 14.5 -74.333 43.5 -93s73.833 -28.667 134.5 -30v-41c-78 4 -156.667 6 -236 6c-61.333 0 -112.333 -2 -153 -6v41c68 15.333 121.667 74.666 161 177.999l482 1241h33zM801.001 590.002l-229 611l-235 -611h464
z" />
    <glyph glyph-name="amacron" unicode="&#x101;" horiz-adv-x="1020" 
d="M817 1407h-639v51h639v-51zM655 709v127.001c0 79.333 -16.5 133.5 -49.5 162.5s-79.833 43.5 -140.5 43.5c-96.667 0 -164.334 -24.333 -203.001 -73c27.333 -6.66699 50.166 -21.167 68.499 -43.5s27.5 -49.5 27.5 -81.5c0 -34.667 -10.833 -61.834 -32.5 -81.501
s-50.834 -29.5 -87.501 -29.5c-34.667 0 -61.834 11.667 -81.501 35s-29.5 54 -29.5 92c0 53.333 32 102 96 146c78.667 51.333 174.334 77 287.001 77c114 0 196.667 -25.667 248 -77c31.333 -32 52.833 -69.167 64.5 -111.5s17.5 -100.833 17.5 -175.5v-569
c0 -34 4.83301 -58.667 14.5 -74s25.834 -23 48.501 -23c28 0 58.667 14.333 92 43l23 -35c-24 -18 -42.667 -31.333 -56 -40s-31.666 -16.667 -54.999 -24s-48.666 -11 -75.999 -11c-66 0 -111.833 16.5 -137.5 49.5s-38.5 77.167 -38.5 132.5
c-40 -66 -88 -112.833 -144 -140.5s-113 -41.5 -171 -41.5c-74 0 -135.833 19.333 -185.5 58s-74.5 95.667 -74.5 171c0 39.333 7 74.333 21 105s36.833 58.667 68.5 84s65.334 47.5 101.001 66.5s82.167 40.5 139.5 64.5c8.66699 4 23.167 10 43.5 18
s34.666 13.833 42.999 17.5l37.5 16.5c16.667 7.33301 28.5 13.166 35.5 17.499l28 17c11.667 7 20 13.333 25 19s10.5 12.334 16.5 20.001s10.167 15.5 12.5 23.5s3.5 16.333 3.5 25zM655 223.001l-0.00195312 401.995c-10 -15.333 -26.667 -29.666 -50 -42.999
s-72 -38 -146 -74c-28.667 -14 -52.167 -26.667 -70.5 -38s-38.666 -27.166 -60.999 -47.499s-39.166 -45.166 -50.499 -74.499s-17 -62.666 -17 -99.999c0 -59.333 15 -104.166 45 -134.499s69.667 -45.5 119 -45.5c90.667 0 167.667 51.667 231 155z" />
    <glyph glyph-name="Abreve" unicode="&#x102;" horiz-adv-x="1290" 
d="M1016 1862l24.001 -23.001c-18 -29.333 -39 -56.833 -63 -82.5s-52.5 -50.667 -85.5 -75s-71.833 -43.666 -116.5 -57.999s-92 -21.5 -142 -21.5c-65.333 0 -126.5 13 -183.5 39s-102.333 55.5 -136 88.5s-63.167 69.5 -88.5 109.5l27 21
c37.333 -36.667 87.666 -67.667 150.999 -93s140 -38 230 -38c89.333 0 166 12.833 230 38.5s115 57.167 153 94.5zM662.001 1460l499.001 -1288c33.333 -84.667 80.666 -128.334 141.999 -131.001v-41c-56 4 -129.333 6 -220 6c-116.667 0 -204 -2 -262 -6v41
c52 2 89.167 8.33301 111.5 19s33.5 29.667 33.5 57c0 23.333 -8 55.333 -24 96l-126 336h-494l-84 -217c-27.333 -69.333 -41 -125.333 -41 -168c0 -43.333 14.5 -74.333 43.5 -93s73.833 -28.667 134.5 -30v-41c-78 4 -156.667 6 -236 6c-61.333 0 -112.333 -2 -153 -6v41
c68 15.333 121.667 74.666 161 177.999l482 1241h33zM801.002 590.001l-229 611l-235 -611h464z" />
    <glyph glyph-name="abreve" unicode="&#x103;" horiz-adv-x="1020" 
d="M834 1614l34.998 -19c-15.333 -37.333 -33.833 -72.5 -55.5 -105.5s-47.5 -64.667 -77.5 -95s-65.167 -54.333 -105.5 -72s-83.166 -26.5 -128.499 -26.5c-44.667 0 -87.167 9 -127.5 27s-75.5 42 -105.5 72s-55.833 61.5 -77.5 94.5s-40.167 68.167 -55.5 105.5l34 19
c80 -131.333 190.667 -197 332 -197c142.667 0 253.334 65.667 332.001 197zM654.998 709v127.001c0 79.333 -16.5 133.5 -49.5 162.5s-79.833 43.5 -140.5 43.5c-96.667 0 -164.334 -24.333 -203.001 -73c27.333 -6.66699 50.166 -21.167 68.499 -43.5
s27.5 -49.5 27.5 -81.5c0 -34.667 -10.833 -61.834 -32.5 -81.501s-50.834 -29.5 -87.501 -29.5c-34.667 0 -61.834 11.667 -81.501 35s-29.5 54 -29.5 92c0 53.333 32 102 96 146c78.667 51.333 174.334 77 287.001 77c114 0 196.667 -25.667 248 -77
c31.333 -32 52.833 -69.167 64.5 -111.5s17.5 -100.833 17.5 -175.5v-569c0 -34 4.83301 -58.667 14.5 -74s25.834 -23 48.501 -23c28 0 58.667 14.333 92 43l23 -35c-24 -18 -42.667 -31.333 -56 -40s-31.666 -16.667 -54.999 -24s-48.666 -11 -75.999 -11
c-66 0 -111.833 16.5 -137.5 49.5s-38.5 77.167 -38.5 132.5c-40 -66 -88 -112.833 -144 -140.5s-113 -41.5 -171 -41.5c-74 0 -135.833 19.333 -185.5 58s-74.5 95.667 -74.5 171c0 39.333 7 74.333 21 105s36.833 58.667 68.5 84s65.334 47.5 101.001 66.5
s82.167 40.5 139.5 64.5c8.66699 4 23.167 10 43.5 18s34.666 13.833 42.999 17.5l37.5 16.5c16.667 7.33301 28.5 13.166 35.5 17.499l28 17c11.667 7 20 13.333 25 19s10.5 12.334 16.5 20.001s10.167 15.5 12.5 23.5s3.5 16.333 3.5 25zM654.998 223.001
l-0.00195312 401.995c-10 -15.333 -26.667 -29.666 -50 -42.999s-72 -38 -146 -74c-28.667 -14 -52.167 -26.667 -70.5 -38s-38.666 -27.166 -60.999 -47.499s-39.166 -45.166 -50.499 -74.499s-17 -62.666 -17 -99.999c0 -59.333 15 -104.166 45 -134.499
s69.667 -45.5 119 -45.5c90.667 0 167.667 51.667 231 155z" />
    <glyph glyph-name="Aogonek" unicode="&#x104;" horiz-adv-x="1290" 
d="M1280 -219l30.0039 -27c-60.667 -92.667 -137.667 -139 -231 -139c-48.667 0 -87.834 12.167 -117.501 36.5s-44.5 56.5 -44.5 96.5c0 52.667 24.167 101.334 72.5 146.001s117.166 81.667 206.499 111c-24.667 0.666992 -62.334 1 -113.001 1
c-116.667 0 -204 -2 -262 -6v41c52 2 89.167 8.33301 111.5 19s33.5 29.667 33.5 57c0 23.333 -8 55.333 -24 96l-126 336h-494l-84 -217c-27.333 -69.333 -41 -125.333 -41 -168c0 -43.333 14.5 -74.333 43.5 -93s73.833 -28.667 134.5 -30v-41c-78 4 -156.667 6 -236 6
c-61.333 0 -112.333 -2 -153 -6v41c68 15.333 121.667 74.666 161 177.999l482 1241h33l499 -1288c33.333 -84.667 80.666 -128.334 141.999 -131.001v-41l-38 2c-70 -20 -120.5 -48.333 -151.5 -85s-46.5 -74.667 -46.5 -114c0 -27.333 7.83301 -49.166 23.5 -65.499
s37.167 -24.5 64.5 -24.5c24.667 0 48.167 6.5 70.5 19.5s40.5 29.167 54.5 48.5zM801.004 590l-229 611l-235 -611h464z" />
    <glyph glyph-name="aogonek" unicode="&#x105;" horiz-adv-x="1020" 
d="M995 96l23.002 -35c-37.333 -28.667 -67.666 -47.667 -90.999 -57c-1.33301 -1.33301 -7 -4 -17 -8c-118.667 -50.667 -178 -115 -178 -193c0 -27.333 7.83301 -49.166 23.5 -65.499s37.167 -24.5 64.5 -24.5c24.667 0 48.167 6.5 70.5 19.5s40.5 29.167 54.5 48.5
l30 -27c-60.667 -92.667 -137.667 -139 -231 -139c-48.667 0 -87.834 12.167 -117.501 36.5s-44.5 56.5 -44.5 96.5c0 48 19.833 92.333 59.5 133s96.167 76 169.5 106c-104 6 -156 66.333 -156 181c-40 -66 -88 -112.833 -144 -140.5s-113 -41.5 -171 -41.5
c-74 0 -135.833 19.333 -185.5 58s-74.5 95.667 -74.5 171c0 39.333 7 74.333 21 105s36.833 58.667 68.5 84s65.334 47.5 101.001 66.5s82.167 40.5 139.5 64.5c8.66699 4 23.167 10 43.5 18s34.666 13.833 42.999 17.5l37.5 16.5c16.667 7.33301 28.5 13.166 35.5 17.499
l28 17c11.667 7 20 13.333 25 19s10.5 12.334 16.5 20.001s10.167 15.5 12.5 23.5s3.5 16.333 3.5 25v127c0 79.333 -16.5 133.5 -49.5 162.5s-79.833 43.5 -140.5 43.5c-96.667 0 -164.334 -24.333 -203.001 -73c27.333 -6.66699 50.166 -21.167 68.499 -43.5
s27.5 -49.5 27.5 -81.5c0 -34.667 -10.833 -61.834 -32.5 -81.501s-50.834 -29.5 -87.501 -29.5c-34.667 0 -61.834 11.667 -81.501 35s-29.5 54 -29.5 92c0 53.333 32 102 96 146c78.667 51.333 174.334 77 287.001 77c114 0 196.667 -25.667 248 -77
c31.333 -32 52.833 -69.167 64.5 -111.5s17.5 -100.833 17.5 -175.5v-569c0 -34 4.83301 -58.667 14.5 -74s25.834 -23 48.501 -23c28 0 58.667 14.333 92 43zM655.002 223l-0.00195312 401.995c-10 -15.333 -26.667 -29.666 -50 -42.999s-72 -38 -146 -74
c-28.667 -14 -52.167 -26.667 -70.5 -38s-38.666 -27.166 -60.999 -47.499s-39.166 -45.166 -50.499 -74.499s-17 -62.666 -17 -99.999c0 -59.333 15 -104.166 45 -134.499s69.667 -45.5 119 -45.5c90.667 0 167.667 51.667 231 155z" />
    <glyph glyph-name="Cacute" unicode="&#x106;" horiz-adv-x="1409" 
d="M634 1581l-13.9971 27.002c65.333 50 132.166 106.167 200.499 168.5s116.166 102.166 143.499 119.499c20.667 13.333 41.334 20 62.001 20c26.667 0 47.667 -11.333 63 -34c7.33301 -12.667 11 -25.334 11 -38.001c0 -30 -18 -57 -54 -81
c-26.667 -16 -83.334 -40.833 -170.001 -74.5s-167.334 -69.5 -242.001 -107.5zM1276 0.00195312l-47 0.000976562c-3.33301 42.667 -8.83301 73.5 -16.5 92.5s-18.834 28.5 -33.501 28.5c-10.667 0 -24.667 -5.66699 -42 -17c-62 -43.333 -120.833 -76.333 -176.5 -99
s-123.167 -34 -202.5 -34c-197.333 0 -354.833 65.833 -472.5 197.5s-176.5 313.167 -176.5 544.5c0 150.667 27.667 284.167 83 400.5s132.333 206.333 231 270s211 95.5 337 95.5c81.333 0 150.833 -11.667 208.5 -35s113.834 -56 168.501 -98c14.667 -12 28 -18 40 -18
c28 0 45.333 40.667 52 122h47c-5.33301 -88.667 -8 -245.667 -8 -471h-47c-14.667 89.333 -28.334 153.166 -41.001 191.499s-33.334 75.5 -62.001 111.5c-41.333 53.333 -93.666 93.333 -156.999 120s-131.666 40 -204.999 40c-134 0 -241.333 -65 -322 -195
s-121 -305.333 -121 -526c0 -222.667 43.167 -396.5 129.5 -521.5s197.5 -187.5 333.5 -187.5c68 0 134.333 13 199 39s115 65 151 117c28 37.333 48 77.833 60 121.5s23.667 111.167 35 202.5h47c0 -235.333 2.66699 -399.333 8 -492z" />
    </font>
</defs>
</svg>
